<?xml version="1.0" encoding="utf-8" standalone="no"?>
<!DOCTYPE svg PUBLIC "-//W3C//DTD SVG 1.1//EN"
  "http://www.w3.org/Graphics/SVG/1.1/DTD/svg11.dtd">
<svg xmlns:xlink="http://www.w3.org/1999/xlink" width="531.8665pt" height="179.927062pt" viewBox="0 0 531.8665 179.927062" xmlns="http://www.w3.org/2000/svg" version="1.1">
 <metadata>
  <rdf:RDF xmlns:dc="http://purl.org/dc/elements/1.1/" xmlns:cc="http://creativecommons.org/ns#" xmlns:rdf="http://www.w3.org/1999/02/22-rdf-syntax-ns#">
   <cc:Work>
    <dc:type rdf:resource="http://purl.org/dc/dcmitype/StillImage"/>
    <dc:date>2026-07-17T15:58:40.218402</dc:date>
    <dc:format>image/svg+xml</dc:format>
    <dc:creator>
     <cc:Agent>
      <dc:title>Matplotlib v3.11.0, https://matplotlib.org/</dc:title>
     </cc:Agent>
    </dc:creator>
   </cc:Work>
  </rdf:RDF>
 </metadata>
 <defs>
  <style type="text/css">*{stroke-linejoin: round; stroke-linecap: butt}</style>
 </defs>
 <g id="figure_1">
  <g id="patch_1">
   <path d="M 0 179.927062 
L 531.8665 179.927062 
L 531.8665 0 
L 0 0 
z
" style="fill: #ffffff"/>
  </g>
  <g id="axes_1">
   <g id="patch_2">
    <path d="M 48.46875 146.726437 
L 520.21275 146.726437 
L 520.21275 20.798437 
L 48.46875 20.798437 
z
" style="fill: #ffffff"/>
   </g>
   <g id="matplotlib.axis_1">
    <g id="xtick_1">
     <g id="line2d_1">
      <path d="M 48.46875 146.726437 
L 48.46875 20.798437 
" clip-path="url(#p45c1069199)" style="fill: none; stroke: #b0b0b0; stroke-opacity: 0.25; stroke-width: 0.8; stroke-linecap: square"/>
     </g>
     <g id="line2d_2">
      <defs>
       <path id="m1347a4509e" d="M 0 0 
L 0 3.5 
" style="stroke: #000000; stroke-width: 0.8"/>
      </defs>
      <g>
       <use xlink:href="#m1347a4509e" x="48.46875" y="146.726437" style="stroke: #000000; stroke-width: 0.8"/>
      </g>
     </g>
     <g id="text_1">
      <text style="font-size: 7px; font-family: 'DejaVu Sans', 'Bitstream Vera Sans', 'Computer Modern Sans Serif', 'Lucida Grande', 'Verdana', 'Geneva', 'Lucid', 'Arial', 'Helvetica', 'Avant Garde', sans-serif; text-anchor: middle" x="48.46875" y="159.044797" transform="rotate(-0 48.46875 159.044797)">0</text>
     </g>
    </g>
    <g id="xtick_2">
     <g id="line2d_3">
      <path d="M 107.43675 146.726437 
L 107.43675 20.798437 
" clip-path="url(#p45c1069199)" style="fill: none; stroke: #b0b0b0; stroke-opacity: 0.25; stroke-width: 0.8; stroke-linecap: square"/>
     </g>
     <g id="line2d_4">
      <g>
       <use xlink:href="#m1347a4509e" x="107.43675" y="146.726437" style="stroke: #000000; stroke-width: 0.8"/>
      </g>
     </g>
     <g id="text_2">
      <text style="font-size: 7px; font-family: 'DejaVu Sans', 'Bitstream Vera Sans', 'Computer Modern Sans Serif', 'Lucida Grande', 'Verdana', 'Geneva', 'Lucid', 'Arial', 'Helvetica', 'Avant Garde', sans-serif; text-anchor: middle" x="107.43675" y="159.044797" transform="rotate(-0 107.43675 159.044797)">10</text>
     </g>
    </g>
    <g id="xtick_3">
     <g id="line2d_5">
      <path d="M 166.40475 146.726437 
L 166.40475 20.798437 
" clip-path="url(#p45c1069199)" style="fill: none; stroke: #b0b0b0; stroke-opacity: 0.25; stroke-width: 0.8; stroke-linecap: square"/>
     </g>
     <g id="line2d_6">
      <g>
       <use xlink:href="#m1347a4509e" x="166.40475" y="146.726437" style="stroke: #000000; stroke-width: 0.8"/>
      </g>
     </g>
     <g id="text_3">
      <text style="font-size: 7px; font-family: 'DejaVu Sans', 'Bitstream Vera Sans', 'Computer Modern Sans Serif', 'Lucida Grande', 'Verdana', 'Geneva', 'Lucid', 'Arial', 'Helvetica', 'Avant Garde', sans-serif; text-anchor: middle" x="166.40475" y="159.044797" transform="rotate(-0 166.40475 159.044797)">20</text>
     </g>
    </g>
    <g id="xtick_4">
     <g id="line2d_7">
      <path d="M 225.37275 146.726437 
L 225.37275 20.798437 
" clip-path="url(#p45c1069199)" style="fill: none; stroke: #b0b0b0; stroke-opacity: 0.25; stroke-width: 0.8; stroke-linecap: square"/>
     </g>
     <g id="line2d_8">
      <g>
       <use xlink:href="#m1347a4509e" x="225.37275" y="146.726437" style="stroke: #000000; stroke-width: 0.8"/>
      </g>
     </g>
     <g id="text_4">
      <text style="font-size: 7px; font-family: 'DejaVu Sans', 'Bitstream Vera Sans', 'Computer Modern Sans Serif', 'Lucida Grande', 'Verdana', 'Geneva', 'Lucid', 'Arial', 'Helvetica', 'Avant Garde', sans-serif; text-anchor: middle" x="225.37275" y="159.044797" transform="rotate(-0 225.37275 159.044797)">30</text>
     </g>
    </g>
    <g id="xtick_5">
     <g id="line2d_9">
      <path d="M 284.34075 146.726437 
L 284.34075 20.798437 
" clip-path="url(#p45c1069199)" style="fill: none; stroke: #b0b0b0; stroke-opacity: 0.25; stroke-width: 0.8; stroke-linecap: square"/>
     </g>
     <g id="line2d_10">
      <g>
       <use xlink:href="#m1347a4509e" x="284.34075" y="146.726437" style="stroke: #000000; stroke-width: 0.8"/>
      </g>
     </g>
     <g id="text_5">
      <text style="font-size: 7px; font-family: 'DejaVu Sans', 'Bitstream Vera Sans', 'Computer Modern Sans Serif', 'Lucida Grande', 'Verdana', 'Geneva', 'Lucid', 'Arial', 'Helvetica', 'Avant Garde', sans-serif; text-anchor: middle" x="284.34075" y="159.044797" transform="rotate(-0 284.34075 159.044797)">40</text>
     </g>
    </g>
    <g id="xtick_6">
     <g id="line2d_11">
      <path d="M 343.30875 146.726437 
L 343.30875 20.798437 
" clip-path="url(#p45c1069199)" style="fill: none; stroke: #b0b0b0; stroke-opacity: 0.25; stroke-width: 0.8; stroke-linecap: square"/>
     </g>
     <g id="line2d_12">
      <g>
       <use xlink:href="#m1347a4509e" x="343.30875" y="146.726437" style="stroke: #000000; stroke-width: 0.8"/>
      </g>
     </g>
     <g id="text_6">
      <text style="font-size: 7px; font-family: 'DejaVu Sans', 'Bitstream Vera Sans', 'Computer Modern Sans Serif', 'Lucida Grande', 'Verdana', 'Geneva', 'Lucid', 'Arial', 'Helvetica', 'Avant Garde', sans-serif; text-anchor: middle" x="343.30875" y="159.044797" transform="rotate(-0 343.30875 159.044797)">50</text>
     </g>
    </g>
    <g id="xtick_7">
     <g id="line2d_13">
      <path d="M 402.27675 146.726437 
L 402.27675 20.798437 
" clip-path="url(#p45c1069199)" style="fill: none; stroke: #b0b0b0; stroke-opacity: 0.25; stroke-width: 0.8; stroke-linecap: square"/>
     </g>
     <g id="line2d_14">
      <g>
       <use xlink:href="#m1347a4509e" x="402.27675" y="146.726437" style="stroke: #000000; stroke-width: 0.8"/>
      </g>
     </g>
     <g id="text_7">
      <text style="font-size: 7px; font-family: 'DejaVu Sans', 'Bitstream Vera Sans', 'Computer Modern Sans Serif', 'Lucida Grande', 'Verdana', 'Geneva', 'Lucid', 'Arial', 'Helvetica', 'Avant Garde', sans-serif; text-anchor: middle" x="402.27675" y="159.044797" transform="rotate(-0 402.27675 159.044797)">60</text>
     </g>
    </g>
    <g id="xtick_8">
     <g id="line2d_15">
      <path d="M 461.24475 146.726437 
L 461.24475 20.798437 
" clip-path="url(#p45c1069199)" style="fill: none; stroke: #b0b0b0; stroke-opacity: 0.25; stroke-width: 0.8; stroke-linecap: square"/>
     </g>
     <g id="line2d_16">
      <g>
       <use xlink:href="#m1347a4509e" x="461.24475" y="146.726437" style="stroke: #000000; stroke-width: 0.8"/>
      </g>
     </g>
     <g id="text_8">
      <text style="font-size: 7px; font-family: 'DejaVu Sans', 'Bitstream Vera Sans', 'Computer Modern Sans Serif', 'Lucida Grande', 'Verdana', 'Geneva', 'Lucid', 'Arial', 'Helvetica', 'Avant Garde', sans-serif; text-anchor: middle" x="461.24475" y="159.044797" transform="rotate(-0 461.24475 159.044797)">70</text>
     </g>
    </g>
    <g id="xtick_9">
     <g id="line2d_17">
      <path d="M 520.21275 146.726437 
L 520.21275 20.798437 
" clip-path="url(#p45c1069199)" style="fill: none; stroke: #b0b0b0; stroke-opacity: 0.25; stroke-width: 0.8; stroke-linecap: square"/>
     </g>
     <g id="line2d_18">
      <g>
       <use xlink:href="#m1347a4509e" x="520.21275" y="146.726437" style="stroke: #000000; stroke-width: 0.8"/>
      </g>
     </g>
     <g id="text_9">
      <text style="font-size: 7px; font-family: 'DejaVu Sans', 'Bitstream Vera Sans', 'Computer Modern Sans Serif', 'Lucida Grande', 'Verdana', 'Geneva', 'Lucid', 'Arial', 'Helvetica', 'Avant Garde', sans-serif; text-anchor: middle" x="520.21275" y="159.044797" transform="rotate(-0 520.21275 159.044797)">80</text>
     </g>
    </g>
    <g id="text_10">
     <text style="font-size: 8px; font-family: 'DejaVu Sans', 'Bitstream Vera Sans', 'Computer Modern Sans Serif', 'Lucida Grande', 'Verdana', 'Geneva', 'Lucid', 'Arial', 'Helvetica', 'Avant Garde', sans-serif; text-anchor: middle" x="284.34075" y="170.805187" transform="rotate(-0 284.34075 170.805187)">Receive interval (ms)</text>
    </g>
   </g>
   <g id="matplotlib.axis_2">
    <g id="ytick_1">
     <g id="line2d_19">
      <path d="M 48.46875 146.726437 
L 520.21275 146.726437 
" clip-path="url(#p45c1069199)" style="fill: none; stroke: #b0b0b0; stroke-opacity: 0.25; stroke-width: 0.8; stroke-linecap: square"/>
     </g>
     <g id="line2d_20">
      <defs>
       <path id="m9f7d6706bc" d="M 0 0 
L -3.5 0 
" style="stroke: #000000; stroke-width: 0.8"/>
      </defs>
      <g>
       <use xlink:href="#m9f7d6706bc" x="48.46875" y="146.726437" style="stroke: #000000; stroke-width: 0.8"/>
      </g>
     </g>
     <g id="text_11">
      <text style="font-size: 7px; font-family: 'DejaVu Sans', 'Bitstream Vera Sans', 'Computer Modern Sans Serif', 'Lucida Grande', 'Verdana', 'Geneva', 'Lucid', 'Arial', 'Helvetica', 'Avant Garde', sans-serif; text-anchor: end" x="41.46875" y="149.385617" transform="rotate(-0 41.46875 149.385617)">0</text>
     </g>
    </g>
    <g id="ytick_2">
     <g id="line2d_21">
      <path d="M 48.46875 130.065824 
L 520.21275 130.065824 
" clip-path="url(#p45c1069199)" style="fill: none; stroke: #b0b0b0; stroke-opacity: 0.25; stroke-width: 0.8; stroke-linecap: square"/>
     </g>
     <g id="line2d_22">
      <g>
       <use xlink:href="#m9f7d6706bc" x="48.46875" y="130.065824" style="stroke: #000000; stroke-width: 0.8"/>
      </g>
     </g>
     <g id="text_12">
      <text style="font-size: 7px; font-family: 'DejaVu Sans', 'Bitstream Vera Sans', 'Computer Modern Sans Serif', 'Lucida Grande', 'Verdana', 'Geneva', 'Lucid', 'Arial', 'Helvetica', 'Avant Garde', sans-serif; text-anchor: end" x="41.46875" y="132.725003" transform="rotate(-0 41.46875 132.725003)">2000</text>
     </g>
    </g>
    <g id="ytick_3">
     <g id="line2d_23">
      <path d="M 48.46875 113.40521 
L 520.21275 113.40521 
" clip-path="url(#p45c1069199)" style="fill: none; stroke: #b0b0b0; stroke-opacity: 0.25; stroke-width: 0.8; stroke-linecap: square"/>
     </g>
     <g id="line2d_24">
      <g>
       <use xlink:href="#m9f7d6706bc" x="48.46875" y="113.40521" style="stroke: #000000; stroke-width: 0.8"/>
      </g>
     </g>
     <g id="text_13">
      <text style="font-size: 7px; font-family: 'DejaVu Sans', 'Bitstream Vera Sans', 'Computer Modern Sans Serif', 'Lucida Grande', 'Verdana', 'Geneva', 'Lucid', 'Arial', 'Helvetica', 'Avant Garde', sans-serif; text-anchor: end" x="41.46875" y="116.06439" transform="rotate(-0 41.46875 116.06439)">4000</text>
     </g>
    </g>
    <g id="ytick_4">
     <g id="line2d_25">
      <path d="M 48.46875 96.744596 
L 520.21275 96.744596 
" clip-path="url(#p45c1069199)" style="fill: none; stroke: #b0b0b0; stroke-opacity: 0.25; stroke-width: 0.8; stroke-linecap: square"/>
     </g>
     <g id="line2d_26">
      <g>
       <use xlink:href="#m9f7d6706bc" x="48.46875" y="96.744596" style="stroke: #000000; stroke-width: 0.8"/>
      </g>
     </g>
     <g id="text_14">
      <text style="font-size: 7px; font-family: 'DejaVu Sans', 'Bitstream Vera Sans', 'Computer Modern Sans Serif', 'Lucida Grande', 'Verdana', 'Geneva', 'Lucid', 'Arial', 'Helvetica', 'Avant Garde', sans-serif; text-anchor: end" x="41.46875" y="99.403776" transform="rotate(-0 41.46875 99.403776)">6000</text>
     </g>
    </g>
    <g id="ytick_5">
     <g id="line2d_27">
      <path d="M 48.46875 80.083982 
L 520.21275 80.083982 
" clip-path="url(#p45c1069199)" style="fill: none; stroke: #b0b0b0; stroke-opacity: 0.25; stroke-width: 0.8; stroke-linecap: square"/>
     </g>
     <g id="line2d_28">
      <g>
       <use xlink:href="#m9f7d6706bc" x="48.46875" y="80.083982" style="stroke: #000000; stroke-width: 0.8"/>
      </g>
     </g>
     <g id="text_15">
      <text style="font-size: 7px; font-family: 'DejaVu Sans', 'Bitstream Vera Sans', 'Computer Modern Sans Serif', 'Lucida Grande', 'Verdana', 'Geneva', 'Lucid', 'Arial', 'Helvetica', 'Avant Garde', sans-serif; text-anchor: end" x="41.46875" y="82.743162" transform="rotate(-0 41.46875 82.743162)">8000</text>
     </g>
    </g>
    <g id="ytick_6">
     <g id="line2d_29">
      <path d="M 48.46875 63.423368 
L 520.21275 63.423368 
" clip-path="url(#p45c1069199)" style="fill: none; stroke: #b0b0b0; stroke-opacity: 0.25; stroke-width: 0.8; stroke-linecap: square"/>
     </g>
     <g id="line2d_30">
      <g>
       <use xlink:href="#m9f7d6706bc" x="48.46875" y="63.423368" style="stroke: #000000; stroke-width: 0.8"/>
      </g>
     </g>
     <g id="text_16">
      <text style="font-size: 7px; font-family: 'DejaVu Sans', 'Bitstream Vera Sans', 'Computer Modern Sans Serif', 'Lucida Grande', 'Verdana', 'Geneva', 'Lucid', 'Arial', 'Helvetica', 'Avant Garde', sans-serif; text-anchor: end" x="41.46875" y="66.082548" transform="rotate(-0 41.46875 66.082548)">10000</text>
     </g>
    </g>
    <g id="ytick_7">
     <g id="line2d_31">
      <path d="M 48.46875 46.762755 
L 520.21275 46.762755 
" clip-path="url(#p45c1069199)" style="fill: none; stroke: #b0b0b0; stroke-opacity: 0.25; stroke-width: 0.8; stroke-linecap: square"/>
     </g>
     <g id="line2d_32">
      <g>
       <use xlink:href="#m9f7d6706bc" x="48.46875" y="46.762755" style="stroke: #000000; stroke-width: 0.8"/>
      </g>
     </g>
     <g id="text_17">
      <text style="font-size: 7px; font-family: 'DejaVu Sans', 'Bitstream Vera Sans', 'Computer Modern Sans Serif', 'Lucida Grande', 'Verdana', 'Geneva', 'Lucid', 'Arial', 'Helvetica', 'Avant Garde', sans-serif; text-anchor: end" x="41.46875" y="49.421934" transform="rotate(-0 41.46875 49.421934)">12000</text>
     </g>
    </g>
    <g id="ytick_8">
     <g id="line2d_33">
      <path d="M 48.46875 30.102141 
L 520.21275 30.102141 
" clip-path="url(#p45c1069199)" style="fill: none; stroke: #b0b0b0; stroke-opacity: 0.25; stroke-width: 0.8; stroke-linecap: square"/>
     </g>
     <g id="line2d_34">
      <g>
       <use xlink:href="#m9f7d6706bc" x="48.46875" y="30.102141" style="stroke: #000000; stroke-width: 0.8"/>
      </g>
     </g>
     <g id="text_18">
      <text style="font-size: 7px; font-family: 'DejaVu Sans', 'Bitstream Vera Sans', 'Computer Modern Sans Serif', 'Lucida Grande', 'Verdana', 'Geneva', 'Lucid', 'Arial', 'Helvetica', 'Avant Garde', sans-serif; text-anchor: end" x="41.46875" y="32.76132" transform="rotate(-0 41.46875 32.76132)">14000</text>
     </g>
    </g>
    <g id="text_19">
     <text style="font-size: 8px; font-family: 'DejaVu Sans', 'Bitstream Vera Sans', 'Computer Modern Sans Serif', 'Lucida Grande', 'Verdana', 'Geneva', 'Lucid', 'Arial', 'Helvetica', 'Avant Garde', sans-serif; text-anchor: middle" x="13.278125" y="83.762437" transform="rotate(-90 13.278125 83.762437)">Count</text>
    </g>
   </g>
   <g id="patch_3">
    <path d="M 48.46875 146.726437 
L 48.46875 143.552591 
L 59.190205 143.552591 
L 59.190205 146.218289 
L 69.911659 146.218289 
L 69.911659 146.451537 
L 80.633114 146.451537 
L 80.633114 145.818434 
L 91.354568 145.818434 
L 91.354568 143.127745 
L 102.076023 143.127745 
L 102.076023 146.010031 
L 112.797477 146.010031 
L 112.797477 145.99337 
L 123.518932 145.99337 
L 123.518932 141.311738 
L 134.240386 141.311738 
L 134.240386 122.651851 
L 144.961841 122.651851 
L 144.961841 143.910794 
L 155.683295 143.910794 
L 155.683295 144.88544 
L 166.40475 144.88544 
L 166.40475 139.279143 
L 177.126205 139.279143 
L 177.126205 42.314371 
L 187.847659 42.314371 
L 187.847659 141.886529 
L 198.569114 141.886529 
L 198.569114 144.827128 
L 209.290568 144.827128 
L 209.290568 140.137165 
L 220.012023 140.137165 
L 220.012023 98.635576 
L 230.733477 98.635576 
L 230.733477 142.519633 
L 241.454932 142.519633 
L 241.454932 145.543534 
L 252.176386 145.543534 
L 252.176386 144.493915 
L 262.897841 144.493915 
L 262.897841 137.646403 
L 273.619295 137.646403 
L 273.619295 145.376928 
L 284.34075 145.376928 
L 284.34075 146.201628 
L 295.062205 146.201628 
L 295.062205 145.97671 
L 305.783659 145.97671 
L 305.783659 143.952445 
L 316.505114 143.952445 
L 316.505114 146.218289 
L 327.226568 146.218289 
L 327.226568 146.393225 
L 337.948023 146.393225 
L 337.948023 146.484859 
L 348.669477 146.484859 
L 348.669477 145.901737 
L 359.390932 145.901737 
L 359.390932 146.409886 
L 370.112386 146.409886 
L 370.112386 146.584822 
L 380.833841 146.584822 
L 380.833841 146.618144 
L 391.555295 146.618144 
L 391.555295 146.393225 
L 402.27675 146.393225 
L 402.27675 146.50985 
L 412.998205 146.50985 
L 412.998205 146.659795 
L 423.719659 146.659795 
L 423.719659 146.551501 
L 434.441114 146.551501 
L 434.441114 146.543171 
L 445.162568 146.543171 
L 445.162568 146.634804 
L 455.884023 146.634804 
L 455.884023 146.668125 
L 466.605477 146.668125 
L 466.605477 146.701447 
L 477.326932 146.701447 
L 477.326932 146.601483 
L 488.048386 146.601483 
L 488.048386 146.651465 
L 498.769841 146.651465 
L 498.769841 146.726437 
L 509.491295 146.726437 
L 509.491295 146.676456 
L 520.21275 146.676456 
L 520.21275 146.726437 
" clip-path="url(#p45c1069199)" style="fill: none; stroke: #1b9e77; stroke-width: 1.4; stroke-linejoin: miter"/>
   </g>
   <g id="patch_4">
    <path d="M 48.46875 146.726437 
L 48.46875 141.769905 
L 59.190205 141.769905 
L 59.190205 146.076674 
L 69.911659 146.076674 
L 69.911659 146.193298 
L 80.633114 146.193298 
L 80.633114 144.952082 
L 91.354568 144.952082 
L 91.354568 138.437782 
L 102.076023 138.437782 
L 102.076023 145.843425 
L 112.797477 145.843425 
L 112.797477 145.42691 
L 123.518932 145.42691 
L 123.518932 138.246185 
L 134.240386 138.246185 
L 134.240386 116.795645 
L 144.961841 116.795645 
L 144.961841 143.236039 
L 155.683295 143.236039 
L 155.683295 144.935422 
L 166.40475 144.935422 
L 166.40475 137.771358 
L 177.126205 137.771358 
L 177.126205 61.599031 
L 187.847659 61.599031 
L 187.847659 140.903553 
L 198.569114 140.903553 
L 198.569114 145.152009 
L 209.290568 145.152009 
L 209.290568 139.487401 
L 220.012023 139.487401 
L 220.012023 104.483451 
L 230.733477 104.483451 
L 230.733477 141.428362 
L 241.454932 141.428362 
L 241.454932 145.401919 
L 252.176386 145.401919 
L 252.176386 143.969106 
L 262.897841 143.969106 
L 262.897841 135.472193 
L 273.619295 135.472193 
L 273.619295 144.685512 
L 284.34075 144.685512 
L 284.34075 145.910067 
L 295.062205 145.910067 
L 295.062205 145.751792 
L 305.783659 145.751792 
L 305.783659 142.203081 
L 316.505114 142.203081 
L 316.505114 145.660158 
L 327.226568 145.660158 
L 327.226568 146.276601 
L 337.948023 146.276601 
L 337.948023 146.25161 
L 348.669477 146.25161 
L 348.669477 145.068706 
L 359.390932 145.068706 
L 359.390932 145.918398 
L 370.112386 145.918398 
L 370.112386 146.543171 
L 380.833841 146.543171 
L 380.833841 146.551501 
L 391.555295 146.551501 
L 391.555295 145.935058 
L 402.27675 145.935058 
L 402.27675 146.284931 
L 412.998205 146.284931 
L 412.998205 146.501519 
L 423.719659 146.501519 
L 423.719659 146.609813 
L 434.441114 146.609813 
L 434.441114 146.293262 
L 445.162568 146.293262 
L 445.162568 146.50985 
L 455.884023 146.50985 
L 455.884023 146.668125 
L 466.605477 146.668125 
L 466.605477 146.693116 
L 477.326932 146.693116 
L 477.326932 146.568162 
L 488.048386 146.568162 
L 488.048386 146.576492 
L 498.769841 146.576492 
L 498.769841 146.676456 
L 509.491295 146.676456 
L 509.491295 146.651465 
L 520.21275 146.651465 
L 520.21275 146.726437 
" clip-path="url(#p45c1069199)" style="fill: none; stroke: #d95f02; stroke-width: 1.4; stroke-linejoin: miter"/>
   </g>
   <g id="patch_5">
    <path d="M 48.46875 146.726437 
L 48.46875 139.903916 
L 59.190205 139.903916 
L 59.190205 145.851755 
L 69.911659 145.851755 
L 69.911659 145.910067 
L 80.633114 145.910067 
L 80.633114 144.443933 
L 91.354568 144.443933 
L 91.354568 138.221194 
L 102.076023 138.221194 
L 102.076023 145.668489 
L 112.797477 145.668489 
L 112.797477 145.185331 
L 123.518932 145.185331 
L 123.518932 136.588454 
L 134.240386 136.588454 
L 134.240386 110.256354 
L 144.961841 110.256354 
L 144.961841 142.652917 
L 155.683295 142.652917 
L 155.683295 144.244006 
L 166.40475 144.244006 
L 166.40475 135.105659 
L 177.126205 135.105659 
L 177.126205 26.795009 
L 187.847659 26.795009 
L 187.847659 139.262483 
L 198.569114 139.262483 
L 198.569114 144.302318 
L 209.290568 144.302318 
L 209.290568 137.538109 
L 220.012023 137.538109 
L 220.012023 88.031095 
L 230.733477 88.031095 
L 230.733477 139.978889 
L 241.454932 139.978889 
L 241.454932 145.035385 
L 252.176386 145.035385 
L 252.176386 143.510939 
L 262.897841 143.510939 
L 262.897841 133.239671 
L 273.619295 133.239671 
L 273.619295 144.127382 
L 284.34075 144.127382 
L 284.34075 145.735131 
L 295.062205 145.735131 
L 295.062205 145.685149 
L 305.783659 145.685149 
L 305.783659 142.253063 
L 316.505114 142.253063 
L 316.505114 145.493552 
L 327.226568 145.493552 
L 327.226568 146.201628 
L 337.948023 146.201628 
L 337.948023 146.184968 
L 348.669477 146.184968 
L 348.669477 144.952082 
L 359.390932 144.952082 
L 359.390932 145.926728 
L 370.112386 145.926728 
L 370.112386 146.368234 
L 380.833841 146.368234 
L 380.833841 146.418216 
L 391.555295 146.418216 
L 391.555295 146.018361 
L 402.27675 146.018361 
L 402.27675 146.126655 
L 412.998205 146.126655 
L 412.998205 146.443207 
L 423.719659 146.443207 
L 423.719659 146.376565 
L 434.441114 146.376565 
L 434.441114 146.368234 
L 445.162568 146.368234 
L 445.162568 146.393225 
L 455.884023 146.393225 
L 455.884023 146.601483 
L 466.605477 146.601483 
L 466.605477 146.576492 
L 477.326932 146.576492 
L 477.326932 146.584822 
L 488.048386 146.584822 
L 488.048386 146.568162 
L 498.769841 146.568162 
L 498.769841 146.618144 
L 509.491295 146.618144 
L 509.491295 146.626474 
L 520.21275 146.626474 
L 520.21275 146.726437 
" clip-path="url(#p45c1069199)" style="fill: none; stroke: #7570b3; stroke-width: 1.4; stroke-linejoin: miter"/>
   </g>
   <g id="patch_6">
    <path d="M 48.46875 146.726437 
L 48.46875 20.798437 
" style="fill: none; stroke: #000000; stroke-width: 0.8; stroke-linejoin: miter; stroke-linecap: square"/>
   </g>
   <g id="patch_7">
    <path d="M 520.21275 146.726437 
L 520.21275 20.798437 
" style="fill: none; stroke: #000000; stroke-width: 0.8; stroke-linejoin: miter; stroke-linecap: square"/>
   </g>
   <g id="patch_8">
    <path d="M 48.46875 146.726437 
L 520.21275 146.726437 
" style="fill: none; stroke: #000000; stroke-width: 0.8; stroke-linejoin: miter; stroke-linecap: square"/>
   </g>
   <g id="patch_9">
    <path d="M 48.46875 20.798437 
L 520.21275 20.798437 
" style="fill: none; stroke: #000000; stroke-width: 0.8; stroke-linejoin: miter; stroke-linecap: square"/>
   </g>
   <g id="text_20">
    <text style="font-size: 10px; font-family: 'DejaVu Sans', 'Bitstream Vera Sans', 'Computer Modern Sans Serif', 'Lucida Grande', 'Verdana', 'Geneva', 'Lucid', 'Arial', 'Helvetica', 'Avant Garde', sans-serif; text-anchor: middle" x="284.34075" y="14.798437" transform="rotate(-0 284.34075 14.798437)">BLE notification interval distribution</text>
   </g>
   <g id="legend_1">
    <g id="patch_10">
     <path d="M 443.16275 34.077187 
L 459.16275 34.077187 
L 459.16275 28.477187 
L 443.16275 28.477187 
L 443.16275 34.077187 
z
" style="fill: none; stroke: #1b9e77; stroke-width: 1.4; stroke-linejoin: miter"/>
    </g>
    <g id="text_21">
     <text style="font-size: 8px; font-family: 'DejaVu Sans', 'Bitstream Vera Sans', 'Computer Modern Sans Serif', 'Lucida Grande', 'Verdana', 'Geneva', 'Lucid', 'Arial', 'Helvetica', 'Avant Garde', sans-serif; text-anchor: start" x="465.56275" y="34.077187" transform="rotate(-0 465.56275 34.077187)">ascending</text>
    </g>
    <g id="patch_11">
     <path d="M 443.16275 46.077812 
L 459.16275 46.077812 
L 459.16275 40.477812 
L 443.16275 40.477812 
L 443.16275 46.077812 
z
" style="fill: none; stroke: #d95f02; stroke-width: 1.4; stroke-linejoin: miter"/>
    </g>
    <g id="text_22">
     <text style="font-size: 8px; font-family: 'DejaVu Sans', 'Bitstream Vera Sans', 'Computer Modern Sans Serif', 'Lucida Grande', 'Verdana', 'Geneva', 'Lucid', 'Arial', 'Helvetica', 'Avant Garde', sans-serif; text-anchor: start" x="465.56275" y="46.077812" transform="rotate(-0 465.56275 46.077812)">descending</text>
    </g>
    <g id="patch_12">
     <path d="M 443.16275 58.078437 
L 459.16275 58.078437 
L 459.16275 52.478437 
L 443.16275 52.478437 
L 443.16275 58.078437 
z
" style="fill: none; stroke: #7570b3; stroke-width: 1.4; stroke-linejoin: miter"/>
    </g>
    <g id="text_23">
     <text style="font-size: 8px; font-family: 'DejaVu Sans', 'Bitstream Vera Sans', 'Computer Modern Sans Serif', 'Lucida Grande', 'Verdana', 'Geneva', 'Lucid', 'Arial', 'Helvetica', 'Avant Garde', sans-serif; text-anchor: start" x="465.56275" y="58.078437" transform="rotate(-0 465.56275 58.078437)">randomized</text>
    </g>
   </g>
  </g>
 </g>
 <defs>
  <clipPath id="p45c1069199">
   <rect x="48.46875" y="20.798437" width="471.744" height="125.928"/>
  </clipPath>
 </defs>
</svg>
