<?xml version="1.0" encoding="utf-8" standalone="no"?>
<!DOCTYPE svg PUBLIC "-//W3C//DTD SVG 1.1//EN"
  "http://www.w3.org/Graphics/SVG/1.1/DTD/svg11.dtd">
<svg xmlns:xlink="http://www.w3.org/1999/xlink" width="864pt" height="288pt" viewBox="0 0 864 288" xmlns="http://www.w3.org/2000/svg" version="1.1">
 <metadata>
  <rdf:RDF xmlns:dc="http://purl.org/dc/elements/1.1/" xmlns:cc="http://creativecommons.org/ns#" xmlns:rdf="http://www.w3.org/1999/02/22-rdf-syntax-ns#">
   <cc:Work>
    <dc:type rdf:resource="http://purl.org/dc/dcmitype/StillImage"/>
    <dc:date>2026-07-20T21:27:06.434607</dc:date>
    <dc:format>image/svg+xml</dc:format>
    <dc:creator>
     <cc:Agent>
      <dc:title>Matplotlib v3.11.0, https://matplotlib.org/</dc:title>
     </cc:Agent>
    </dc:creator>
   </cc:Work>
  </rdf:RDF>
 </metadata>
 <defs>
  <style type="text/css">*{stroke-linejoin: round; stroke-linecap: butt}</style>
 </defs>
 <g id="figure_1">
  <g id="patch_1">
   <path d="M 0 288 
L 864 288 
L 864 0 
L 0 0 
z
" style="fill: #ffffff"/>
  </g>
  <g id="axes_1">
   <g id="patch_2">
    <path d="M 39.904146 253.998198 
L 294.333614 253.998198 
L 294.333614 36.360017 
L 39.904146 36.360017 
z
" style="fill: #ffffff"/>
   </g>
   <g id="matplotlib.axis_1">
    <g id="xtick_1">
     <g id="line2d_1">
      <path d="M 51.469122 253.998198 
L 51.469122 36.360017 
" clip-path="url(#paab04fbc4b)" style="fill: none; stroke: #dddddd; stroke-width: 0.7; stroke-linecap: square"/>
     </g>
     <g id="line2d_2">
      <defs>
       <path id="m0f4c43bd05" d="M 0 0 
L 0 3.5 
" style="stroke: #000000; stroke-width: 0.8"/>
      </defs>
      <g>
       <use xlink:href="#m0f4c43bd05" x="51.469122" y="253.998198" style="stroke: #000000; stroke-width: 0.8"/>
      </g>
     </g>
     <g id="text_1">
      <!-- 0 -->
      <g transform="translate(48.287872 268.595854) scale(0.1 -0.1)">
       <defs>
        <path id="DejaVuSans-13" d="M 2034 4250 
Q 1547 4250 1301 3770 
Q 1056 3291 1056 2328 
Q 1056 1369 1301 889 
Q 1547 409 2034 409 
Q 2525 409 2770 889 
Q 3016 1369 3016 2328 
Q 3016 3291 2770 3770 
Q 2525 4250 2034 4250 
z
M 2034 4750 
Q 2819 4750 3233 4129 
Q 3647 3509 3647 2328 
Q 3647 1150 3233 529 
Q 2819 -91 2034 -91 
Q 1250 -91 836 529 
Q 422 1150 422 2328 
Q 422 3509 836 4129 
Q 1250 4750 2034 4750 
z
" transform="scale(0.015625)"/>
       </defs>
       <use xlink:href="#DejaVuSans-13"/>
      </g>
     </g>
    </g>
    <g id="xtick_2">
     <g id="line2d_3">
      <path d="M 109.294001 253.998198 
L 109.294001 36.360017 
" clip-path="url(#paab04fbc4b)" style="fill: none; stroke: #dddddd; stroke-width: 0.7; stroke-linecap: square"/>
     </g>
     <g id="line2d_4">
      <g>
       <use xlink:href="#m0f4c43bd05" x="109.294001" y="253.998198" style="stroke: #000000; stroke-width: 0.8"/>
      </g>
     </g>
     <g id="text_2">
      <!-- 5 -->
      <g transform="translate(106.112751 268.595854) scale(0.1 -0.1)">
       <defs>
        <path id="DejaVuSans-18" d="M 691 4666 
L 3169 4666 
L 3169 4134 
L 1269 4134 
L 1269 2991 
Q 1406 3038 1543 3061 
Q 1681 3084 1819 3084 
Q 2600 3084 3056 2656 
Q 3513 2228 3513 1497 
Q 3513 744 3044 326 
Q 2575 -91 1722 -91 
Q 1428 -91 1123 -41 
Q 819 9 494 109 
L 494 744 
Q 775 591 1075 516 
Q 1375 441 1709 441 
Q 2250 441 2565 725 
Q 2881 1009 2881 1497 
Q 2881 1984 2565 2268 
Q 2250 2553 1709 2553 
Q 1456 2553 1204 2497 
Q 953 2441 691 2322 
L 691 4666 
z
" transform="scale(0.015625)"/>
       </defs>
       <use xlink:href="#DejaVuSans-18"/>
      </g>
     </g>
    </g>
    <g id="xtick_3">
     <g id="line2d_5">
      <path d="M 167.11888 253.998198 
L 167.11888 36.360017 
" clip-path="url(#paab04fbc4b)" style="fill: none; stroke: #dddddd; stroke-width: 0.7; stroke-linecap: square"/>
     </g>
     <g id="line2d_6">
      <g>
       <use xlink:href="#m0f4c43bd05" x="167.11888" y="253.998198" style="stroke: #000000; stroke-width: 0.8"/>
      </g>
     </g>
     <g id="text_3">
      <!-- 10 -->
      <g transform="translate(160.75638 268.595854) scale(0.1 -0.1)">
       <defs>
        <path id="DejaVuSans-14" d="M 794 531 
L 1825 531 
L 1825 4091 
L 703 3866 
L 703 4441 
L 1819 4666 
L 2450 4666 
L 2450 531 
L 3481 531 
L 3481 0 
L 794 0 
L 794 531 
z
" transform="scale(0.015625)"/>
       </defs>
       <use xlink:href="#DejaVuSans-14"/>
       <use xlink:href="#DejaVuSans-13" transform="translate(63.625 0)"/>
      </g>
     </g>
    </g>
    <g id="xtick_4">
     <g id="line2d_7">
      <path d="M 224.943759 253.998198 
L 224.943759 36.360017 
" clip-path="url(#paab04fbc4b)" style="fill: none; stroke: #dddddd; stroke-width: 0.7; stroke-linecap: square"/>
     </g>
     <g id="line2d_8">
      <g>
       <use xlink:href="#m0f4c43bd05" x="224.943759" y="253.998198" style="stroke: #000000; stroke-width: 0.8"/>
      </g>
     </g>
     <g id="text_4">
      <!-- 20 -->
      <g transform="translate(218.581259 268.595854) scale(0.1 -0.1)">
       <defs>
        <path id="DejaVuSans-15" d="M 1228 531 
L 3431 531 
L 3431 0 
L 469 0 
L 469 531 
Q 828 903 1448 1529 
Q 2069 2156 2228 2338 
Q 2531 2678 2651 2914 
Q 2772 3150 2772 3378 
Q 2772 3750 2511 3984 
Q 2250 4219 1831 4219 
Q 1534 4219 1204 4116 
Q 875 4013 500 3803 
L 500 4441 
Q 881 4594 1212 4672 
Q 1544 4750 1819 4750 
Q 2544 4750 2975 4387 
Q 3406 4025 3406 3419 
Q 3406 3131 3298 2873 
Q 3191 2616 2906 2266 
Q 2828 2175 2409 1742 
Q 1991 1309 1228 531 
z
" transform="scale(0.015625)"/>
       </defs>
       <use xlink:href="#DejaVuSans-15"/>
       <use xlink:href="#DejaVuSans-13" transform="translate(63.625 0)"/>
      </g>
     </g>
    </g>
    <g id="xtick_5">
     <g id="line2d_9">
      <path d="M 282.768638 253.998198 
L 282.768638 36.360017 
" clip-path="url(#paab04fbc4b)" style="fill: none; stroke: #dddddd; stroke-width: 0.7; stroke-linecap: square"/>
     </g>
     <g id="line2d_10">
      <g>
       <use xlink:href="#m0f4c43bd05" x="282.768638" y="253.998198" style="stroke: #000000; stroke-width: 0.8"/>
      </g>
     </g>
     <g id="text_5">
      <!-- inf -->
      <g transform="translate(276.45067 268.596635) scale(0.1 -0.1)">
       <defs>
        <path id="DejaVuSans-4c" d="M 603 3500 
L 1178 3500 
L 1178 0 
L 603 0 
L 603 3500 
z
M 603 4863 
L 1178 4863 
L 1178 4134 
L 603 4134 
L 603 4863 
z
" transform="scale(0.015625)"/>
        <path id="DejaVuSans-51" d="M 3513 2113 
L 3513 0 
L 2938 0 
L 2938 2094 
Q 2938 2591 2744 2837 
Q 2550 3084 2163 3084 
Q 1697 3084 1428 2787 
Q 1159 2491 1159 1978 
L 1159 0 
L 581 0 
L 581 3500 
L 1159 3500 
L 1159 2956 
Q 1366 3272 1645 3428 
Q 1925 3584 2291 3584 
Q 2894 3584 3203 3211 
Q 3513 2838 3513 2113 
z
" transform="scale(0.015625)"/>
        <path id="DejaVuSans-49" d="M 2375 4863 
L 2375 4384 
L 1825 4384 
Q 1516 4384 1395 4259 
Q 1275 4134 1275 3809 
L 1275 3500 
L 2222 3500 
L 2222 3053 
L 1275 3053 
L 1275 0 
L 697 0 
L 697 3053 
L 147 3053 
L 147 3500 
L 697 3500 
L 697 3744 
Q 697 4328 969 4595 
Q 1241 4863 1831 4863 
L 2375 4863 
z
" transform="scale(0.015625)"/>
       </defs>
       <use xlink:href="#DejaVuSans-4c"/>
       <use xlink:href="#DejaVuSans-51" transform="translate(27.78125 0)"/>
       <use xlink:href="#DejaVuSans-49" transform="translate(91.15625 0)"/>
      </g>
     </g>
    </g>
    <g id="text_6">
     <!-- separator SDR (dB) -->
     <g transform="translate(118.822005 282.597416) scale(0.1 -0.1)">
      <defs>
       <path id="DejaVuSans-56" d="M 2834 3397 
L 2834 2853 
Q 2591 2978 2328 3040 
Q 2066 3103 1784 3103 
Q 1356 3103 1142 2972 
Q 928 2841 928 2578 
Q 928 2378 1081 2264 
Q 1234 2150 1697 2047 
L 1894 2003 
Q 2506 1872 2764 1633 
Q 3022 1394 3022 966 
Q 3022 478 2636 193 
Q 2250 -91 1575 -91 
Q 1294 -91 989 -36 
Q 684 19 347 128 
L 347 722 
Q 666 556 975 473 
Q 1284 391 1588 391 
Q 1994 391 2212 530 
Q 2431 669 2431 922 
Q 2431 1156 2273 1281 
Q 2116 1406 1581 1522 
L 1381 1569 
Q 847 1681 609 1914 
Q 372 2147 372 2553 
Q 372 3047 722 3315 
Q 1072 3584 1716 3584 
Q 2034 3584 2315 3537 
Q 2597 3491 2834 3397 
z
" transform="scale(0.015625)"/>
       <path id="DejaVuSans-48" d="M 3597 1894 
L 3597 1613 
L 953 1613 
Q 991 1019 1311 708 
Q 1631 397 2203 397 
Q 2534 397 2845 478 
Q 3156 559 3463 722 
L 3463 178 
Q 3153 47 2828 -22 
Q 2503 -91 2169 -91 
Q 1331 -91 842 396 
Q 353 884 353 1716 
Q 353 2575 817 3079 
Q 1281 3584 2069 3584 
Q 2775 3584 3186 3129 
Q 3597 2675 3597 1894 
z
M 3022 2063 
Q 3016 2534 2758 2815 
Q 2500 3097 2075 3097 
Q 1594 3097 1305 2825 
Q 1016 2553 972 2059 
L 3022 2063 
z
" transform="scale(0.015625)"/>
       <path id="DejaVuSans-53" d="M 1159 525 
L 1159 -1331 
L 581 -1331 
L 581 3500 
L 1159 3500 
L 1159 2969 
Q 1341 3281 1617 3432 
Q 1894 3584 2278 3584 
Q 2916 3584 3314 3078 
Q 3713 2572 3713 1747 
Q 3713 922 3314 415 
Q 2916 -91 2278 -91 
Q 1894 -91 1617 61 
Q 1341 213 1159 525 
z
M 3116 1747 
Q 3116 2381 2855 2742 
Q 2594 3103 2138 3103 
Q 1681 3103 1420 2742 
Q 1159 2381 1159 1747 
Q 1159 1113 1420 752 
Q 1681 391 2138 391 
Q 2594 391 2855 752 
Q 3116 1113 3116 1747 
z
" transform="scale(0.015625)"/>
       <path id="DejaVuSans-44" d="M 2194 1759 
Q 1497 1759 1228 1600 
Q 959 1441 959 1056 
Q 959 750 1161 570 
Q 1363 391 1709 391 
Q 2188 391 2477 730 
Q 2766 1069 2766 1631 
L 2766 1759 
L 2194 1759 
z
M 3341 1997 
L 3341 0 
L 2766 0 
L 2766 531 
Q 2569 213 2275 61 
Q 1981 -91 1556 -91 
Q 1019 -91 701 211 
Q 384 513 384 1019 
Q 384 1609 779 1909 
Q 1175 2209 1959 2209 
L 2766 2209 
L 2766 2266 
Q 2766 2663 2505 2880 
Q 2244 3097 1772 3097 
Q 1472 3097 1187 3025 
Q 903 2953 641 2809 
L 641 3341 
Q 956 3463 1253 3523 
Q 1550 3584 1831 3584 
Q 2591 3584 2966 3190 
Q 3341 2797 3341 1997 
z
" transform="scale(0.015625)"/>
       <path id="DejaVuSans-55" d="M 2631 2963 
Q 2534 3019 2420 3045 
Q 2306 3072 2169 3072 
Q 1681 3072 1420 2755 
Q 1159 2438 1159 1844 
L 1159 0 
L 581 0 
L 581 3500 
L 1159 3500 
L 1159 2956 
Q 1341 3275 1631 3429 
Q 1922 3584 2338 3584 
Q 2397 3584 2469 3576 
Q 2541 3569 2628 3553 
L 2631 2963 
z
" transform="scale(0.015625)"/>
       <path id="DejaVuSans-57" d="M 1172 4494 
L 1172 3500 
L 2356 3500 
L 2356 3053 
L 1172 3053 
L 1172 1153 
Q 1172 725 1289 603 
Q 1406 481 1766 481 
L 2356 481 
L 2356 0 
L 1766 0 
Q 1100 0 847 248 
Q 594 497 594 1153 
L 594 3053 
L 172 3053 
L 172 3500 
L 594 3500 
L 594 4494 
L 1172 4494 
z
" transform="scale(0.015625)"/>
       <path id="DejaVuSans-52" d="M 1959 3097 
Q 1497 3097 1228 2736 
Q 959 2375 959 1747 
Q 959 1119 1226 758 
Q 1494 397 1959 397 
Q 2419 397 2687 759 
Q 2956 1122 2956 1747 
Q 2956 2369 2687 2733 
Q 2419 3097 1959 3097 
z
M 1959 3584 
Q 2709 3584 3137 3096 
Q 3566 2609 3566 1747 
Q 3566 888 3137 398 
Q 2709 -91 1959 -91 
Q 1206 -91 779 398 
Q 353 888 353 1747 
Q 353 2609 779 3096 
Q 1206 3584 1959 3584 
z
" transform="scale(0.015625)"/>
       <path id="DejaVuSans-3" transform="scale(0.015625)"/>
       <path id="DejaVuSans-36" d="M 3425 4513 
L 3425 3897 
Q 3066 4069 2747 4153 
Q 2428 4238 2131 4238 
Q 1616 4238 1336 4038 
Q 1056 3838 1056 3469 
Q 1056 3159 1242 3001 
Q 1428 2844 1947 2747 
L 2328 2669 
Q 3034 2534 3370 2195 
Q 3706 1856 3706 1288 
Q 3706 609 3251 259 
Q 2797 -91 1919 -91 
Q 1588 -91 1214 -16 
Q 841 59 441 206 
L 441 856 
Q 825 641 1194 531 
Q 1563 422 1919 422 
Q 2459 422 2753 634 
Q 3047 847 3047 1241 
Q 3047 1584 2836 1778 
Q 2625 1972 2144 2069 
L 1759 2144 
Q 1053 2284 737 2584 
Q 422 2884 422 3419 
Q 422 4038 858 4394 
Q 1294 4750 2059 4750 
Q 2388 4750 2728 4690 
Q 3069 4631 3425 4513 
z
" transform="scale(0.015625)"/>
       <path id="DejaVuSans-27" d="M 1259 4147 
L 1259 519 
L 2022 519 
Q 2988 519 3436 956 
Q 3884 1394 3884 2338 
Q 3884 3275 3436 3711 
Q 2988 4147 2022 4147 
L 1259 4147 
z
M 628 4666 
L 1925 4666 
Q 3281 4666 3915 4102 
Q 4550 3538 4550 2338 
Q 4550 1131 3912 565 
Q 3275 0 1925 0 
L 628 0 
L 628 4666 
z
" transform="scale(0.015625)"/>
       <path id="DejaVuSans-35" d="M 2841 2188 
Q 3044 2119 3236 1894 
Q 3428 1669 3622 1275 
L 4263 0 
L 3584 0 
L 2988 1197 
Q 2756 1666 2539 1819 
Q 2322 1972 1947 1972 
L 1259 1972 
L 1259 0 
L 628 0 
L 628 4666 
L 2053 4666 
Q 2853 4666 3247 4331 
Q 3641 3997 3641 3322 
Q 3641 2881 3436 2590 
Q 3231 2300 2841 2188 
z
M 1259 4147 
L 1259 2491 
L 2053 2491 
Q 2509 2491 2742 2702 
Q 2975 2913 2975 3322 
Q 2975 3731 2742 3939 
Q 2509 4147 2053 4147 
L 1259 4147 
z
" transform="scale(0.015625)"/>
       <path id="DejaVuSans-b" d="M 1984 4856 
Q 1566 4138 1362 3434 
Q 1159 2731 1159 2009 
Q 1159 1288 1364 580 
Q 1569 -128 1984 -844 
L 1484 -844 
Q 1016 -109 783 600 
Q 550 1309 550 2009 
Q 550 2706 781 3412 
Q 1013 4119 1484 4856 
L 1984 4856 
z
" transform="scale(0.015625)"/>
       <path id="DejaVuSans-47" d="M 2906 2969 
L 2906 4863 
L 3481 4863 
L 3481 0 
L 2906 0 
L 2906 525 
Q 2725 213 2448 61 
Q 2172 -91 1784 -91 
Q 1150 -91 751 415 
Q 353 922 353 1747 
Q 353 2572 751 3078 
Q 1150 3584 1784 3584 
Q 2172 3584 2448 3432 
Q 2725 3281 2906 2969 
z
M 947 1747 
Q 947 1113 1208 752 
Q 1469 391 1925 391 
Q 2381 391 2643 752 
Q 2906 1113 2906 1747 
Q 2906 2381 2643 2742 
Q 2381 3103 1925 3103 
Q 1469 3103 1208 2742 
Q 947 2381 947 1747 
z
" transform="scale(0.015625)"/>
       <path id="DejaVuSans-25" d="M 1259 2228 
L 1259 519 
L 2272 519 
Q 2781 519 3026 730 
Q 3272 941 3272 1375 
Q 3272 1813 3026 2020 
Q 2781 2228 2272 2228 
L 1259 2228 
z
M 1259 4147 
L 1259 2741 
L 2194 2741 
Q 2656 2741 2882 2914 
Q 3109 3088 3109 3444 
Q 3109 3797 2882 3972 
Q 2656 4147 2194 4147 
L 1259 4147 
z
M 628 4666 
L 2241 4666 
Q 2963 4666 3353 4366 
Q 3744 4066 3744 3513 
Q 3744 3084 3544 2831 
Q 3344 2578 2956 2516 
Q 3422 2416 3680 2098 
Q 3938 1781 3938 1306 
Q 3938 681 3513 340 
Q 3088 0 2303 0 
L 628 0 
L 628 4666 
z
" transform="scale(0.015625)"/>
       <path id="DejaVuSans-c" d="M 513 4856 
L 1013 4856 
Q 1481 4119 1714 3412 
Q 1947 2706 1947 2009 
Q 1947 1309 1714 600 
Q 1481 -109 1013 -844 
L 513 -844 
Q 928 -128 1133 580 
Q 1338 1288 1338 2009 
Q 1338 2731 1133 3434 
Q 928 4138 513 4856 
z
" transform="scale(0.015625)"/>
      </defs>
      <use xlink:href="#DejaVuSans-56"/>
      <use xlink:href="#DejaVuSans-48" transform="translate(52.09375 0)"/>
      <use xlink:href="#DejaVuSans-53" transform="translate(113.625 0)"/>
      <use xlink:href="#DejaVuSans-44" transform="translate(177.109375 0)"/>
      <use xlink:href="#DejaVuSans-55" transform="translate(238.390625 0)"/>
      <use xlink:href="#DejaVuSans-44" transform="translate(279.5 0)"/>
      <use xlink:href="#DejaVuSans-57" transform="translate(340.78125 0)"/>
      <use xlink:href="#DejaVuSans-52" transform="translate(379.984375 0)"/>
      <use xlink:href="#DejaVuSans-55" transform="translate(441.171875 0)"/>
      <use xlink:href="#DejaVuSans-3" transform="translate(482.28125 0)"/>
      <use xlink:href="#DejaVuSans-36" transform="translate(514.0625 0)"/>
      <use xlink:href="#DejaVuSans-27" transform="translate(577.546875 0)"/>
      <use xlink:href="#DejaVuSans-35" transform="translate(654.546875 0)"/>
      <use xlink:href="#DejaVuSans-3" transform="translate(724.03125 0)"/>
      <use xlink:href="#DejaVuSans-b" transform="translate(755.8125 0)"/>
      <use xlink:href="#DejaVuSans-47" transform="translate(794.828125 0)"/>
      <use xlink:href="#DejaVuSans-25" transform="translate(858.3125 0)"/>
      <use xlink:href="#DejaVuSans-c" transform="translate(926.921875 0)"/>
     </g>
    </g>
   </g>
   <g id="matplotlib.axis_2">
    <g id="ytick_1">
     <g id="line2d_11">
      <path d="M 39.904146 253.998198 
L 294.333614 253.998198 
" clip-path="url(#paab04fbc4b)" style="fill: none; stroke: #dddddd; stroke-width: 0.7; stroke-linecap: square"/>
     </g>
     <g id="line2d_12">
      <defs>
       <path id="m3d630ac57b" d="M 0 0 
L -3.5 0 
" style="stroke: #000000; stroke-width: 0.8"/>
      </defs>
      <g>
       <use xlink:href="#m3d630ac57b" x="39.904146" y="253.998198" style="stroke: #000000; stroke-width: 0.8"/>
      </g>
     </g>
     <g id="text_7">
      <!-- 0.0 -->
      <g transform="translate(17.001021 257.797026) scale(0.1 -0.1)">
       <defs>
        <path id="DejaVuSans-11" d="M 684 794 
L 1344 794 
L 1344 0 
L 684 0 
L 684 794 
z
" transform="scale(0.015625)"/>
       </defs>
       <use xlink:href="#DejaVuSans-13"/>
       <use xlink:href="#DejaVuSans-11" transform="translate(63.625 0)"/>
       <use xlink:href="#DejaVuSans-13" transform="translate(95.40625 0)"/>
      </g>
     </g>
    </g>
    <g id="ytick_2">
     <g id="line2d_13">
      <path d="M 39.904146 212.543306 
L 294.333614 212.543306 
" clip-path="url(#paab04fbc4b)" style="fill: none; stroke: #dddddd; stroke-width: 0.7; stroke-linecap: square"/>
     </g>
     <g id="line2d_14">
      <g>
       <use xlink:href="#m3d630ac57b" x="39.904146" y="212.543306" style="stroke: #000000; stroke-width: 0.8"/>
      </g>
     </g>
     <g id="text_8">
      <!-- 0.2 -->
      <g transform="translate(17.001021 216.342134) scale(0.1 -0.1)">
       <use xlink:href="#DejaVuSans-13"/>
       <use xlink:href="#DejaVuSans-11" transform="translate(63.625 0)"/>
       <use xlink:href="#DejaVuSans-15" transform="translate(95.40625 0)"/>
      </g>
     </g>
    </g>
    <g id="ytick_3">
     <g id="line2d_15">
      <path d="M 39.904146 171.088414 
L 294.333614 171.088414 
" clip-path="url(#paab04fbc4b)" style="fill: none; stroke: #dddddd; stroke-width: 0.7; stroke-linecap: square"/>
     </g>
     <g id="line2d_16">
      <g>
       <use xlink:href="#m3d630ac57b" x="39.904146" y="171.088414" style="stroke: #000000; stroke-width: 0.8"/>
      </g>
     </g>
     <g id="text_9">
      <!-- 0.4 -->
      <g transform="translate(17.001021 174.887243) scale(0.1 -0.1)">
       <defs>
        <path id="DejaVuSans-17" d="M 2419 4116 
L 825 1625 
L 2419 1625 
L 2419 4116 
z
M 2253 4666 
L 3047 4666 
L 3047 1625 
L 3713 1625 
L 3713 1100 
L 3047 1100 
L 3047 0 
L 2419 0 
L 2419 1100 
L 313 1100 
L 313 1709 
L 2253 4666 
z
" transform="scale(0.015625)"/>
       </defs>
       <use xlink:href="#DejaVuSans-13"/>
       <use xlink:href="#DejaVuSans-11" transform="translate(63.625 0)"/>
       <use xlink:href="#DejaVuSans-17" transform="translate(95.40625 0)"/>
      </g>
     </g>
    </g>
    <g id="ytick_4">
     <g id="line2d_17">
      <path d="M 39.904146 129.633523 
L 294.333614 129.633523 
" clip-path="url(#paab04fbc4b)" style="fill: none; stroke: #dddddd; stroke-width: 0.7; stroke-linecap: square"/>
     </g>
     <g id="line2d_18">
      <g>
       <use xlink:href="#m3d630ac57b" x="39.904146" y="129.633523" style="stroke: #000000; stroke-width: 0.8"/>
      </g>
     </g>
     <g id="text_10">
      <!-- 0.6 -->
      <g transform="translate(17.001021 133.432351) scale(0.1 -0.1)">
       <defs>
        <path id="DejaVuSans-19" d="M 2113 2584 
Q 1688 2584 1439 2293 
Q 1191 2003 1191 1497 
Q 1191 994 1439 701 
Q 1688 409 2113 409 
Q 2538 409 2786 701 
Q 3034 994 3034 1497 
Q 3034 2003 2786 2293 
Q 2538 2584 2113 2584 
z
M 3366 4563 
L 3366 3988 
Q 3128 4100 2886 4159 
Q 2644 4219 2406 4219 
Q 1781 4219 1451 3797 
Q 1122 3375 1075 2522 
Q 1259 2794 1537 2939 
Q 1816 3084 2150 3084 
Q 2853 3084 3261 2657 
Q 3669 2231 3669 1497 
Q 3669 778 3244 343 
Q 2819 -91 2113 -91 
Q 1303 -91 875 529 
Q 447 1150 447 2328 
Q 447 3434 972 4092 
Q 1497 4750 2381 4750 
Q 2619 4750 2861 4703 
Q 3103 4656 3366 4563 
z
" transform="scale(0.015625)"/>
       </defs>
       <use xlink:href="#DejaVuSans-13"/>
       <use xlink:href="#DejaVuSans-11" transform="translate(63.625 0)"/>
       <use xlink:href="#DejaVuSans-19" transform="translate(95.40625 0)"/>
      </g>
     </g>
    </g>
    <g id="ytick_5">
     <g id="line2d_19">
      <path d="M 39.904146 88.178631 
L 294.333614 88.178631 
" clip-path="url(#paab04fbc4b)" style="fill: none; stroke: #dddddd; stroke-width: 0.7; stroke-linecap: square"/>
     </g>
     <g id="line2d_20">
      <g>
       <use xlink:href="#m3d630ac57b" x="39.904146" y="88.178631" style="stroke: #000000; stroke-width: 0.8"/>
      </g>
     </g>
     <g id="text_11">
      <!-- 0.8 -->
      <g transform="translate(17.001021 91.977459) scale(0.1 -0.1)">
       <defs>
        <path id="DejaVuSans-1b" d="M 2034 2216 
Q 1584 2216 1326 1975 
Q 1069 1734 1069 1313 
Q 1069 891 1326 650 
Q 1584 409 2034 409 
Q 2484 409 2743 651 
Q 3003 894 3003 1313 
Q 3003 1734 2745 1975 
Q 2488 2216 2034 2216 
z
M 1403 2484 
Q 997 2584 770 2862 
Q 544 3141 544 3541 
Q 544 4100 942 4425 
Q 1341 4750 2034 4750 
Q 2731 4750 3128 4425 
Q 3525 4100 3525 3541 
Q 3525 3141 3298 2862 
Q 3072 2584 2669 2484 
Q 3125 2378 3379 2068 
Q 3634 1759 3634 1313 
Q 3634 634 3220 271 
Q 2806 -91 2034 -91 
Q 1263 -91 848 271 
Q 434 634 434 1313 
Q 434 1759 690 2068 
Q 947 2378 1403 2484 
z
M 1172 3481 
Q 1172 3119 1398 2916 
Q 1625 2713 2034 2713 
Q 2441 2713 2670 2916 
Q 2900 3119 2900 3481 
Q 2900 3844 2670 4047 
Q 2441 4250 2034 4250 
Q 1625 4250 1398 4047 
Q 1172 3844 1172 3481 
z
" transform="scale(0.015625)"/>
       </defs>
       <use xlink:href="#DejaVuSans-13"/>
       <use xlink:href="#DejaVuSans-11" transform="translate(63.625 0)"/>
       <use xlink:href="#DejaVuSans-1b" transform="translate(95.40625 0)"/>
      </g>
     </g>
    </g>
    <g id="ytick_6">
     <g id="line2d_21">
      <path d="M 39.904146 46.72374 
L 294.333614 46.72374 
" clip-path="url(#paab04fbc4b)" style="fill: none; stroke: #dddddd; stroke-width: 0.7; stroke-linecap: square"/>
     </g>
     <g id="line2d_22">
      <g>
       <use xlink:href="#m3d630ac57b" x="39.904146" y="46.72374" style="stroke: #000000; stroke-width: 0.8"/>
      </g>
     </g>
     <g id="text_12">
      <!-- 1.0 -->
      <g transform="translate(17.001021 50.522568) scale(0.1 -0.1)">
       <use xlink:href="#DejaVuSans-14"/>
       <use xlink:href="#DejaVuSans-11" transform="translate(63.625 0)"/>
       <use xlink:href="#DejaVuSans-13" transform="translate(95.40625 0)"/>
      </g>
     </g>
    </g>
    <g id="text_13">
     <!-- TIR retention fraction -->
     <g transform="translate(10.598677 198.371295) rotate(-90) scale(0.1 -0.1)">
      <defs>
       <path id="DejaVuSans-37" d="M -19 4666 
L 3928 4666 
L 3928 4134 
L 2272 4134 
L 2272 0 
L 1638 0 
L 1638 4134 
L -19 4134 
L -19 4666 
z
" transform="scale(0.015625)"/>
       <path id="DejaVuSans-2c" d="M 628 4666 
L 1259 4666 
L 1259 0 
L 628 0 
L 628 4666 
z
" transform="scale(0.015625)"/>
       <path id="DejaVuSans-46" d="M 3122 3366 
L 3122 2828 
Q 2878 2963 2633 3030 
Q 2388 3097 2138 3097 
Q 1578 3097 1268 2742 
Q 959 2388 959 1747 
Q 959 1106 1268 751 
Q 1578 397 2138 397 
Q 2388 397 2633 464 
Q 2878 531 3122 666 
L 3122 134 
Q 2881 22 2623 -34 
Q 2366 -91 2075 -91 
Q 1284 -91 818 406 
Q 353 903 353 1747 
Q 353 2603 823 3093 
Q 1294 3584 2113 3584 
Q 2378 3584 2631 3529 
Q 2884 3475 3122 3366 
z
" transform="scale(0.015625)"/>
      </defs>
      <use xlink:href="#DejaVuSans-37"/>
      <use xlink:href="#DejaVuSans-2c" transform="translate(61.078125 0)"/>
      <use xlink:href="#DejaVuSans-35" transform="translate(90.578125 0)"/>
      <use xlink:href="#DejaVuSans-3" transform="translate(160.0625 0)"/>
      <use xlink:href="#DejaVuSans-55" transform="translate(191.84375 0)"/>
      <use xlink:href="#DejaVuSans-48" transform="translate(230.75 0)"/>
      <use xlink:href="#DejaVuSans-57" transform="translate(292.28125 0)"/>
      <use xlink:href="#DejaVuSans-48" transform="translate(331.484375 0)"/>
      <use xlink:href="#DejaVuSans-51" transform="translate(393.015625 0)"/>
      <use xlink:href="#DejaVuSans-57" transform="translate(456.390625 0)"/>
      <use xlink:href="#DejaVuSans-4c" transform="translate(495.59375 0)"/>
      <use xlink:href="#DejaVuSans-52" transform="translate(523.375 0)"/>
      <use xlink:href="#DejaVuSans-51" transform="translate(584.5625 0)"/>
      <use xlink:href="#DejaVuSans-3" transform="translate(647.9375 0)"/>
      <use xlink:href="#DejaVuSans-49" transform="translate(679.71875 0)"/>
      <use xlink:href="#DejaVuSans-55" transform="translate(714.921875 0)"/>
      <use xlink:href="#DejaVuSans-44" transform="translate(756.03125 0)"/>
      <use xlink:href="#DejaVuSans-46" transform="translate(817.3125 0)"/>
      <use xlink:href="#DejaVuSans-57" transform="translate(872.296875 0)"/>
      <use xlink:href="#DejaVuSans-4c" transform="translate(911.5 0)"/>
      <use xlink:href="#DejaVuSans-52" transform="translate(939.28125 0)"/>
      <use xlink:href="#DejaVuSans-51" transform="translate(1000.46875 0)"/>
     </g>
    </g>
   </g>
   <g id="line2d_23">
    <path d="M 51.469122 253.998198 
L 109.294001 253.998198 
L 167.11888 228.782831 
L 224.943759 118.887069 
L 282.768638 46.72374 
" clip-path="url(#paab04fbc4b)" style="fill: none; stroke: #1f77b4; stroke-width: 1.7; stroke-linecap: square"/>
    <defs>
     <path id="m239cca7fcf" d="M 0 1.7 
C 0.450845 1.7 0.883286 1.520877 1.202082 1.202082 
C 1.520877 0.883286 1.7 0.450845 1.7 0 
C 1.7 -0.450845 1.520877 -0.883286 1.202082 -1.202082 
C 0.883286 -1.520877 0.450845 -1.7 0 -1.7 
C -0.450845 -1.7 -0.883286 -1.520877 -1.202082 -1.202082 
C -1.520877 -0.883286 -1.7 -0.450845 -1.7 0 
C -1.7 0.450845 -1.520877 0.883286 -1.202082 1.202082 
C -0.883286 1.520877 -0.450845 1.7 0 1.7 
z
" style="stroke: #1f77b4"/>
    </defs>
    <g clip-path="url(#paab04fbc4b)">
     <use xlink:href="#m239cca7fcf" x="51.469122" y="253.998198" style="fill: #1f77b4; stroke: #1f77b4"/>
     <use xlink:href="#m239cca7fcf" x="109.294001" y="253.998198" style="fill: #1f77b4; stroke: #1f77b4"/>
     <use xlink:href="#m239cca7fcf" x="167.11888" y="228.782831" style="fill: #1f77b4; stroke: #1f77b4"/>
     <use xlink:href="#m239cca7fcf" x="224.943759" y="118.887069" style="fill: #1f77b4; stroke: #1f77b4"/>
     <use xlink:href="#m239cca7fcf" x="282.768638" y="46.72374" style="fill: #1f77b4; stroke: #1f77b4"/>
    </g>
   </g>
   <g id="line2d_24">
    <path d="M 51.469122 253.998198 
L 109.294001 202.539434 
L 167.11888 153.018932 
L 224.943759 88.371214 
L 282.768638 46.72374 
" clip-path="url(#paab04fbc4b)" style="fill: none; stroke: #ff7f0e; stroke-width: 1.7; stroke-linecap: square"/>
    <defs>
     <path id="md64158fce7" d="M 0 1.7 
C 0.450845 1.7 0.883286 1.520877 1.202082 1.202082 
C 1.520877 0.883286 1.7 0.450845 1.7 0 
C 1.7 -0.450845 1.520877 -0.883286 1.202082 -1.202082 
C 0.883286 -1.520877 0.450845 -1.7 0 -1.7 
C -0.450845 -1.7 -0.883286 -1.520877 -1.202082 -1.202082 
C -1.520877 -0.883286 -1.7 -0.450845 -1.7 0 
C -1.7 0.450845 -1.520877 0.883286 -1.202082 1.202082 
C -0.883286 1.520877 -0.450845 1.7 0 1.7 
z
" style="stroke: #ff7f0e"/>
    </defs>
    <g clip-path="url(#paab04fbc4b)">
     <use xlink:href="#md64158fce7" x="51.469122" y="253.998198" style="fill: #ff7f0e; stroke: #ff7f0e"/>
     <use xlink:href="#md64158fce7" x="109.294001" y="202.539434" style="fill: #ff7f0e; stroke: #ff7f0e"/>
     <use xlink:href="#md64158fce7" x="167.11888" y="153.018932" style="fill: #ff7f0e; stroke: #ff7f0e"/>
     <use xlink:href="#md64158fce7" x="224.943759" y="88.371214" style="fill: #ff7f0e; stroke: #ff7f0e"/>
     <use xlink:href="#md64158fce7" x="282.768638" y="46.72374" style="fill: #ff7f0e; stroke: #ff7f0e"/>
    </g>
   </g>
   <g id="line2d_25">
    <path d="M 51.469122 253.988226 
L 109.294001 197.351792 
L 167.11888 148.417688 
L 224.943759 85.917612 
L 282.768638 46.72374 
" clip-path="url(#paab04fbc4b)" style="fill: none; stroke: #2ca02c; stroke-width: 1.7; stroke-linecap: square"/>
    <defs>
     <path id="m6cf1389729" d="M 0 1.7 
C 0.450845 1.7 0.883286 1.520877 1.202082 1.202082 
C 1.520877 0.883286 1.7 0.450845 1.7 0 
C 1.7 -0.450845 1.520877 -0.883286 1.202082 -1.202082 
C 0.883286 -1.520877 0.450845 -1.7 0 -1.7 
C -0.450845 -1.7 -0.883286 -1.520877 -1.202082 -1.202082 
C -1.520877 -0.883286 -1.7 -0.450845 -1.7 0 
C -1.7 0.450845 -1.520877 0.883286 -1.202082 1.202082 
C -0.883286 1.520877 -0.450845 1.7 0 1.7 
z
" style="stroke: #2ca02c"/>
    </defs>
    <g clip-path="url(#paab04fbc4b)">
     <use xlink:href="#m6cf1389729" x="51.469122" y="253.988226" style="fill: #2ca02c; stroke: #2ca02c"/>
     <use xlink:href="#m6cf1389729" x="109.294001" y="197.351792" style="fill: #2ca02c; stroke: #2ca02c"/>
     <use xlink:href="#m6cf1389729" x="167.11888" y="148.417688" style="fill: #2ca02c; stroke: #2ca02c"/>
     <use xlink:href="#m6cf1389729" x="224.943759" y="85.917612" style="fill: #2ca02c; stroke: #2ca02c"/>
     <use xlink:href="#m6cf1389729" x="282.768638" y="46.72374" style="fill: #2ca02c; stroke: #2ca02c"/>
    </g>
   </g>
   <g id="line2d_26">
    <path d="M 51.469122 253.998198 
L 109.294001 196.994009 
L 167.11888 147.371006 
L 224.943759 85.029032 
L 282.768638 46.72374 
" clip-path="url(#paab04fbc4b)" style="fill: none; stroke: #d62728; stroke-width: 1.7; stroke-linecap: square"/>
    <defs>
     <path id="meb2e61ebb5" d="M 0 1.7 
C 0.450845 1.7 0.883286 1.520877 1.202082 1.202082 
C 1.520877 0.883286 1.7 0.450845 1.7 0 
C 1.7 -0.450845 1.520877 -0.883286 1.202082 -1.202082 
C 0.883286 -1.520877 0.450845 -1.7 0 -1.7 
C -0.450845 -1.7 -0.883286 -1.520877 -1.202082 -1.202082 
C -1.520877 -0.883286 -1.7 -0.450845 -1.7 0 
C -1.7 0.450845 -1.520877 0.883286 -1.202082 1.202082 
C -0.883286 1.520877 -0.450845 1.7 0 1.7 
z
" style="stroke: #d62728"/>
    </defs>
    <g clip-path="url(#paab04fbc4b)">
     <use xlink:href="#meb2e61ebb5" x="51.469122" y="253.998198" style="fill: #d62728; stroke: #d62728"/>
     <use xlink:href="#meb2e61ebb5" x="109.294001" y="196.994009" style="fill: #d62728; stroke: #d62728"/>
     <use xlink:href="#meb2e61ebb5" x="167.11888" y="147.371006" style="fill: #d62728; stroke: #d62728"/>
     <use xlink:href="#meb2e61ebb5" x="224.943759" y="85.029032" style="fill: #d62728; stroke: #d62728"/>
     <use xlink:href="#meb2e61ebb5" x="282.768638" y="46.72374" style="fill: #d62728; stroke: #d62728"/>
    </g>
   </g>
   <g id="line2d_27">
    <path d="M 51.469122 253.998198 
L 109.294001 197.682751 
L 167.11888 147.586691 
L 224.943759 84.961022 
L 282.768638 46.72374 
" clip-path="url(#paab04fbc4b)" style="fill: none; stroke: #9467bd; stroke-width: 1.7; stroke-linecap: square"/>
    <defs>
     <path id="me82b314bea" d="M 0 1.7 
C 0.450845 1.7 0.883286 1.520877 1.202082 1.202082 
C 1.520877 0.883286 1.7 0.450845 1.7 0 
C 1.7 -0.450845 1.520877 -0.883286 1.202082 -1.202082 
C 0.883286 -1.520877 0.450845 -1.7 0 -1.7 
C -0.450845 -1.7 -0.883286 -1.520877 -1.202082 -1.202082 
C -1.520877 -0.883286 -1.7 -0.450845 -1.7 0 
C -1.7 0.450845 -1.520877 0.883286 -1.202082 1.202082 
C -0.883286 1.520877 -0.450845 1.7 0 1.7 
z
" style="stroke: #9467bd"/>
    </defs>
    <g clip-path="url(#paab04fbc4b)">
     <use xlink:href="#me82b314bea" x="51.469122" y="253.998198" style="fill: #9467bd; stroke: #9467bd"/>
     <use xlink:href="#me82b314bea" x="109.294001" y="197.682751" style="fill: #9467bd; stroke: #9467bd"/>
     <use xlink:href="#me82b314bea" x="167.11888" y="147.586691" style="fill: #9467bd; stroke: #9467bd"/>
     <use xlink:href="#me82b314bea" x="224.943759" y="84.961022" style="fill: #9467bd; stroke: #9467bd"/>
     <use xlink:href="#me82b314bea" x="282.768638" y="46.72374" style="fill: #9467bd; stroke: #9467bd"/>
    </g>
   </g>
   <g id="line2d_28">
    <path d="M 39.904146 67.451186 
L 294.333614 67.451186 
" clip-path="url(#paab04fbc4b)" style="fill: none; stroke-dasharray: 3.7,1.6; stroke-dashoffset: 0; stroke: #333333"/>
   </g>
   <g id="patch_3">
    <path d="M 39.904146 253.998198 
L 39.904146 36.360017 
" style="fill: none; stroke: #000000; stroke-width: 0.8; stroke-linejoin: miter; stroke-linecap: square"/>
   </g>
   <g id="patch_4">
    <path d="M 294.333614 253.998198 
L 294.333614 36.360017 
" style="fill: none; stroke: #000000; stroke-width: 0.8; stroke-linejoin: miter; stroke-linecap: square"/>
   </g>
   <g id="patch_5">
    <path d="M 39.904146 253.998198 
L 294.333614 253.998198 
" style="fill: none; stroke: #000000; stroke-width: 0.8; stroke-linejoin: miter; stroke-linecap: square"/>
   </g>
   <g id="patch_6">
    <path d="M 39.904146 36.360017 
L 294.333614 36.360017 
" style="fill: none; stroke: #000000; stroke-width: 0.8; stroke-linejoin: miter; stroke-linecap: square"/>
   </g>
   <g id="text_14">
    <!-- 30 deg/s -->
    <g transform="translate(143.286693 30.360017) scale(0.11 -0.11)">
     <defs>
      <path id="DejaVuSans-16" d="M 2597 2516 
Q 3050 2419 3304 2112 
Q 3559 1806 3559 1356 
Q 3559 666 3084 287 
Q 2609 -91 1734 -91 
Q 1441 -91 1130 -33 
Q 819 25 488 141 
L 488 750 
Q 750 597 1062 519 
Q 1375 441 1716 441 
Q 2309 441 2620 675 
Q 2931 909 2931 1356 
Q 2931 1769 2642 2001 
Q 2353 2234 1838 2234 
L 1294 2234 
L 1294 2753 
L 1863 2753 
Q 2328 2753 2575 2939 
Q 2822 3125 2822 3475 
Q 2822 3834 2567 4026 
Q 2313 4219 1838 4219 
Q 1578 4219 1281 4162 
Q 984 4106 628 3988 
L 628 4550 
Q 988 4650 1302 4700 
Q 1616 4750 1894 4750 
Q 2613 4750 3031 4423 
Q 3450 4097 3450 3541 
Q 3450 3153 3228 2886 
Q 3006 2619 2597 2516 
z
" transform="scale(0.015625)"/>
      <path id="DejaVuSans-4a" d="M 2906 1791 
Q 2906 2416 2648 2759 
Q 2391 3103 1925 3103 
Q 1463 3103 1205 2759 
Q 947 2416 947 1791 
Q 947 1169 1205 825 
Q 1463 481 1925 481 
Q 2391 481 2648 825 
Q 2906 1169 2906 1791 
z
M 3481 434 
Q 3481 -459 3084 -895 
Q 2688 -1331 1869 -1331 
Q 1566 -1331 1297 -1286 
Q 1028 -1241 775 -1147 
L 775 -588 
Q 1028 -725 1275 -790 
Q 1522 -856 1778 -856 
Q 2344 -856 2625 -561 
Q 2906 -266 2906 331 
L 2906 616 
Q 2728 306 2450 153 
Q 2172 0 1784 0 
Q 1141 0 747 490 
Q 353 981 353 1791 
Q 353 2603 747 3093 
Q 1141 3584 1784 3584 
Q 2172 3584 2450 3431 
Q 2728 3278 2906 2969 
L 2906 3500 
L 3481 3500 
L 3481 434 
z
" transform="scale(0.015625)"/>
      <path id="DejaVuSans-12" d="M 1625 4666 
L 2156 4666 
L 531 -594 
L 0 -594 
L 1625 4666 
z
" transform="scale(0.015625)"/>
     </defs>
     <use xlink:href="#DejaVuSans-16"/>
     <use xlink:href="#DejaVuSans-13" transform="translate(63.625 0)"/>
     <use xlink:href="#DejaVuSans-3" transform="translate(127.25 0)"/>
     <use xlink:href="#DejaVuSans-47" transform="translate(159.03125 0)"/>
     <use xlink:href="#DejaVuSans-48" transform="translate(222.515625 0)"/>
     <use xlink:href="#DejaVuSans-4a" transform="translate(284.046875 0)"/>
     <use xlink:href="#DejaVuSans-12" transform="translate(347.53125 0)"/>
     <use xlink:href="#DejaVuSans-56" transform="translate(381.21875 0)"/>
    </g>
   </g>
  </g>
  <g id="axes_2">
   <g id="patch_7">
    <path d="M 323.237219 253.998198 
L 577.666687 253.998198 
L 577.666687 36.360017 
L 323.237219 36.360017 
z
" style="fill: #ffffff"/>
   </g>
   <g id="matplotlib.axis_3">
    <g id="xtick_6">
     <g id="line2d_29">
      <path d="M 334.802195 253.998198 
L 334.802195 36.360017 
" clip-path="url(#p695d9ef8e8)" style="fill: none; stroke: #dddddd; stroke-width: 0.7; stroke-linecap: square"/>
     </g>
     <g id="line2d_30">
      <g>
       <use xlink:href="#m0f4c43bd05" x="334.802195" y="253.998198" style="stroke: #000000; stroke-width: 0.8"/>
      </g>
     </g>
     <g id="text_15">
      <!-- 0 -->
      <g transform="translate(331.620945 268.595854) scale(0.1 -0.1)">
       <use xlink:href="#DejaVuSans-13"/>
      </g>
     </g>
    </g>
    <g id="xtick_7">
     <g id="line2d_31">
      <path d="M 392.627074 253.998198 
L 392.627074 36.360017 
" clip-path="url(#p695d9ef8e8)" style="fill: none; stroke: #dddddd; stroke-width: 0.7; stroke-linecap: square"/>
     </g>
     <g id="line2d_32">
      <g>
       <use xlink:href="#m0f4c43bd05" x="392.627074" y="253.998198" style="stroke: #000000; stroke-width: 0.8"/>
      </g>
     </g>
     <g id="text_16">
      <!-- 5 -->
      <g transform="translate(389.445824 268.595854) scale(0.1 -0.1)">
       <use xlink:href="#DejaVuSans-18"/>
      </g>
     </g>
    </g>
    <g id="xtick_8">
     <g id="line2d_33">
      <path d="M 450.451953 253.998198 
L 450.451953 36.360017 
" clip-path="url(#p695d9ef8e8)" style="fill: none; stroke: #dddddd; stroke-width: 0.7; stroke-linecap: square"/>
     </g>
     <g id="line2d_34">
      <g>
       <use xlink:href="#m0f4c43bd05" x="450.451953" y="253.998198" style="stroke: #000000; stroke-width: 0.8"/>
      </g>
     </g>
     <g id="text_17">
      <!-- 10 -->
      <g transform="translate(444.089453 268.595854) scale(0.1 -0.1)">
       <use xlink:href="#DejaVuSans-14"/>
       <use xlink:href="#DejaVuSans-13" transform="translate(63.625 0)"/>
      </g>
     </g>
    </g>
    <g id="xtick_9">
     <g id="line2d_35">
      <path d="M 508.276832 253.998198 
L 508.276832 36.360017 
" clip-path="url(#p695d9ef8e8)" style="fill: none; stroke: #dddddd; stroke-width: 0.7; stroke-linecap: square"/>
     </g>
     <g id="line2d_36">
      <g>
       <use xlink:href="#m0f4c43bd05" x="508.276832" y="253.998198" style="stroke: #000000; stroke-width: 0.8"/>
      </g>
     </g>
     <g id="text_18">
      <!-- 20 -->
      <g transform="translate(501.914332 268.595854) scale(0.1 -0.1)">
       <use xlink:href="#DejaVuSans-15"/>
       <use xlink:href="#DejaVuSans-13" transform="translate(63.625 0)"/>
      </g>
     </g>
    </g>
    <g id="xtick_10">
     <g id="line2d_37">
      <path d="M 566.101711 253.998198 
L 566.101711 36.360017 
" clip-path="url(#p695d9ef8e8)" style="fill: none; stroke: #dddddd; stroke-width: 0.7; stroke-linecap: square"/>
     </g>
     <g id="line2d_38">
      <g>
       <use xlink:href="#m0f4c43bd05" x="566.101711" y="253.998198" style="stroke: #000000; stroke-width: 0.8"/>
      </g>
     </g>
     <g id="text_19">
      <!-- inf -->
      <g transform="translate(559.783743 268.596635) scale(0.1 -0.1)">
       <use xlink:href="#DejaVuSans-4c"/>
       <use xlink:href="#DejaVuSans-51" transform="translate(27.78125 0)"/>
       <use xlink:href="#DejaVuSans-49" transform="translate(91.15625 0)"/>
      </g>
     </g>
    </g>
    <g id="text_20">
     <!-- separator SDR (dB) -->
     <g transform="translate(402.155078 282.597416) scale(0.1 -0.1)">
      <use xlink:href="#DejaVuSans-56"/>
      <use xlink:href="#DejaVuSans-48" transform="translate(52.09375 0)"/>
      <use xlink:href="#DejaVuSans-53" transform="translate(113.625 0)"/>
      <use xlink:href="#DejaVuSans-44" transform="translate(177.109375 0)"/>
      <use xlink:href="#DejaVuSans-55" transform="translate(238.390625 0)"/>
      <use xlink:href="#DejaVuSans-44" transform="translate(279.5 0)"/>
      <use xlink:href="#DejaVuSans-57" transform="translate(340.78125 0)"/>
      <use xlink:href="#DejaVuSans-52" transform="translate(379.984375 0)"/>
      <use xlink:href="#DejaVuSans-55" transform="translate(441.171875 0)"/>
      <use xlink:href="#DejaVuSans-3" transform="translate(482.28125 0)"/>
      <use xlink:href="#DejaVuSans-36" transform="translate(514.0625 0)"/>
      <use xlink:href="#DejaVuSans-27" transform="translate(577.546875 0)"/>
      <use xlink:href="#DejaVuSans-35" transform="translate(654.546875 0)"/>
      <use xlink:href="#DejaVuSans-3" transform="translate(724.03125 0)"/>
      <use xlink:href="#DejaVuSans-b" transform="translate(755.8125 0)"/>
      <use xlink:href="#DejaVuSans-47" transform="translate(794.828125 0)"/>
      <use xlink:href="#DejaVuSans-25" transform="translate(858.3125 0)"/>
      <use xlink:href="#DejaVuSans-c" transform="translate(926.921875 0)"/>
     </g>
    </g>
   </g>
   <g id="matplotlib.axis_4">
    <g id="ytick_7">
     <g id="line2d_39">
      <path d="M 323.237219 253.998198 
L 577.666687 253.998198 
" clip-path="url(#p695d9ef8e8)" style="fill: none; stroke: #dddddd; stroke-width: 0.7; stroke-linecap: square"/>
     </g>
     <g id="line2d_40">
      <g>
       <use xlink:href="#m3d630ac57b" x="323.237219" y="253.998198" style="stroke: #000000; stroke-width: 0.8"/>
      </g>
     </g>
     <g id="text_21">
      <!-- 0.0 -->
      <g transform="translate(300.334094 257.797026) scale(0.1 -0.1)">
       <use xlink:href="#DejaVuSans-13"/>
       <use xlink:href="#DejaVuSans-11" transform="translate(63.625 0)"/>
       <use xlink:href="#DejaVuSans-13" transform="translate(95.40625 0)"/>
      </g>
     </g>
    </g>
    <g id="ytick_8">
     <g id="line2d_41">
      <path d="M 323.237219 212.543306 
L 577.666687 212.543306 
" clip-path="url(#p695d9ef8e8)" style="fill: none; stroke: #dddddd; stroke-width: 0.7; stroke-linecap: square"/>
     </g>
     <g id="line2d_42">
      <g>
       <use xlink:href="#m3d630ac57b" x="323.237219" y="212.543306" style="stroke: #000000; stroke-width: 0.8"/>
      </g>
     </g>
     <g id="text_22">
      <!-- 0.2 -->
      <g transform="translate(300.334094 216.342134) scale(0.1 -0.1)">
       <use xlink:href="#DejaVuSans-13"/>
       <use xlink:href="#DejaVuSans-11" transform="translate(63.625 0)"/>
       <use xlink:href="#DejaVuSans-15" transform="translate(95.40625 0)"/>
      </g>
     </g>
    </g>
    <g id="ytick_9">
     <g id="line2d_43">
      <path d="M 323.237219 171.088414 
L 577.666687 171.088414 
" clip-path="url(#p695d9ef8e8)" style="fill: none; stroke: #dddddd; stroke-width: 0.7; stroke-linecap: square"/>
     </g>
     <g id="line2d_44">
      <g>
       <use xlink:href="#m3d630ac57b" x="323.237219" y="171.088414" style="stroke: #000000; stroke-width: 0.8"/>
      </g>
     </g>
     <g id="text_23">
      <!-- 0.4 -->
      <g transform="translate(300.334094 174.887243) scale(0.1 -0.1)">
       <use xlink:href="#DejaVuSans-13"/>
       <use xlink:href="#DejaVuSans-11" transform="translate(63.625 0)"/>
       <use xlink:href="#DejaVuSans-17" transform="translate(95.40625 0)"/>
      </g>
     </g>
    </g>
    <g id="ytick_10">
     <g id="line2d_45">
      <path d="M 323.237219 129.633523 
L 577.666687 129.633523 
" clip-path="url(#p695d9ef8e8)" style="fill: none; stroke: #dddddd; stroke-width: 0.7; stroke-linecap: square"/>
     </g>
     <g id="line2d_46">
      <g>
       <use xlink:href="#m3d630ac57b" x="323.237219" y="129.633523" style="stroke: #000000; stroke-width: 0.8"/>
      </g>
     </g>
     <g id="text_24">
      <!-- 0.6 -->
      <g transform="translate(300.334094 133.432351) scale(0.1 -0.1)">
       <use xlink:href="#DejaVuSans-13"/>
       <use xlink:href="#DejaVuSans-11" transform="translate(63.625 0)"/>
       <use xlink:href="#DejaVuSans-19" transform="translate(95.40625 0)"/>
      </g>
     </g>
    </g>
    <g id="ytick_11">
     <g id="line2d_47">
      <path d="M 323.237219 88.178631 
L 577.666687 88.178631 
" clip-path="url(#p695d9ef8e8)" style="fill: none; stroke: #dddddd; stroke-width: 0.7; stroke-linecap: square"/>
     </g>
     <g id="line2d_48">
      <g>
       <use xlink:href="#m3d630ac57b" x="323.237219" y="88.178631" style="stroke: #000000; stroke-width: 0.8"/>
      </g>
     </g>
     <g id="text_25">
      <!-- 0.8 -->
      <g transform="translate(300.334094 91.977459) scale(0.1 -0.1)">
       <use xlink:href="#DejaVuSans-13"/>
       <use xlink:href="#DejaVuSans-11" transform="translate(63.625 0)"/>
       <use xlink:href="#DejaVuSans-1b" transform="translate(95.40625 0)"/>
      </g>
     </g>
    </g>
    <g id="ytick_12">
     <g id="line2d_49">
      <path d="M 323.237219 46.72374 
L 577.666687 46.72374 
" clip-path="url(#p695d9ef8e8)" style="fill: none; stroke: #dddddd; stroke-width: 0.7; stroke-linecap: square"/>
     </g>
     <g id="line2d_50">
      <g>
       <use xlink:href="#m3d630ac57b" x="323.237219" y="46.72374" style="stroke: #000000; stroke-width: 0.8"/>
      </g>
     </g>
     <g id="text_26">
      <!-- 1.0 -->
      <g transform="translate(300.334094 50.522568) scale(0.1 -0.1)">
       <use xlink:href="#DejaVuSans-14"/>
       <use xlink:href="#DejaVuSans-11" transform="translate(63.625 0)"/>
       <use xlink:href="#DejaVuSans-13" transform="translate(95.40625 0)"/>
      </g>
     </g>
    </g>
   </g>
   <g id="line2d_51">
    <path d="M 334.802195 253.998198 
L 392.627074 208.316874 
L 450.451953 158.008856 
L 508.276832 91.038406 
L 566.101711 46.72374 
" clip-path="url(#p695d9ef8e8)" style="fill: none; stroke: #1f77b4; stroke-width: 1.7; stroke-linecap: square"/>
    <g clip-path="url(#p695d9ef8e8)">
     <use xlink:href="#m239cca7fcf" x="334.802195" y="253.998198" style="fill: #1f77b4; stroke: #1f77b4"/>
     <use xlink:href="#m239cca7fcf" x="392.627074" y="208.316874" style="fill: #1f77b4; stroke: #1f77b4"/>
     <use xlink:href="#m239cca7fcf" x="450.451953" y="158.008856" style="fill: #1f77b4; stroke: #1f77b4"/>
     <use xlink:href="#m239cca7fcf" x="508.276832" y="91.038406" style="fill: #1f77b4; stroke: #1f77b4"/>
     <use xlink:href="#m239cca7fcf" x="566.101711" y="46.72374" style="fill: #1f77b4; stroke: #1f77b4"/>
    </g>
   </g>
   <g id="line2d_52">
    <path d="M 334.802195 253.998198 
L 392.627074 201.527462 
L 450.451953 153.349401 
L 508.276832 89.239643 
L 566.101711 46.72374 
" clip-path="url(#p695d9ef8e8)" style="fill: none; stroke: #ff7f0e; stroke-width: 1.7; stroke-linecap: square"/>
    <g clip-path="url(#p695d9ef8e8)">
     <use xlink:href="#md64158fce7" x="334.802195" y="253.998198" style="fill: #ff7f0e; stroke: #ff7f0e"/>
     <use xlink:href="#md64158fce7" x="392.627074" y="201.527462" style="fill: #ff7f0e; stroke: #ff7f0e"/>
     <use xlink:href="#md64158fce7" x="450.451953" y="153.349401" style="fill: #ff7f0e; stroke: #ff7f0e"/>
     <use xlink:href="#md64158fce7" x="508.276832" y="89.239643" style="fill: #ff7f0e; stroke: #ff7f0e"/>
     <use xlink:href="#md64158fce7" x="566.101711" y="46.72374" style="fill: #ff7f0e; stroke: #ff7f0e"/>
    </g>
   </g>
   <g id="line2d_53">
    <path d="M 334.802195 253.998198 
L 392.627074 198.855583 
L 450.451953 150.423376 
L 508.276832 87.338862 
L 566.101711 46.72374 
" clip-path="url(#p695d9ef8e8)" style="fill: none; stroke: #2ca02c; stroke-width: 1.7; stroke-linecap: square"/>
    <g clip-path="url(#p695d9ef8e8)">
     <use xlink:href="#m6cf1389729" x="334.802195" y="253.998198" style="fill: #2ca02c; stroke: #2ca02c"/>
     <use xlink:href="#m6cf1389729" x="392.627074" y="198.855583" style="fill: #2ca02c; stroke: #2ca02c"/>
     <use xlink:href="#m6cf1389729" x="450.451953" y="150.423376" style="fill: #2ca02c; stroke: #2ca02c"/>
     <use xlink:href="#m6cf1389729" x="508.276832" y="87.338862" style="fill: #2ca02c; stroke: #2ca02c"/>
     <use xlink:href="#m6cf1389729" x="566.101711" y="46.72374" style="fill: #2ca02c; stroke: #2ca02c"/>
    </g>
   </g>
   <g id="line2d_54">
    <path d="M 334.802195 253.998198 
L 392.627074 197.121883 
L 450.451953 148.003776 
L 508.276832 85.601424 
L 566.101711 46.72374 
" clip-path="url(#p695d9ef8e8)" style="fill: none; stroke: #d62728; stroke-width: 1.7; stroke-linecap: square"/>
    <g clip-path="url(#p695d9ef8e8)">
     <use xlink:href="#meb2e61ebb5" x="334.802195" y="253.998198" style="fill: #d62728; stroke: #d62728"/>
     <use xlink:href="#meb2e61ebb5" x="392.627074" y="197.121883" style="fill: #d62728; stroke: #d62728"/>
     <use xlink:href="#meb2e61ebb5" x="450.451953" y="148.003776" style="fill: #d62728; stroke: #d62728"/>
     <use xlink:href="#meb2e61ebb5" x="508.276832" y="85.601424" style="fill: #d62728; stroke: #d62728"/>
     <use xlink:href="#meb2e61ebb5" x="566.101711" y="46.72374" style="fill: #d62728; stroke: #d62728"/>
    </g>
   </g>
   <g id="line2d_55">
    <path d="M 334.802195 253.998198 
L 392.627074 196.579481 
L 450.451953 147.134392 
L 508.276832 84.955196 
L 566.101711 46.72374 
" clip-path="url(#p695d9ef8e8)" style="fill: none; stroke: #9467bd; stroke-width: 1.7; stroke-linecap: square"/>
    <g clip-path="url(#p695d9ef8e8)">
     <use xlink:href="#me82b314bea" x="334.802195" y="253.998198" style="fill: #9467bd; stroke: #9467bd"/>
     <use xlink:href="#me82b314bea" x="392.627074" y="196.579481" style="fill: #9467bd; stroke: #9467bd"/>
     <use xlink:href="#me82b314bea" x="450.451953" y="147.134392" style="fill: #9467bd; stroke: #9467bd"/>
     <use xlink:href="#me82b314bea" x="508.276832" y="84.955196" style="fill: #9467bd; stroke: #9467bd"/>
     <use xlink:href="#me82b314bea" x="566.101711" y="46.72374" style="fill: #9467bd; stroke: #9467bd"/>
    </g>
   </g>
   <g id="line2d_56">
    <path d="M 323.237219 67.451186 
L 577.666687 67.451186 
" clip-path="url(#p695d9ef8e8)" style="fill: none; stroke-dasharray: 3.7,1.6; stroke-dashoffset: 0; stroke: #333333"/>
   </g>
   <g id="patch_8">
    <path d="M 323.237219 253.998198 
L 323.237219 36.360017 
" style="fill: none; stroke: #000000; stroke-width: 0.8; stroke-linejoin: miter; stroke-linecap: square"/>
   </g>
   <g id="patch_9">
    <path d="M 577.666687 253.998198 
L 577.666687 36.360017 
" style="fill: none; stroke: #000000; stroke-width: 0.8; stroke-linejoin: miter; stroke-linecap: square"/>
   </g>
   <g id="patch_10">
    <path d="M 323.237219 253.998198 
L 577.666687 253.998198 
" style="fill: none; stroke: #000000; stroke-width: 0.8; stroke-linejoin: miter; stroke-linecap: square"/>
   </g>
   <g id="patch_11">
    <path d="M 323.237219 36.360017 
L 577.666687 36.360017 
" style="fill: none; stroke: #000000; stroke-width: 0.8; stroke-linejoin: miter; stroke-linecap: square"/>
   </g>
   <g id="text_27">
    <!-- 60 deg/s -->
    <g transform="translate(426.619766 30.360017) scale(0.11 -0.11)">
     <use xlink:href="#DejaVuSans-19"/>
     <use xlink:href="#DejaVuSans-13" transform="translate(63.625 0)"/>
     <use xlink:href="#DejaVuSans-3" transform="translate(127.25 0)"/>
     <use xlink:href="#DejaVuSans-47" transform="translate(159.03125 0)"/>
     <use xlink:href="#DejaVuSans-48" transform="translate(222.515625 0)"/>
     <use xlink:href="#DejaVuSans-4a" transform="translate(284.046875 0)"/>
     <use xlink:href="#DejaVuSans-12" transform="translate(347.53125 0)"/>
     <use xlink:href="#DejaVuSans-56" transform="translate(381.21875 0)"/>
    </g>
   </g>
  </g>
  <g id="axes_3">
   <g id="patch_12">
    <path d="M 606.570292 253.998198 
L 860.99976 253.998198 
L 860.99976 36.360017 
L 606.570292 36.360017 
z
" style="fill: #ffffff"/>
   </g>
   <g id="matplotlib.axis_5">
    <g id="xtick_11">
     <g id="line2d_57">
      <path d="M 618.135268 253.998198 
L 618.135268 36.360017 
" clip-path="url(#p25598ddc1b)" style="fill: none; stroke: #dddddd; stroke-width: 0.7; stroke-linecap: square"/>
     </g>
     <g id="line2d_58">
      <g>
       <use xlink:href="#m0f4c43bd05" x="618.135268" y="253.998198" style="stroke: #000000; stroke-width: 0.8"/>
      </g>
     </g>
     <g id="text_28">
      <!-- 0 -->
      <g transform="translate(614.954018 268.595854) scale(0.1 -0.1)">
       <use xlink:href="#DejaVuSans-13"/>
      </g>
     </g>
    </g>
    <g id="xtick_12">
     <g id="line2d_59">
      <path d="M 675.960147 253.998198 
L 675.960147 36.360017 
" clip-path="url(#p25598ddc1b)" style="fill: none; stroke: #dddddd; stroke-width: 0.7; stroke-linecap: square"/>
     </g>
     <g id="line2d_60">
      <g>
       <use xlink:href="#m0f4c43bd05" x="675.960147" y="253.998198" style="stroke: #000000; stroke-width: 0.8"/>
      </g>
     </g>
     <g id="text_29">
      <!-- 5 -->
      <g transform="translate(672.778897 268.595854) scale(0.1 -0.1)">
       <use xlink:href="#DejaVuSans-18"/>
      </g>
     </g>
    </g>
    <g id="xtick_13">
     <g id="line2d_61">
      <path d="M 733.785026 253.998198 
L 733.785026 36.360017 
" clip-path="url(#p25598ddc1b)" style="fill: none; stroke: #dddddd; stroke-width: 0.7; stroke-linecap: square"/>
     </g>
     <g id="line2d_62">
      <g>
       <use xlink:href="#m0f4c43bd05" x="733.785026" y="253.998198" style="stroke: #000000; stroke-width: 0.8"/>
      </g>
     </g>
     <g id="text_30">
      <!-- 10 -->
      <g transform="translate(727.422526 268.595854) scale(0.1 -0.1)">
       <use xlink:href="#DejaVuSans-14"/>
       <use xlink:href="#DejaVuSans-13" transform="translate(63.625 0)"/>
      </g>
     </g>
    </g>
    <g id="xtick_14">
     <g id="line2d_63">
      <path d="M 791.609905 253.998198 
L 791.609905 36.360017 
" clip-path="url(#p25598ddc1b)" style="fill: none; stroke: #dddddd; stroke-width: 0.7; stroke-linecap: square"/>
     </g>
     <g id="line2d_64">
      <g>
       <use xlink:href="#m0f4c43bd05" x="791.609905" y="253.998198" style="stroke: #000000; stroke-width: 0.8"/>
      </g>
     </g>
     <g id="text_31">
      <!-- 20 -->
      <g transform="translate(785.247405 268.595854) scale(0.1 -0.1)">
       <use xlink:href="#DejaVuSans-15"/>
       <use xlink:href="#DejaVuSans-13" transform="translate(63.625 0)"/>
      </g>
     </g>
    </g>
    <g id="xtick_15">
     <g id="line2d_65">
      <path d="M 849.434784 253.998198 
L 849.434784 36.360017 
" clip-path="url(#p25598ddc1b)" style="fill: none; stroke: #dddddd; stroke-width: 0.7; stroke-linecap: square"/>
     </g>
     <g id="line2d_66">
      <g>
       <use xlink:href="#m0f4c43bd05" x="849.434784" y="253.998198" style="stroke: #000000; stroke-width: 0.8"/>
      </g>
     </g>
     <g id="text_32">
      <!-- inf -->
      <g transform="translate(843.116815 268.596635) scale(0.1 -0.1)">
       <use xlink:href="#DejaVuSans-4c"/>
       <use xlink:href="#DejaVuSans-51" transform="translate(27.78125 0)"/>
       <use xlink:href="#DejaVuSans-49" transform="translate(91.15625 0)"/>
      </g>
     </g>
    </g>
    <g id="text_33">
     <!-- separator SDR (dB) -->
     <g transform="translate(685.488151 282.597416) scale(0.1 -0.1)">
      <use xlink:href="#DejaVuSans-56"/>
      <use xlink:href="#DejaVuSans-48" transform="translate(52.09375 0)"/>
      <use xlink:href="#DejaVuSans-53" transform="translate(113.625 0)"/>
      <use xlink:href="#DejaVuSans-44" transform="translate(177.109375 0)"/>
      <use xlink:href="#DejaVuSans-55" transform="translate(238.390625 0)"/>
      <use xlink:href="#DejaVuSans-44" transform="translate(279.5 0)"/>
      <use xlink:href="#DejaVuSans-57" transform="translate(340.78125 0)"/>
      <use xlink:href="#DejaVuSans-52" transform="translate(379.984375 0)"/>
      <use xlink:href="#DejaVuSans-55" transform="translate(441.171875 0)"/>
      <use xlink:href="#DejaVuSans-3" transform="translate(482.28125 0)"/>
      <use xlink:href="#DejaVuSans-36" transform="translate(514.0625 0)"/>
      <use xlink:href="#DejaVuSans-27" transform="translate(577.546875 0)"/>
      <use xlink:href="#DejaVuSans-35" transform="translate(654.546875 0)"/>
      <use xlink:href="#DejaVuSans-3" transform="translate(724.03125 0)"/>
      <use xlink:href="#DejaVuSans-b" transform="translate(755.8125 0)"/>
      <use xlink:href="#DejaVuSans-47" transform="translate(794.828125 0)"/>
      <use xlink:href="#DejaVuSans-25" transform="translate(858.3125 0)"/>
      <use xlink:href="#DejaVuSans-c" transform="translate(926.921875 0)"/>
     </g>
    </g>
   </g>
   <g id="matplotlib.axis_6">
    <g id="ytick_13">
     <g id="line2d_67">
      <path d="M 606.570292 253.998198 
L 860.99976 253.998198 
" clip-path="url(#p25598ddc1b)" style="fill: none; stroke: #dddddd; stroke-width: 0.7; stroke-linecap: square"/>
     </g>
     <g id="line2d_68">
      <g>
       <use xlink:href="#m3d630ac57b" x="606.570292" y="253.998198" style="stroke: #000000; stroke-width: 0.8"/>
      </g>
     </g>
     <g id="text_34">
      <!-- 0.0 -->
      <g transform="translate(583.667167 257.797026) scale(0.1 -0.1)">
       <use xlink:href="#DejaVuSans-13"/>
       <use xlink:href="#DejaVuSans-11" transform="translate(63.625 0)"/>
       <use xlink:href="#DejaVuSans-13" transform="translate(95.40625 0)"/>
      </g>
     </g>
    </g>
    <g id="ytick_14">
     <g id="line2d_69">
      <path d="M 606.570292 212.543306 
L 860.99976 212.543306 
" clip-path="url(#p25598ddc1b)" style="fill: none; stroke: #dddddd; stroke-width: 0.7; stroke-linecap: square"/>
     </g>
     <g id="line2d_70">
      <g>
       <use xlink:href="#m3d630ac57b" x="606.570292" y="212.543306" style="stroke: #000000; stroke-width: 0.8"/>
      </g>
     </g>
     <g id="text_35">
      <!-- 0.2 -->
      <g transform="translate(583.667167 216.342134) scale(0.1 -0.1)">
       <use xlink:href="#DejaVuSans-13"/>
       <use xlink:href="#DejaVuSans-11" transform="translate(63.625 0)"/>
       <use xlink:href="#DejaVuSans-15" transform="translate(95.40625 0)"/>
      </g>
     </g>
    </g>
    <g id="ytick_15">
     <g id="line2d_71">
      <path d="M 606.570292 171.088414 
L 860.99976 171.088414 
" clip-path="url(#p25598ddc1b)" style="fill: none; stroke: #dddddd; stroke-width: 0.7; stroke-linecap: square"/>
     </g>
     <g id="line2d_72">
      <g>
       <use xlink:href="#m3d630ac57b" x="606.570292" y="171.088414" style="stroke: #000000; stroke-width: 0.8"/>
      </g>
     </g>
     <g id="text_36">
      <!-- 0.4 -->
      <g transform="translate(583.667167 174.887243) scale(0.1 -0.1)">
       <use xlink:href="#DejaVuSans-13"/>
       <use xlink:href="#DejaVuSans-11" transform="translate(63.625 0)"/>
       <use xlink:href="#DejaVuSans-17" transform="translate(95.40625 0)"/>
      </g>
     </g>
    </g>
    <g id="ytick_16">
     <g id="line2d_73">
      <path d="M 606.570292 129.633523 
L 860.99976 129.633523 
" clip-path="url(#p25598ddc1b)" style="fill: none; stroke: #dddddd; stroke-width: 0.7; stroke-linecap: square"/>
     </g>
     <g id="line2d_74">
      <g>
       <use xlink:href="#m3d630ac57b" x="606.570292" y="129.633523" style="stroke: #000000; stroke-width: 0.8"/>
      </g>
     </g>
     <g id="text_37">
      <!-- 0.6 -->
      <g transform="translate(583.667167 133.432351) scale(0.1 -0.1)">
       <use xlink:href="#DejaVuSans-13"/>
       <use xlink:href="#DejaVuSans-11" transform="translate(63.625 0)"/>
       <use xlink:href="#DejaVuSans-19" transform="translate(95.40625 0)"/>
      </g>
     </g>
    </g>
    <g id="ytick_17">
     <g id="line2d_75">
      <path d="M 606.570292 88.178631 
L 860.99976 88.178631 
" clip-path="url(#p25598ddc1b)" style="fill: none; stroke: #dddddd; stroke-width: 0.7; stroke-linecap: square"/>
     </g>
     <g id="line2d_76">
      <g>
       <use xlink:href="#m3d630ac57b" x="606.570292" y="88.178631" style="stroke: #000000; stroke-width: 0.8"/>
      </g>
     </g>
     <g id="text_38">
      <!-- 0.8 -->
      <g transform="translate(583.667167 91.977459) scale(0.1 -0.1)">
       <use xlink:href="#DejaVuSans-13"/>
       <use xlink:href="#DejaVuSans-11" transform="translate(63.625 0)"/>
       <use xlink:href="#DejaVuSans-1b" transform="translate(95.40625 0)"/>
      </g>
     </g>
    </g>
    <g id="ytick_18">
     <g id="line2d_77">
      <path d="M 606.570292 46.72374 
L 860.99976 46.72374 
" clip-path="url(#p25598ddc1b)" style="fill: none; stroke: #dddddd; stroke-width: 0.7; stroke-linecap: square"/>
     </g>
     <g id="line2d_78">
      <g>
       <use xlink:href="#m3d630ac57b" x="606.570292" y="46.72374" style="stroke: #000000; stroke-width: 0.8"/>
      </g>
     </g>
     <g id="text_39">
      <!-- 1.0 -->
      <g transform="translate(583.667167 50.522568) scale(0.1 -0.1)">
       <use xlink:href="#DejaVuSans-14"/>
       <use xlink:href="#DejaVuSans-11" transform="translate(63.625 0)"/>
       <use xlink:href="#DejaVuSans-13" transform="translate(95.40625 0)"/>
      </g>
     </g>
    </g>
   </g>
   <g id="line2d_79">
    <path d="M 618.135268 253.998198 
L 675.960147 201.759105 
L 733.785026 153.95401 
L 791.609905 89.812065 
L 849.434784 46.72374 
" clip-path="url(#p25598ddc1b)" style="fill: none; stroke: #1f77b4; stroke-width: 1.7; stroke-linecap: square"/>
    <g clip-path="url(#p25598ddc1b)">
     <use xlink:href="#m239cca7fcf" x="618.135268" y="253.998198" style="fill: #1f77b4; stroke: #1f77b4"/>
     <use xlink:href="#m239cca7fcf" x="675.960147" y="201.759105" style="fill: #1f77b4; stroke: #1f77b4"/>
     <use xlink:href="#m239cca7fcf" x="733.785026" y="153.95401" style="fill: #1f77b4; stroke: #1f77b4"/>
     <use xlink:href="#m239cca7fcf" x="791.609905" y="89.812065" style="fill: #1f77b4; stroke: #1f77b4"/>
     <use xlink:href="#m239cca7fcf" x="849.434784" y="46.72374" style="fill: #1f77b4; stroke: #1f77b4"/>
    </g>
   </g>
   <g id="line2d_80">
    <path d="M 618.135268 253.998198 
L 675.960147 200.846092 
L 733.785026 153.30831 
L 791.609905 89.550808 
L 849.434784 46.72374 
" clip-path="url(#p25598ddc1b)" style="fill: none; stroke: #ff7f0e; stroke-width: 1.7; stroke-linecap: square"/>
    <g clip-path="url(#p25598ddc1b)">
     <use xlink:href="#md64158fce7" x="618.135268" y="253.998198" style="fill: #ff7f0e; stroke: #ff7f0e"/>
     <use xlink:href="#md64158fce7" x="675.960147" y="200.846092" style="fill: #ff7f0e; stroke: #ff7f0e"/>
     <use xlink:href="#md64158fce7" x="733.785026" y="153.30831" style="fill: #ff7f0e; stroke: #ff7f0e"/>
     <use xlink:href="#md64158fce7" x="791.609905" y="89.550808" style="fill: #ff7f0e; stroke: #ff7f0e"/>
     <use xlink:href="#md64158fce7" x="849.434784" y="46.72374" style="fill: #ff7f0e; stroke: #ff7f0e"/>
    </g>
   </g>
   <g id="line2d_81">
    <path d="M 618.135268 253.998198 
L 675.960147 199.168736 
L 733.785026 151.076338 
L 791.609905 87.903458 
L 849.434784 46.72374 
" clip-path="url(#p25598ddc1b)" style="fill: none; stroke: #2ca02c; stroke-width: 1.7; stroke-linecap: square"/>
    <g clip-path="url(#p25598ddc1b)">
     <use xlink:href="#m6cf1389729" x="618.135268" y="253.998198" style="fill: #2ca02c; stroke: #2ca02c"/>
     <use xlink:href="#m6cf1389729" x="675.960147" y="199.168736" style="fill: #2ca02c; stroke: #2ca02c"/>
     <use xlink:href="#m6cf1389729" x="733.785026" y="151.076338" style="fill: #2ca02c; stroke: #2ca02c"/>
     <use xlink:href="#m6cf1389729" x="791.609905" y="87.903458" style="fill: #2ca02c; stroke: #2ca02c"/>
     <use xlink:href="#m6cf1389729" x="849.434784" y="46.72374" style="fill: #2ca02c; stroke: #2ca02c"/>
    </g>
   </g>
   <g id="line2d_82">
    <path d="M 618.135268 253.948334 
L 675.960147 197.312936 
L 733.785026 148.385693 
L 791.609905 85.91144 
L 849.434784 46.72374 
" clip-path="url(#p25598ddc1b)" style="fill: none; stroke: #d62728; stroke-width: 1.7; stroke-linecap: square"/>
    <g clip-path="url(#p25598ddc1b)">
     <use xlink:href="#meb2e61ebb5" x="618.135268" y="253.948334" style="fill: #d62728; stroke: #d62728"/>
     <use xlink:href="#meb2e61ebb5" x="675.960147" y="197.312936" style="fill: #d62728; stroke: #d62728"/>
     <use xlink:href="#meb2e61ebb5" x="733.785026" y="148.385693" style="fill: #d62728; stroke: #d62728"/>
     <use xlink:href="#meb2e61ebb5" x="791.609905" y="85.91144" style="fill: #d62728; stroke: #d62728"/>
     <use xlink:href="#meb2e61ebb5" x="849.434784" y="46.72374" style="fill: #d62728; stroke: #d62728"/>
    </g>
   </g>
   <g id="line2d_83">
    <path d="M 618.135268 253.923185 
L 675.960147 196.515781 
L 733.785026 147.218473 
L 791.609905 85.06551 
L 849.434784 46.72374 
" clip-path="url(#p25598ddc1b)" style="fill: none; stroke: #9467bd; stroke-width: 1.7; stroke-linecap: square"/>
    <g clip-path="url(#p25598ddc1b)">
     <use xlink:href="#me82b314bea" x="618.135268" y="253.923185" style="fill: #9467bd; stroke: #9467bd"/>
     <use xlink:href="#me82b314bea" x="675.960147" y="196.515781" style="fill: #9467bd; stroke: #9467bd"/>
     <use xlink:href="#me82b314bea" x="733.785026" y="147.218473" style="fill: #9467bd; stroke: #9467bd"/>
     <use xlink:href="#me82b314bea" x="791.609905" y="85.06551" style="fill: #9467bd; stroke: #9467bd"/>
     <use xlink:href="#me82b314bea" x="849.434784" y="46.72374" style="fill: #9467bd; stroke: #9467bd"/>
    </g>
   </g>
   <g id="line2d_84">
    <path d="M 606.570292 67.451186 
L 860.99976 67.451186 
" clip-path="url(#p25598ddc1b)" style="fill: none; stroke-dasharray: 3.7,1.6; stroke-dashoffset: 0; stroke: #333333"/>
   </g>
   <g id="patch_13">
    <path d="M 606.570292 253.998198 
L 606.570292 36.360017 
" style="fill: none; stroke: #000000; stroke-width: 0.8; stroke-linejoin: miter; stroke-linecap: square"/>
   </g>
   <g id="patch_14">
    <path d="M 860.99976 253.998198 
L 860.99976 36.360017 
" style="fill: none; stroke: #000000; stroke-width: 0.8; stroke-linejoin: miter; stroke-linecap: square"/>
   </g>
   <g id="patch_15">
    <path d="M 606.570292 253.998198 
L 860.99976 253.998198 
" style="fill: none; stroke: #000000; stroke-width: 0.8; stroke-linejoin: miter; stroke-linecap: square"/>
   </g>
   <g id="patch_16">
    <path d="M 606.570292 36.360017 
L 860.99976 36.360017 
" style="fill: none; stroke: #000000; stroke-width: 0.8; stroke-linejoin: miter; stroke-linecap: square"/>
   </g>
   <g id="text_40">
    <!-- 120 deg/s -->
    <g transform="translate(706.453464 30.360017) scale(0.11 -0.11)">
     <use xlink:href="#DejaVuSans-14"/>
     <use xlink:href="#DejaVuSans-15" transform="translate(63.625 0)"/>
     <use xlink:href="#DejaVuSans-13" transform="translate(127.25 0)"/>
     <use xlink:href="#DejaVuSans-3" transform="translate(190.875 0)"/>
     <use xlink:href="#DejaVuSans-47" transform="translate(222.65625 0)"/>
     <use xlink:href="#DejaVuSans-48" transform="translate(286.140625 0)"/>
     <use xlink:href="#DejaVuSans-4a" transform="translate(347.671875 0)"/>
     <use xlink:href="#DejaVuSans-12" transform="translate(411.15625 0)"/>
     <use xlink:href="#DejaVuSans-56" transform="translate(444.84375 0)"/>
    </g>
   </g>
   <g id="legend_1">
    <g id="text_41">
     <!-- sigma -->
     <g transform="translate(813.596166 184.392729) scale(0.1 -0.1)">
      <defs>
       <path id="DejaVuSans-50" d="M 3328 2828 
Q 3544 3216 3844 3400 
Q 4144 3584 4550 3584 
Q 5097 3584 5394 3201 
Q 5691 2819 5691 2113 
L 5691 0 
L 5113 0 
L 5113 2094 
Q 5113 2597 4934 2840 
Q 4756 3084 4391 3084 
Q 3944 3084 3684 2787 
Q 3425 2491 3425 1978 
L 3425 0 
L 2847 0 
L 2847 2094 
Q 2847 2600 2669 2842 
Q 2491 3084 2119 3084 
Q 1678 3084 1418 2786 
Q 1159 2488 1159 1978 
L 1159 0 
L 581 0 
L 581 3500 
L 1159 3500 
L 1159 2956 
Q 1356 3278 1631 3431 
Q 1906 3584 2284 3584 
Q 2666 3584 2933 3390 
Q 3200 3197 3328 2828 
z
" transform="scale(0.015625)"/>
      </defs>
      <use xlink:href="#DejaVuSans-56"/>
      <use xlink:href="#DejaVuSans-4c" transform="translate(52.09375 0)"/>
      <use xlink:href="#DejaVuSans-4a" transform="translate(79.875 0)"/>
      <use xlink:href="#DejaVuSans-50" transform="translate(143.359375 0)"/>
      <use xlink:href="#DejaVuSans-44" transform="translate(240.765625 0)"/>
     </g>
    </g>
    <g id="line2d_85">
     <path d="M 803.59726 194.073823 
L 811.59726 194.073823 
L 819.59726 194.073823 
" style="fill: none; stroke: #1f77b4; stroke-width: 1.7; stroke-linecap: square"/>
     <g>
      <use xlink:href="#m239cca7fcf" x="811.59726" y="194.073823" style="fill: #1f77b4; stroke: #1f77b4"/>
     </g>
    </g>
    <g id="text_42">
     <!-- 10 deg -->
     <g transform="translate(825.99726 196.873823) scale(0.08 -0.08)">
      <use xlink:href="#DejaVuSans-14"/>
      <use xlink:href="#DejaVuSans-13" transform="translate(63.625 0)"/>
      <use xlink:href="#DejaVuSans-3" transform="translate(127.25 0)"/>
      <use xlink:href="#DejaVuSans-47" transform="translate(159.03125 0)"/>
      <use xlink:href="#DejaVuSans-48" transform="translate(222.515625 0)"/>
      <use xlink:href="#DejaVuSans-4a" transform="translate(284.046875 0)"/>
     </g>
    </g>
    <g id="line2d_86">
     <path d="M 803.59726 206.074447 
L 811.59726 206.074447 
L 819.59726 206.074447 
" style="fill: none; stroke: #ff7f0e; stroke-width: 1.7; stroke-linecap: square"/>
     <g>
      <use xlink:href="#md64158fce7" x="811.59726" y="206.074447" style="fill: #ff7f0e; stroke: #ff7f0e"/>
     </g>
    </g>
    <g id="text_43">
     <!-- 20 deg -->
     <g transform="translate(825.99726 208.874448) scale(0.08 -0.08)">
      <use xlink:href="#DejaVuSans-15"/>
      <use xlink:href="#DejaVuSans-13" transform="translate(63.625 0)"/>
      <use xlink:href="#DejaVuSans-3" transform="translate(127.25 0)"/>
      <use xlink:href="#DejaVuSans-47" transform="translate(159.03125 0)"/>
      <use xlink:href="#DejaVuSans-48" transform="translate(222.515625 0)"/>
      <use xlink:href="#DejaVuSans-4a" transform="translate(284.046875 0)"/>
     </g>
    </g>
    <g id="line2d_87">
     <path d="M 803.59726 218.075072 
L 811.59726 218.075072 
L 819.59726 218.075072 
" style="fill: none; stroke: #2ca02c; stroke-width: 1.7; stroke-linecap: square"/>
     <g>
      <use xlink:href="#m6cf1389729" x="811.59726" y="218.075072" style="fill: #2ca02c; stroke: #2ca02c"/>
     </g>
    </g>
    <g id="text_44">
     <!-- 30 deg -->
     <g transform="translate(825.99726 220.875072) scale(0.08 -0.08)">
      <use xlink:href="#DejaVuSans-16"/>
      <use xlink:href="#DejaVuSans-13" transform="translate(63.625 0)"/>
      <use xlink:href="#DejaVuSans-3" transform="translate(127.25 0)"/>
      <use xlink:href="#DejaVuSans-47" transform="translate(159.03125 0)"/>
      <use xlink:href="#DejaVuSans-48" transform="translate(222.515625 0)"/>
      <use xlink:href="#DejaVuSans-4a" transform="translate(284.046875 0)"/>
     </g>
    </g>
    <g id="line2d_88">
     <path d="M 803.59726 230.075697 
L 811.59726 230.075697 
L 819.59726 230.075697 
" style="fill: none; stroke: #d62728; stroke-width: 1.7; stroke-linecap: square"/>
     <g>
      <use xlink:href="#meb2e61ebb5" x="811.59726" y="230.075697" style="fill: #d62728; stroke: #d62728"/>
     </g>
    </g>
    <g id="text_45">
     <!-- 45 deg -->
     <g transform="translate(825.99726 232.875698) scale(0.08 -0.08)">
      <use xlink:href="#DejaVuSans-17"/>
      <use xlink:href="#DejaVuSans-18" transform="translate(63.625 0)"/>
      <use xlink:href="#DejaVuSans-3" transform="translate(127.25 0)"/>
      <use xlink:href="#DejaVuSans-47" transform="translate(159.03125 0)"/>
      <use xlink:href="#DejaVuSans-48" transform="translate(222.515625 0)"/>
      <use xlink:href="#DejaVuSans-4a" transform="translate(284.046875 0)"/>
     </g>
    </g>
    <g id="line2d_89">
     <path d="M 803.59726 242.076323 
L 811.59726 242.076323 
L 819.59726 242.076323 
" style="fill: none; stroke: #9467bd; stroke-width: 1.7; stroke-linecap: square"/>
     <g>
      <use xlink:href="#me82b314bea" x="811.59726" y="242.076323" style="fill: #9467bd; stroke: #9467bd"/>
     </g>
    </g>
    <g id="text_46">
     <!-- 60 deg -->
     <g transform="translate(825.99726 244.876323) scale(0.08 -0.08)">
      <use xlink:href="#DejaVuSans-19"/>
      <use xlink:href="#DejaVuSans-13" transform="translate(63.625 0)"/>
      <use xlink:href="#DejaVuSans-3" transform="translate(127.25 0)"/>
      <use xlink:href="#DejaVuSans-47" transform="translate(159.03125 0)"/>
      <use xlink:href="#DejaVuSans-48" transform="translate(222.515625 0)"/>
      <use xlink:href="#DejaVuSans-4a" transform="translate(284.046875 0)"/>
     </g>
    </g>
   </g>
  </g>
  <g id="text_47">
   <!-- TIR retention as separator SDR degrades -->
   <g transform="translate(281.384844 12.878209) scale(0.13 -0.13)">
    <defs>
     <path id="DejaVuSans-Bold-37" d="M 31 4666 
L 4331 4666 
L 4331 3756 
L 2784 3756 
L 2784 0 
L 1581 0 
L 1581 3756 
L 31 3756 
L 31 4666 
z
" transform="scale(0.015625)"/>
     <path id="DejaVuSans-Bold-2c" d="M 588 4666 
L 1791 4666 
L 1791 0 
L 588 0 
L 588 4666 
z
" transform="scale(0.015625)"/>
     <path id="DejaVuSans-Bold-35" d="M 2297 2597 
Q 2675 2597 2839 2737 
Q 3003 2878 3003 3200 
Q 3003 3519 2839 3656 
Q 2675 3794 2297 3794 
L 1791 3794 
L 1791 2597 
L 2297 2597 
z
M 1791 1766 
L 1791 0 
L 588 0 
L 588 4666 
L 2425 4666 
Q 3347 4666 3776 4356 
Q 4206 4047 4206 3378 
Q 4206 2916 3982 2619 
Q 3759 2322 3309 2181 
Q 3556 2125 3751 1926 
Q 3947 1728 4147 1325 
L 4800 0 
L 3519 0 
L 2950 1159 
Q 2778 1509 2601 1637 
Q 2425 1766 2131 1766 
L 1791 1766 
z
" transform="scale(0.015625)"/>
     <path id="DejaVuSans-Bold-3" transform="scale(0.015625)"/>
     <path id="DejaVuSans-Bold-55" d="M 3138 2547 
Q 2991 2616 2845 2648 
Q 2700 2681 2553 2681 
Q 2122 2681 1889 2404 
Q 1656 2128 1656 1613 
L 1656 0 
L 538 0 
L 538 3500 
L 1656 3500 
L 1656 2925 
Q 1872 3269 2151 3426 
Q 2431 3584 2822 3584 
Q 2878 3584 2943 3579 
Q 3009 3575 3134 3559 
L 3138 2547 
z
" transform="scale(0.015625)"/>
     <path id="DejaVuSans-Bold-48" d="M 4031 1759 
L 4031 1441 
L 1416 1441 
Q 1456 1047 1700 850 
Q 1944 653 2381 653 
Q 2734 653 3104 758 
Q 3475 863 3866 1075 
L 3866 213 
Q 3469 63 3072 -14 
Q 2675 -91 2278 -91 
Q 1328 -91 801 392 
Q 275 875 275 1747 
Q 275 2603 792 3093 
Q 1309 3584 2216 3584 
Q 3041 3584 3536 3087 
Q 4031 2591 4031 1759 
z
M 2881 2131 
Q 2881 2450 2695 2645 
Q 2509 2841 2209 2841 
Q 1884 2841 1681 2658 
Q 1478 2475 1428 2131 
L 2881 2131 
z
" transform="scale(0.015625)"/>
     <path id="DejaVuSans-Bold-57" d="M 1759 4494 
L 1759 3500 
L 2913 3500 
L 2913 2700 
L 1759 2700 
L 1759 1216 
Q 1759 972 1856 886 
Q 1953 800 2241 800 
L 2816 800 
L 2816 0 
L 1856 0 
Q 1194 0 917 276 
Q 641 553 641 1216 
L 641 2700 
L 84 2700 
L 84 3500 
L 641 3500 
L 641 4494 
L 1759 4494 
z
" transform="scale(0.015625)"/>
     <path id="DejaVuSans-Bold-51" d="M 4056 2131 
L 4056 0 
L 2931 0 
L 2931 347 
L 2931 1631 
Q 2931 2084 2911 2256 
Q 2891 2428 2841 2509 
Q 2775 2619 2662 2680 
Q 2550 2741 2406 2741 
Q 2056 2741 1856 2470 
Q 1656 2200 1656 1722 
L 1656 0 
L 538 0 
L 538 3500 
L 1656 3500 
L 1656 2988 
Q 1909 3294 2193 3439 
Q 2478 3584 2822 3584 
Q 3428 3584 3742 3212 
Q 4056 2841 4056 2131 
z
" transform="scale(0.015625)"/>
     <path id="DejaVuSans-Bold-4c" d="M 538 3500 
L 1656 3500 
L 1656 0 
L 538 0 
L 538 3500 
z
M 538 4863 
L 1656 4863 
L 1656 3950 
L 538 3950 
L 538 4863 
z
" transform="scale(0.015625)"/>
     <path id="DejaVuSans-Bold-52" d="M 2203 2784 
Q 1831 2784 1636 2517 
Q 1441 2250 1441 1747 
Q 1441 1244 1636 976 
Q 1831 709 2203 709 
Q 2569 709 2762 976 
Q 2956 1244 2956 1747 
Q 2956 2250 2762 2517 
Q 2569 2784 2203 2784 
z
M 2203 3584 
Q 3106 3584 3614 3096 
Q 4122 2609 4122 1747 
Q 4122 884 3614 396 
Q 3106 -91 2203 -91 
Q 1297 -91 786 396 
Q 275 884 275 1747 
Q 275 2609 786 3096 
Q 1297 3584 2203 3584 
z
" transform="scale(0.015625)"/>
     <path id="DejaVuSans-Bold-44" d="M 2106 1575 
Q 1756 1575 1579 1456 
Q 1403 1338 1403 1106 
Q 1403 894 1545 773 
Q 1688 653 1941 653 
Q 2256 653 2472 879 
Q 2688 1106 2688 1447 
L 2688 1575 
L 2106 1575 
z
M 3816 1997 
L 3816 0 
L 2688 0 
L 2688 519 
Q 2463 200 2181 54 
Q 1900 -91 1497 -91 
Q 953 -91 614 226 
Q 275 544 275 1050 
Q 275 1666 698 1953 
Q 1122 2241 2028 2241 
L 2688 2241 
L 2688 2328 
Q 2688 2594 2478 2717 
Q 2269 2841 1825 2841 
Q 1466 2841 1156 2769 
Q 847 2697 581 2553 
L 581 3406 
Q 941 3494 1303 3539 
Q 1666 3584 2028 3584 
Q 2975 3584 3395 3211 
Q 3816 2838 3816 1997 
z
" transform="scale(0.015625)"/>
     <path id="DejaVuSans-Bold-56" d="M 3272 3391 
L 3272 2541 
Q 2913 2691 2578 2766 
Q 2244 2841 1947 2841 
Q 1628 2841 1473 2761 
Q 1319 2681 1319 2516 
Q 1319 2381 1436 2309 
Q 1553 2238 1856 2203 
L 2053 2175 
Q 2913 2066 3209 1816 
Q 3506 1566 3506 1031 
Q 3506 472 3093 190 
Q 2681 -91 1863 -91 
Q 1516 -91 1145 -36 
Q 775 19 384 128 
L 384 978 
Q 719 816 1070 734 
Q 1422 653 1784 653 
Q 2113 653 2278 743 
Q 2444 834 2444 1013 
Q 2444 1163 2330 1236 
Q 2216 1309 1875 1350 
L 1678 1375 
Q 931 1469 631 1722 
Q 331 1975 331 2491 
Q 331 3047 712 3315 
Q 1094 3584 1881 3584 
Q 2191 3584 2531 3537 
Q 2872 3491 3272 3391 
z
" transform="scale(0.015625)"/>
     <path id="DejaVuSans-Bold-53" d="M 1656 506 
L 1656 -1331 
L 538 -1331 
L 538 3500 
L 1656 3500 
L 1656 2988 
Q 1888 3294 2169 3439 
Q 2450 3584 2816 3584 
Q 3463 3584 3878 3070 
Q 4294 2556 4294 1747 
Q 4294 938 3878 423 
Q 3463 -91 2816 -91 
Q 2450 -91 2169 54 
Q 1888 200 1656 506 
z
M 2400 2772 
Q 2041 2772 1848 2508 
Q 1656 2244 1656 1747 
Q 1656 1250 1848 986 
Q 2041 722 2400 722 
Q 2759 722 2948 984 
Q 3138 1247 3138 1747 
Q 3138 2247 2948 2509 
Q 2759 2772 2400 2772 
z
" transform="scale(0.015625)"/>
     <path id="DejaVuSans-Bold-36" d="M 3834 4519 
L 3834 3531 
Q 3450 3703 3084 3790 
Q 2719 3878 2394 3878 
Q 1963 3878 1756 3759 
Q 1550 3641 1550 3391 
Q 1550 3203 1689 3098 
Q 1828 2994 2194 2919 
L 2706 2816 
Q 3484 2659 3812 2340 
Q 4141 2022 4141 1434 
Q 4141 663 3683 286 
Q 3225 -91 2284 -91 
Q 1841 -91 1394 -6 
Q 947 78 500 244 
L 500 1259 
Q 947 1022 1364 901 
Q 1781 781 2169 781 
Q 2563 781 2772 912 
Q 2981 1044 2981 1288 
Q 2981 1506 2839 1625 
Q 2697 1744 2272 1838 
L 1806 1941 
Q 1106 2091 782 2419 
Q 459 2747 459 3303 
Q 459 4000 909 4375 
Q 1359 4750 2203 4750 
Q 2588 4750 2994 4692 
Q 3400 4634 3834 4519 
z
" transform="scale(0.015625)"/>
     <path id="DejaVuSans-Bold-27" d="M 1791 3756 
L 1791 909 
L 2222 909 
Q 2959 909 3348 1275 
Q 3738 1641 3738 2338 
Q 3738 3031 3350 3393 
Q 2963 3756 2222 3756 
L 1791 3756 
z
M 588 4666 
L 1856 4666 
Q 2919 4666 3439 4514 
Q 3959 4363 4331 4000 
Q 4659 3684 4818 3271 
Q 4978 2859 4978 2338 
Q 4978 1809 4818 1395 
Q 4659 981 4331 666 
Q 3956 303 3431 151 
Q 2906 0 1856 0 
L 588 0 
L 588 4666 
z
" transform="scale(0.015625)"/>
     <path id="DejaVuSans-Bold-47" d="M 2919 2988 
L 2919 4863 
L 4044 4863 
L 4044 0 
L 2919 0 
L 2919 506 
Q 2688 197 2409 53 
Q 2131 -91 1766 -91 
Q 1119 -91 703 423 
Q 288 938 288 1747 
Q 288 2556 703 3070 
Q 1119 3584 1766 3584 
Q 2128 3584 2408 3439 
Q 2688 3294 2919 2988 
z
M 2181 722 
Q 2541 722 2730 984 
Q 2919 1247 2919 1747 
Q 2919 2247 2730 2509 
Q 2541 2772 2181 2772 
Q 1825 2772 1636 2509 
Q 1447 2247 1447 1747 
Q 1447 1247 1636 984 
Q 1825 722 2181 722 
z
" transform="scale(0.015625)"/>
     <path id="DejaVuSans-Bold-4a" d="M 2919 594 
Q 2688 288 2409 144 
Q 2131 0 1766 0 
Q 1125 0 706 504 
Q 288 1009 288 1791 
Q 288 2575 706 3076 
Q 1125 3578 1766 3578 
Q 2131 3578 2409 3434 
Q 2688 3291 2919 2981 
L 2919 3500 
L 4044 3500 
L 4044 353 
Q 4044 -491 3511 -936 
Q 2978 -1381 1966 -1381 
Q 1638 -1381 1331 -1331 
Q 1025 -1281 716 -1178 
L 716 -306 
Q 1009 -475 1290 -558 
Q 1572 -641 1856 -641 
Q 2406 -641 2662 -400 
Q 2919 -159 2919 353 
L 2919 594 
z
M 2181 2772 
Q 1834 2772 1640 2515 
Q 1447 2259 1447 1791 
Q 1447 1309 1634 1061 
Q 1822 813 2181 813 
Q 2531 813 2725 1069 
Q 2919 1325 2919 1791 
Q 2919 2259 2725 2515 
Q 2531 2772 2181 2772 
z
" transform="scale(0.015625)"/>
    </defs>
    <use xlink:href="#DejaVuSans-Bold-37"/>
    <use xlink:href="#DejaVuSans-Bold-2c" transform="translate(68.21875 0)"/>
    <use xlink:href="#DejaVuSans-Bold-35" transform="translate(105.421875 0)"/>
    <use xlink:href="#DejaVuSans-Bold-3" transform="translate(182.421875 0)"/>
    <use xlink:href="#DejaVuSans-Bold-55" transform="translate(217.234375 0)"/>
    <use xlink:href="#DejaVuSans-Bold-48" transform="translate(266.546875 0)"/>
    <use xlink:href="#DejaVuSans-Bold-57" transform="translate(334.375 0)"/>
    <use xlink:href="#DejaVuSans-Bold-48" transform="translate(382.171875 0)"/>
    <use xlink:href="#DejaVuSans-Bold-51" transform="translate(450 0)"/>
    <use xlink:href="#DejaVuSans-Bold-57" transform="translate(521.1875 0)"/>
    <use xlink:href="#DejaVuSans-Bold-4c" transform="translate(568.984375 0)"/>
    <use xlink:href="#DejaVuSans-Bold-52" transform="translate(603.265625 0)"/>
    <use xlink:href="#DejaVuSans-Bold-51" transform="translate(671.96875 0)"/>
    <use xlink:href="#DejaVuSans-Bold-3" transform="translate(743.15625 0)"/>
    <use xlink:href="#DejaVuSans-Bold-44" transform="translate(777.96875 0)"/>
    <use xlink:href="#DejaVuSans-Bold-56" transform="translate(845.453125 0)"/>
    <use xlink:href="#DejaVuSans-Bold-3" transform="translate(904.96875 0)"/>
    <use xlink:href="#DejaVuSans-Bold-56" transform="translate(939.78125 0)"/>
    <use xlink:href="#DejaVuSans-Bold-48" transform="translate(999.296875 0)"/>
    <use xlink:href="#DejaVuSans-Bold-53" transform="translate(1067.125 0)"/>
    <use xlink:href="#DejaVuSans-Bold-44" transform="translate(1138.703125 0)"/>
    <use xlink:href="#DejaVuSans-Bold-55" transform="translate(1206.1875 0)"/>
    <use xlink:href="#DejaVuSans-Bold-44" transform="translate(1255.5 0)"/>
    <use xlink:href="#DejaVuSans-Bold-57" transform="translate(1322.984375 0)"/>
    <use xlink:href="#DejaVuSans-Bold-52" transform="translate(1370.78125 0)"/>
    <use xlink:href="#DejaVuSans-Bold-55" transform="translate(1439.484375 0)"/>
    <use xlink:href="#DejaVuSans-Bold-3" transform="translate(1488.796875 0)"/>
    <use xlink:href="#DejaVuSans-Bold-36" transform="translate(1523.609375 0)"/>
    <use xlink:href="#DejaVuSans-Bold-27" transform="translate(1595.625 0)"/>
    <use xlink:href="#DejaVuSans-Bold-35" transform="translate(1678.640625 0)"/>
    <use xlink:href="#DejaVuSans-Bold-3" transform="translate(1755.640625 0)"/>
    <use xlink:href="#DejaVuSans-Bold-47" transform="translate(1790.453125 0)"/>
    <use xlink:href="#DejaVuSans-Bold-48" transform="translate(1862.03125 0)"/>
    <use xlink:href="#DejaVuSans-Bold-4a" transform="translate(1929.859375 0)"/>
    <use xlink:href="#DejaVuSans-Bold-55" transform="translate(2001.4375 0)"/>
    <use xlink:href="#DejaVuSans-Bold-44" transform="translate(2050.75 0)"/>
    <use xlink:href="#DejaVuSans-Bold-47" transform="translate(2118.234375 0)"/>
    <use xlink:href="#DejaVuSans-Bold-48" transform="translate(2189.8125 0)"/>
    <use xlink:href="#DejaVuSans-Bold-56" transform="translate(2257.640625 0)"/>
   </g>
  </g>
 </g>
 <defs>
  <clipPath id="paab04fbc4b">
   <rect x="39.904146" y="36.360017" width="254.429468" height="217.638181"/>
  </clipPath>
  <clipPath id="p695d9ef8e8">
   <rect x="323.237219" y="36.360017" width="254.429468" height="217.638181"/>
  </clipPath>
  <clipPath id="p25598ddc1b">
   <rect x="606.570292" y="36.360017" width="254.429468" height="217.638181"/>
  </clipPath>
 </defs>
</svg>
