<?xml version="1.0" encoding="utf-8" standalone="no"?>
<!DOCTYPE svg PUBLIC "-//W3C//DTD SVG 1.1//EN"
  "http://www.w3.org/Graphics/SVG/1.1/DTD/svg11.dtd">
<svg xmlns:xlink="http://www.w3.org/1999/xlink" width="864pt" height="273.6pt" viewBox="0 0 864 273.6" xmlns="http://www.w3.org/2000/svg" version="1.1">
 <metadata>
  <rdf:RDF xmlns:dc="http://purl.org/dc/elements/1.1/" xmlns:cc="http://creativecommons.org/ns#" xmlns:rdf="http://www.w3.org/1999/02/22-rdf-syntax-ns#">
   <cc:Work>
    <dc:type rdf:resource="http://purl.org/dc/dcmitype/StillImage"/>
    <dc:date>2026-07-21T19:13:07.169142</dc:date>
    <dc:format>image/svg+xml</dc:format>
    <dc:creator>
     <cc:Agent>
      <dc:title>Matplotlib v3.11.0, https://matplotlib.org/</dc:title>
     </cc:Agent>
    </dc:creator>
   </cc:Work>
  </rdf:RDF>
 </metadata>
 <defs>
  <style type="text/css">*{stroke-linejoin: round; stroke-linecap: butt}</style>
 </defs>
 <g id="figure_1">
  <g id="patch_1">
   <path d="M 0 273.6 
L 864 273.6 
L 864 0 
L 0 0 
z
" style="fill: #ffffff"/>
  </g>
  <g id="axes_1">
   <g id="patch_2">
    <path d="M 32.023428 246.299072 
L 285.898552 246.299072 
L 285.898552 34.296158 
L 32.023428 34.296158 
z
" style="fill: #ffffff"/>
   </g>
   <g id="matplotlib.axis_1">
    <g id="xtick_1">
     <g id="line2d_1">
      <path d="M 32.023428 246.299072 
L 32.023428 34.296158 
" clip-path="url(#p1b31c57513)" style="fill: none; stroke: #cccccc; stroke-width: 0.55; stroke-linecap: round"/>
     </g>
     <g id="line2d_2"/>
     <g id="text_1">
      <text style="font-size: 8px; font-family: 'DejaVu Sans'; text-anchor: middle; fill: #262626" x="32.023428" y="255.877197" transform="rotate(-0 32.023428 255.877197)">0</text>
     </g>
    </g>
    <g id="xtick_2">
     <g id="line2d_3">
      <path d="M 57.41094 246.299072 
L 57.41094 34.296158 
" clip-path="url(#p1b31c57513)" style="fill: none; stroke: #cccccc; stroke-width: 0.55; stroke-linecap: round"/>
     </g>
     <g id="line2d_4"/>
     <g id="text_2">
      <text style="font-size: 8px; font-family: 'DejaVu Sans'; text-anchor: middle; fill: #262626" x="57.41094" y="255.877197" transform="rotate(-0 57.41094 255.877197)">20</text>
     </g>
    </g>
    <g id="xtick_3">
     <g id="line2d_5">
      <path d="M 82.798452 246.299072 
L 82.798452 34.296158 
" clip-path="url(#p1b31c57513)" style="fill: none; stroke: #cccccc; stroke-width: 0.55; stroke-linecap: round"/>
     </g>
     <g id="line2d_6"/>
     <g id="text_3">
      <text style="font-size: 8px; font-family: 'DejaVu Sans'; text-anchor: middle; fill: #262626" x="82.798452" y="255.877197" transform="rotate(-0 82.798452 255.877197)">40</text>
     </g>
    </g>
    <g id="xtick_4">
     <g id="line2d_7">
      <path d="M 133.573477 246.299072 
L 133.573477 34.296158 
" clip-path="url(#p1b31c57513)" style="fill: none; stroke: #cccccc; stroke-width: 0.55; stroke-linecap: round"/>
     </g>
     <g id="line2d_8"/>
     <g id="text_4">
      <text style="font-size: 8px; font-family: 'DejaVu Sans'; text-anchor: middle; fill: #262626" x="133.573477" y="255.877197" transform="rotate(-0 133.573477 255.877197)">80</text>
     </g>
    </g>
    <g id="xtick_5">
     <g id="line2d_9">
      <path d="M 184.348502 246.299072 
L 184.348502 34.296158 
" clip-path="url(#p1b31c57513)" style="fill: none; stroke: #cccccc; stroke-width: 0.55; stroke-linecap: round"/>
     </g>
     <g id="line2d_10"/>
     <g id="text_5">
      <text style="font-size: 8px; font-family: 'DejaVu Sans'; text-anchor: middle; fill: #262626" x="184.348502" y="255.877197" transform="rotate(-0 184.348502 255.877197)">120</text>
     </g>
    </g>
    <g id="xtick_6">
     <g id="line2d_11">
      <path d="M 235.123527 246.299072 
L 235.123527 34.296158 
" clip-path="url(#p1b31c57513)" style="fill: none; stroke: #cccccc; stroke-width: 0.55; stroke-linecap: round"/>
     </g>
     <g id="line2d_12"/>
     <g id="text_6">
      <text style="font-size: 8px; font-family: 'DejaVu Sans'; text-anchor: middle; fill: #262626" x="235.123527" y="255.877197" transform="rotate(-0 235.123527 255.877197)">160</text>
     </g>
    </g>
    <g id="xtick_7">
     <g id="line2d_13">
      <path d="M 285.898552 246.299072 
L 285.898552 34.296158 
" clip-path="url(#p1b31c57513)" style="fill: none; stroke: #cccccc; stroke-width: 0.55; stroke-linecap: round"/>
     </g>
     <g id="line2d_14"/>
     <g id="text_7">
      <text style="font-size: 8px; font-family: 'DejaVu Sans'; text-anchor: middle; fill: #262626" x="285.898552" y="255.877197" transform="rotate(-0 285.898552 255.877197)">200</text>
     </g>
    </g>
    <g id="text_8">
     <text style="font-size: 8.8px; font-family: 'DejaVu Sans'; text-anchor: middle; fill: #262626" x="158.96099" y="268.485697" transform="rotate(-0 158.96099 268.485697)">source-estimate delay (ms)</text>
    </g>
   </g>
   <g id="matplotlib.axis_2">
    <g id="ytick_1">
     <g id="line2d_15">
      <path d="M 32.023428 246.299072 
L 285.898552 246.299072 
" clip-path="url(#p1b31c57513)" style="fill: none; stroke: #cccccc; stroke-width: 0.55; stroke-linecap: round"/>
     </g>
     <g id="line2d_16"/>
     <g id="text_9">
      <text style="font-size: 8px; font-family: 'DejaVu Sans'; text-anchor: end; fill: #262626" x="28.523428" y="249.338135" transform="rotate(-0 28.523428 249.338135)">0.0</text>
     </g>
    </g>
    <g id="ytick_2">
     <g id="line2d_17">
      <path d="M 32.023428 199.379336 
L 285.898552 199.379336 
" clip-path="url(#p1b31c57513)" style="fill: none; stroke: #cccccc; stroke-width: 0.55; stroke-linecap: round"/>
     </g>
     <g id="line2d_18"/>
     <g id="text_10">
      <text style="font-size: 8px; font-family: 'DejaVu Sans'; text-anchor: end; fill: #262626" x="28.523428" y="202.418399" transform="rotate(-0 28.523428 202.418399)">0.2</text>
     </g>
    </g>
    <g id="ytick_3">
     <g id="line2d_19">
      <path d="M 32.023428 152.4596 
L 285.898552 152.4596 
" clip-path="url(#p1b31c57513)" style="fill: none; stroke: #cccccc; stroke-width: 0.55; stroke-linecap: round"/>
     </g>
     <g id="line2d_20"/>
     <g id="text_11">
      <text style="font-size: 8px; font-family: 'DejaVu Sans'; text-anchor: end; fill: #262626" x="28.523428" y="155.498662" transform="rotate(-0 28.523428 155.498662)">0.4</text>
     </g>
    </g>
    <g id="ytick_4">
     <g id="line2d_21">
      <path d="M 32.023428 105.539863 
L 285.898552 105.539863 
" clip-path="url(#p1b31c57513)" style="fill: none; stroke: #cccccc; stroke-width: 0.55; stroke-linecap: round"/>
     </g>
     <g id="line2d_22"/>
     <g id="text_12">
      <text style="font-size: 8px; font-family: 'DejaVu Sans'; text-anchor: end; fill: #262626" x="28.523428" y="108.578926" transform="rotate(-0 28.523428 108.578926)">0.6</text>
     </g>
    </g>
    <g id="ytick_5">
     <g id="line2d_23">
      <path d="M 32.023428 58.620127 
L 285.898552 58.620127 
" clip-path="url(#p1b31c57513)" style="fill: none; stroke: #cccccc; stroke-width: 0.55; stroke-linecap: round"/>
     </g>
     <g id="line2d_24"/>
     <g id="text_13">
      <text style="font-size: 8px; font-family: 'DejaVu Sans'; text-anchor: end; fill: #262626" x="28.523428" y="61.659189" transform="rotate(-0 28.523428 61.659189)">0.8</text>
     </g>
    </g>
    <g id="text_14">
     <text style="font-size: 8.8px; font-family: 'DejaVu Sans'; text-anchor: middle; fill: #262626" x="9.686865" y="140.297615" transform="rotate(-90 9.686865 140.297615)">STOI loss vs ideal output</text>
    </g>
   </g>
   <g id="line2d_25">
    <path d="M 32.023428 231.728658 
L 57.41094 152.267553 
L 82.798452 115.643992 
L 133.573477 84.235737 
L 184.348502 67.757841 
L 235.123527 63.528237 
L 285.898552 64.023921 
" clip-path="url(#p1b31c57513)" style="fill: none; stroke: #1f77b4; stroke-width: 1.7; stroke-linecap: round"/>
    <defs>
     <path id="m5f55cd2f1d" d="M 0 1.7 
C 0.450845 1.7 0.883286 1.520877 1.202082 1.202082 
C 1.520877 0.883286 1.7 0.450845 1.7 0 
C 1.7 -0.450845 1.520877 -0.883286 1.202082 -1.202082 
C 0.883286 -1.520877 0.450845 -1.7 0 -1.7 
C -0.450845 -1.7 -0.883286 -1.520877 -1.202082 -1.202082 
C -1.520877 -0.883286 -1.7 -0.450845 -1.7 0 
C -1.7 0.450845 -1.520877 0.883286 -1.202082 1.202082 
C -0.883286 1.520877 -0.450845 1.7 0 1.7 
z
" style="stroke: #1f77b4"/>
    </defs>
    <g clip-path="url(#p1b31c57513)">
     <use xlink:href="#m5f55cd2f1d" x="32.023428" y="231.728658" style="fill: #1f77b4; stroke: #1f77b4"/>
     <use xlink:href="#m5f55cd2f1d" x="57.41094" y="152.267553" style="fill: #1f77b4; stroke: #1f77b4"/>
     <use xlink:href="#m5f55cd2f1d" x="82.798452" y="115.643992" style="fill: #1f77b4; stroke: #1f77b4"/>
     <use xlink:href="#m5f55cd2f1d" x="133.573477" y="84.235737" style="fill: #1f77b4; stroke: #1f77b4"/>
     <use xlink:href="#m5f55cd2f1d" x="184.348502" y="67.757841" style="fill: #1f77b4; stroke: #1f77b4"/>
     <use xlink:href="#m5f55cd2f1d" x="235.123527" y="63.528237" style="fill: #1f77b4; stroke: #1f77b4"/>
     <use xlink:href="#m5f55cd2f1d" x="285.898552" y="64.023921" style="fill: #1f77b4; stroke: #1f77b4"/>
    </g>
   </g>
   <g id="line2d_26">
    <path d="M 32.023428 239.417606 
L 57.41094 164.581242 
L 82.798452 132.385878 
L 133.573477 104.726074 
L 184.348502 89.185325 
L 235.123527 84.440867 
L 285.898552 84.056685 
" clip-path="url(#p1b31c57513)" style="fill: none; stroke: #ff7f0e; stroke-width: 1.7; stroke-linecap: round"/>
    <defs>
     <path id="m77978d0ff8" d="M 0 1.7 
C 0.450845 1.7 0.883286 1.520877 1.202082 1.202082 
C 1.520877 0.883286 1.7 0.450845 1.7 0 
C 1.7 -0.450845 1.520877 -0.883286 1.202082 -1.202082 
C 0.883286 -1.520877 0.450845 -1.7 0 -1.7 
C -0.450845 -1.7 -0.883286 -1.520877 -1.202082 -1.202082 
C -1.520877 -0.883286 -1.7 -0.450845 -1.7 0 
C -1.7 0.450845 -1.520877 0.883286 -1.202082 1.202082 
C -0.883286 1.520877 -0.450845 1.7 0 1.7 
z
" style="stroke: #ff7f0e"/>
    </defs>
    <g clip-path="url(#p1b31c57513)">
     <use xlink:href="#m77978d0ff8" x="32.023428" y="239.417606" style="fill: #ff7f0e; stroke: #ff7f0e"/>
     <use xlink:href="#m77978d0ff8" x="57.41094" y="164.581242" style="fill: #ff7f0e; stroke: #ff7f0e"/>
     <use xlink:href="#m77978d0ff8" x="82.798452" y="132.385878" style="fill: #ff7f0e; stroke: #ff7f0e"/>
     <use xlink:href="#m77978d0ff8" x="133.573477" y="104.726074" style="fill: #ff7f0e; stroke: #ff7f0e"/>
     <use xlink:href="#m77978d0ff8" x="184.348502" y="89.185325" style="fill: #ff7f0e; stroke: #ff7f0e"/>
     <use xlink:href="#m77978d0ff8" x="235.123527" y="84.440867" style="fill: #ff7f0e; stroke: #ff7f0e"/>
     <use xlink:href="#m77978d0ff8" x="285.898552" y="84.056685" style="fill: #ff7f0e; stroke: #ff7f0e"/>
    </g>
   </g>
   <g id="line2d_27">
    <path d="M 32.023428 243.452445 
L 57.41094 174.540037 
L 82.798452 145.97727 
L 133.573477 121.999999 
L 184.348502 107.366758 
L 235.123527 102.493032 
L 285.898552 101.373317 
" clip-path="url(#p1b31c57513)" style="fill: none; stroke: #2ca02c; stroke-width: 1.7; stroke-linecap: round"/>
    <defs>
     <path id="m0069b41267" d="M 0 1.7 
C 0.450845 1.7 0.883286 1.520877 1.202082 1.202082 
C 1.520877 0.883286 1.7 0.450845 1.7 0 
C 1.7 -0.450845 1.520877 -0.883286 1.202082 -1.202082 
C 0.883286 -1.520877 0.450845 -1.7 0 -1.7 
C -0.450845 -1.7 -0.883286 -1.520877 -1.202082 -1.202082 
C -1.520877 -0.883286 -1.7 -0.450845 -1.7 0 
C -1.7 0.450845 -1.520877 0.883286 -1.202082 1.202082 
C -0.883286 1.520877 -0.450845 1.7 0 1.7 
z
" style="stroke: #2ca02c"/>
    </defs>
    <g clip-path="url(#p1b31c57513)">
     <use xlink:href="#m0069b41267" x="32.023428" y="243.452445" style="fill: #2ca02c; stroke: #2ca02c"/>
     <use xlink:href="#m0069b41267" x="57.41094" y="174.540037" style="fill: #2ca02c; stroke: #2ca02c"/>
     <use xlink:href="#m0069b41267" x="82.798452" y="145.97727" style="fill: #2ca02c; stroke: #2ca02c"/>
     <use xlink:href="#m0069b41267" x="133.573477" y="121.999999" style="fill: #2ca02c; stroke: #2ca02c"/>
     <use xlink:href="#m0069b41267" x="184.348502" y="107.366758" style="fill: #2ca02c; stroke: #2ca02c"/>
     <use xlink:href="#m0069b41267" x="235.123527" y="102.493032" style="fill: #2ca02c; stroke: #2ca02c"/>
     <use xlink:href="#m0069b41267" x="285.898552" y="101.373317" style="fill: #2ca02c; stroke: #2ca02c"/>
    </g>
   </g>
   <g id="line2d_28">
    <path d="M 32.023428 245.926026 
L 57.41094 184.79003 
L 82.798452 158.729031 
L 133.573477 137.71602 
L 184.348502 123.916834 
L 235.123527 119.251722 
L 285.898552 118.004718 
" clip-path="url(#p1b31c57513)" style="fill: none; stroke: #d62728; stroke-width: 1.7; stroke-linecap: round"/>
    <defs>
     <path id="mfbf615ae89" d="M 0 1.7 
C 0.450845 1.7 0.883286 1.520877 1.202082 1.202082 
C 1.520877 0.883286 1.7 0.450845 1.7 0 
C 1.7 -0.450845 1.520877 -0.883286 1.202082 -1.202082 
C 0.883286 -1.520877 0.450845 -1.7 0 -1.7 
C -0.450845 -1.7 -0.883286 -1.520877 -1.202082 -1.202082 
C -1.520877 -0.883286 -1.7 -0.450845 -1.7 0 
C -1.7 0.450845 -1.520877 0.883286 -1.202082 1.202082 
C -0.883286 1.520877 -0.450845 1.7 0 1.7 
z
" style="stroke: #d62728"/>
    </defs>
    <g clip-path="url(#p1b31c57513)">
     <use xlink:href="#mfbf615ae89" x="32.023428" y="245.926026" style="fill: #d62728; stroke: #d62728"/>
     <use xlink:href="#mfbf615ae89" x="57.41094" y="184.79003" style="fill: #d62728; stroke: #d62728"/>
     <use xlink:href="#mfbf615ae89" x="82.798452" y="158.729031" style="fill: #d62728; stroke: #d62728"/>
     <use xlink:href="#mfbf615ae89" x="133.573477" y="137.71602" style="fill: #d62728; stroke: #d62728"/>
     <use xlink:href="#mfbf615ae89" x="184.348502" y="123.916834" style="fill: #d62728; stroke: #d62728"/>
     <use xlink:href="#mfbf615ae89" x="235.123527" y="119.251722" style="fill: #d62728; stroke: #d62728"/>
     <use xlink:href="#mfbf615ae89" x="285.898552" y="118.004718" style="fill: #d62728; stroke: #d62728"/>
    </g>
   </g>
   <g id="line2d_29">
    <path d="M 32.023428 246.299072 
L 57.41094 188.692643 
L 82.798452 163.342215 
L 133.573477 143.144674 
L 184.348502 129.627596 
L 235.123527 125.215772 
L 285.898552 124.15256 
" clip-path="url(#p1b31c57513)" style="fill: none; stroke: #9467bd; stroke-width: 1.7; stroke-linecap: round"/>
    <defs>
     <path id="m0da20d8c35" d="M 0 1.7 
C 0.450845 1.7 0.883286 1.520877 1.202082 1.202082 
C 1.520877 0.883286 1.7 0.450845 1.7 0 
C 1.7 -0.450845 1.520877 -0.883286 1.202082 -1.202082 
C 0.883286 -1.520877 0.450845 -1.7 0 -1.7 
C -0.450845 -1.7 -0.883286 -1.520877 -1.202082 -1.202082 
C -1.520877 -0.883286 -1.7 -0.450845 -1.7 0 
C -1.7 0.450845 -1.520877 0.883286 -1.202082 1.202082 
C -0.883286 1.520877 -0.450845 1.7 0 1.7 
z
" style="stroke: #9467bd"/>
    </defs>
    <g clip-path="url(#p1b31c57513)">
     <use xlink:href="#m0da20d8c35" x="32.023428" y="246.299072" style="fill: #9467bd; stroke: #9467bd"/>
     <use xlink:href="#m0da20d8c35" x="57.41094" y="188.692643" style="fill: #9467bd; stroke: #9467bd"/>
     <use xlink:href="#m0da20d8c35" x="82.798452" y="163.342215" style="fill: #9467bd; stroke: #9467bd"/>
     <use xlink:href="#m0da20d8c35" x="133.573477" y="143.144674" style="fill: #9467bd; stroke: #9467bd"/>
     <use xlink:href="#m0da20d8c35" x="184.348502" y="129.627596" style="fill: #9467bd; stroke: #9467bd"/>
     <use xlink:href="#m0da20d8c35" x="235.123527" y="125.215772" style="fill: #9467bd; stroke: #9467bd"/>
     <use xlink:href="#m0da20d8c35" x="285.898552" y="124.15256" style="fill: #9467bd; stroke: #9467bd"/>
    </g>
   </g>
   <g id="line2d_30">
    <path d="M 32.023428 246.299072 
L 285.898552 246.299072 
" clip-path="url(#p1b31c57513)" style="fill: none; stroke-dasharray: 0.9,1.485; stroke-dashoffset: 0; stroke: #555555; stroke-width: 0.9"/>
   </g>
   <g id="patch_3">
    <path d="M 32.023428 246.299072 
L 32.023428 34.296158 
" style="fill: none; stroke: #cccccc; stroke-width: 0.8; stroke-linejoin: miter; stroke-linecap: square"/>
   </g>
   <g id="patch_4">
    <path d="M 285.898552 246.299072 
L 285.898552 34.296158 
" style="fill: none; stroke: #cccccc; stroke-width: 0.8; stroke-linejoin: miter; stroke-linecap: square"/>
   </g>
   <g id="patch_5">
    <path d="M 32.023428 246.299072 
L 285.898552 246.299072 
" style="fill: none; stroke: #cccccc; stroke-width: 0.8; stroke-linejoin: miter; stroke-linecap: square"/>
   </g>
   <g id="patch_6">
    <path d="M 32.023428 34.296158 
L 285.898552 34.296158 
" style="fill: none; stroke: #cccccc; stroke-width: 0.8; stroke-linejoin: miter; stroke-linecap: square"/>
   </g>
   <g id="text_15">
    <text style="font-size: 9.6px; font-family: 'DejaVu Sans'; text-anchor: middle; fill: #262626" x="158.96099" y="28.296158" transform="rotate(-0 158.96099 28.296158)">30 deg/s</text>
   </g>
  </g>
  <g id="axes_2">
   <g id="patch_7">
    <path d="M 315.756532 246.299072 
L 569.631656 246.299072 
L 569.631656 34.296158 
L 315.756532 34.296158 
z
" style="fill: #ffffff"/>
   </g>
   <g id="matplotlib.axis_3">
    <g id="xtick_8">
     <g id="line2d_31">
      <path d="M 315.756532 246.299072 
L 315.756532 34.296158 
" clip-path="url(#pe45f737201)" style="fill: none; stroke: #cccccc; stroke-width: 0.55; stroke-linecap: round"/>
     </g>
     <g id="line2d_32"/>
     <g id="text_16">
      <text style="font-size: 8px; font-family: 'DejaVu Sans'; text-anchor: middle; fill: #262626" x="315.756532" y="255.877197" transform="rotate(-0 315.756532 255.877197)">0</text>
     </g>
    </g>
    <g id="xtick_9">
     <g id="line2d_33">
      <path d="M 341.144044 246.299072 
L 341.144044 34.296158 
" clip-path="url(#pe45f737201)" style="fill: none; stroke: #cccccc; stroke-width: 0.55; stroke-linecap: round"/>
     </g>
     <g id="line2d_34"/>
     <g id="text_17">
      <text style="font-size: 8px; font-family: 'DejaVu Sans'; text-anchor: middle; fill: #262626" x="341.144044" y="255.877197" transform="rotate(-0 341.144044 255.877197)">20</text>
     </g>
    </g>
    <g id="xtick_10">
     <g id="line2d_35">
      <path d="M 366.531557 246.299072 
L 366.531557 34.296158 
" clip-path="url(#pe45f737201)" style="fill: none; stroke: #cccccc; stroke-width: 0.55; stroke-linecap: round"/>
     </g>
     <g id="line2d_36"/>
     <g id="text_18">
      <text style="font-size: 8px; font-family: 'DejaVu Sans'; text-anchor: middle; fill: #262626" x="366.531557" y="255.877197" transform="rotate(-0 366.531557 255.877197)">40</text>
     </g>
    </g>
    <g id="xtick_11">
     <g id="line2d_37">
      <path d="M 417.306581 246.299072 
L 417.306581 34.296158 
" clip-path="url(#pe45f737201)" style="fill: none; stroke: #cccccc; stroke-width: 0.55; stroke-linecap: round"/>
     </g>
     <g id="line2d_38"/>
     <g id="text_19">
      <text style="font-size: 8px; font-family: 'DejaVu Sans'; text-anchor: middle; fill: #262626" x="417.306581" y="255.877197" transform="rotate(-0 417.306581 255.877197)">80</text>
     </g>
    </g>
    <g id="xtick_12">
     <g id="line2d_39">
      <path d="M 468.081606 246.299072 
L 468.081606 34.296158 
" clip-path="url(#pe45f737201)" style="fill: none; stroke: #cccccc; stroke-width: 0.55; stroke-linecap: round"/>
     </g>
     <g id="line2d_40"/>
     <g id="text_20">
      <text style="font-size: 8px; font-family: 'DejaVu Sans'; text-anchor: middle; fill: #262626" x="468.081606" y="255.877197" transform="rotate(-0 468.081606 255.877197)">120</text>
     </g>
    </g>
    <g id="xtick_13">
     <g id="line2d_41">
      <path d="M 518.856631 246.299072 
L 518.856631 34.296158 
" clip-path="url(#pe45f737201)" style="fill: none; stroke: #cccccc; stroke-width: 0.55; stroke-linecap: round"/>
     </g>
     <g id="line2d_42"/>
     <g id="text_21">
      <text style="font-size: 8px; font-family: 'DejaVu Sans'; text-anchor: middle; fill: #262626" x="518.856631" y="255.877197" transform="rotate(-0 518.856631 255.877197)">160</text>
     </g>
    </g>
    <g id="xtick_14">
     <g id="line2d_43">
      <path d="M 569.631656 246.299072 
L 569.631656 34.296158 
" clip-path="url(#pe45f737201)" style="fill: none; stroke: #cccccc; stroke-width: 0.55; stroke-linecap: round"/>
     </g>
     <g id="line2d_44"/>
     <g id="text_22">
      <text style="font-size: 8px; font-family: 'DejaVu Sans'; text-anchor: middle; fill: #262626" x="569.631656" y="255.877197" transform="rotate(-0 569.631656 255.877197)">200</text>
     </g>
    </g>
    <g id="text_23">
     <text style="font-size: 8.8px; font-family: 'DejaVu Sans'; text-anchor: middle; fill: #262626" x="442.694094" y="268.485697" transform="rotate(-0 442.694094 268.485697)">source-estimate delay (ms)</text>
    </g>
   </g>
   <g id="matplotlib.axis_4">
    <g id="ytick_6">
     <g id="line2d_45">
      <path d="M 315.756532 246.299072 
L 569.631656 246.299072 
" clip-path="url(#pe45f737201)" style="fill: none; stroke: #cccccc; stroke-width: 0.55; stroke-linecap: round"/>
     </g>
     <g id="line2d_46"/>
     <g id="text_24">
      <text style="font-size: 8px; font-family: 'DejaVu Sans'; text-anchor: end; fill: #262626" x="312.256532" y="249.338135" transform="rotate(-0 312.256532 249.338135)">0.0</text>
     </g>
    </g>
    <g id="ytick_7">
     <g id="line2d_47">
      <path d="M 315.756532 199.379336 
L 569.631656 199.379336 
" clip-path="url(#pe45f737201)" style="fill: none; stroke: #cccccc; stroke-width: 0.55; stroke-linecap: round"/>
     </g>
     <g id="line2d_48"/>
     <g id="text_25">
      <text style="font-size: 8px; font-family: 'DejaVu Sans'; text-anchor: end; fill: #262626" x="312.256532" y="202.418399" transform="rotate(-0 312.256532 202.418399)">0.2</text>
     </g>
    </g>
    <g id="ytick_8">
     <g id="line2d_49">
      <path d="M 315.756532 152.4596 
L 569.631656 152.4596 
" clip-path="url(#pe45f737201)" style="fill: none; stroke: #cccccc; stroke-width: 0.55; stroke-linecap: round"/>
     </g>
     <g id="line2d_50"/>
     <g id="text_26">
      <text style="font-size: 8px; font-family: 'DejaVu Sans'; text-anchor: end; fill: #262626" x="312.256532" y="155.498662" transform="rotate(-0 312.256532 155.498662)">0.4</text>
     </g>
    </g>
    <g id="ytick_9">
     <g id="line2d_51">
      <path d="M 315.756532 105.539863 
L 569.631656 105.539863 
" clip-path="url(#pe45f737201)" style="fill: none; stroke: #cccccc; stroke-width: 0.55; stroke-linecap: round"/>
     </g>
     <g id="line2d_52"/>
     <g id="text_27">
      <text style="font-size: 8px; font-family: 'DejaVu Sans'; text-anchor: end; fill: #262626" x="312.256532" y="108.578926" transform="rotate(-0 312.256532 108.578926)">0.6</text>
     </g>
    </g>
    <g id="ytick_10">
     <g id="line2d_53">
      <path d="M 315.756532 58.620127 
L 569.631656 58.620127 
" clip-path="url(#pe45f737201)" style="fill: none; stroke: #cccccc; stroke-width: 0.55; stroke-linecap: round"/>
     </g>
     <g id="line2d_54"/>
     <g id="text_28">
      <text style="font-size: 8px; font-family: 'DejaVu Sans'; text-anchor: end; fill: #262626" x="312.256532" y="61.659189" transform="rotate(-0 312.256532 61.659189)">0.8</text>
     </g>
    </g>
   </g>
   <g id="line2d_55">
    <path d="M 315.756532 225.888337 
L 341.144044 147.192124 
L 366.531557 111.149294 
L 417.306581 80.104202 
L 468.081606 62.561215 
L 518.856631 58.04269 
L 569.631656 58.558831 
" clip-path="url(#pe45f737201)" style="fill: none; stroke: #1f77b4; stroke-width: 1.7; stroke-linecap: round"/>
    <g clip-path="url(#pe45f737201)">
     <use xlink:href="#m5f55cd2f1d" x="315.756532" y="225.888337" style="fill: #1f77b4; stroke: #1f77b4"/>
     <use xlink:href="#m5f55cd2f1d" x="341.144044" y="147.192124" style="fill: #1f77b4; stroke: #1f77b4"/>
     <use xlink:href="#m5f55cd2f1d" x="366.531557" y="111.149294" style="fill: #1f77b4; stroke: #1f77b4"/>
     <use xlink:href="#m5f55cd2f1d" x="417.306581" y="80.104202" style="fill: #1f77b4; stroke: #1f77b4"/>
     <use xlink:href="#m5f55cd2f1d" x="468.081606" y="62.561215" style="fill: #1f77b4; stroke: #1f77b4"/>
     <use xlink:href="#m5f55cd2f1d" x="518.856631" y="58.04269" style="fill: #1f77b4; stroke: #1f77b4"/>
     <use xlink:href="#m5f55cd2f1d" x="569.631656" y="58.558831" style="fill: #1f77b4; stroke: #1f77b4"/>
    </g>
   </g>
   <g id="line2d_56">
    <path d="M 315.756532 236.579958 
L 341.144044 160.969825 
L 366.531557 127.711363 
L 417.306581 99.448393 
L 468.081606 82.453552 
L 518.856631 77.296105 
L 569.631656 78.048769 
" clip-path="url(#pe45f737201)" style="fill: none; stroke: #ff7f0e; stroke-width: 1.7; stroke-linecap: round"/>
    <g clip-path="url(#pe45f737201)">
     <use xlink:href="#m77978d0ff8" x="315.756532" y="236.579958" style="fill: #ff7f0e; stroke: #ff7f0e"/>
     <use xlink:href="#m77978d0ff8" x="341.144044" y="160.969825" style="fill: #ff7f0e; stroke: #ff7f0e"/>
     <use xlink:href="#m77978d0ff8" x="366.531557" y="127.711363" style="fill: #ff7f0e; stroke: #ff7f0e"/>
     <use xlink:href="#m77978d0ff8" x="417.306581" y="99.448393" style="fill: #ff7f0e; stroke: #ff7f0e"/>
     <use xlink:href="#m77978d0ff8" x="468.081606" y="82.453552" style="fill: #ff7f0e; stroke: #ff7f0e"/>
     <use xlink:href="#m77978d0ff8" x="518.856631" y="77.296105" style="fill: #ff7f0e; stroke: #ff7f0e"/>
     <use xlink:href="#m77978d0ff8" x="569.631656" y="78.048769" style="fill: #ff7f0e; stroke: #ff7f0e"/>
    </g>
   </g>
   <g id="line2d_57">
    <path d="M 315.756532 242.255219 
L 341.144044 171.315991 
L 366.531557 140.653716 
L 417.306581 115.192773 
L 468.081606 99.213533 
L 518.856631 93.64122 
L 569.631656 94.2979 
" clip-path="url(#pe45f737201)" style="fill: none; stroke: #2ca02c; stroke-width: 1.7; stroke-linecap: round"/>
    <g clip-path="url(#pe45f737201)">
     <use xlink:href="#m0069b41267" x="315.756532" y="242.255219" style="fill: #2ca02c; stroke: #2ca02c"/>
     <use xlink:href="#m0069b41267" x="341.144044" y="171.315991" style="fill: #2ca02c; stroke: #2ca02c"/>
     <use xlink:href="#m0069b41267" x="366.531557" y="140.653716" style="fill: #2ca02c; stroke: #2ca02c"/>
     <use xlink:href="#m0069b41267" x="417.306581" y="115.192773" style="fill: #2ca02c; stroke: #2ca02c"/>
     <use xlink:href="#m0069b41267" x="468.081606" y="99.213533" style="fill: #2ca02c; stroke: #2ca02c"/>
     <use xlink:href="#m0069b41267" x="518.856631" y="93.64122" style="fill: #2ca02c; stroke: #2ca02c"/>
     <use xlink:href="#m0069b41267" x="569.631656" y="94.2979" style="fill: #2ca02c; stroke: #2ca02c"/>
    </g>
   </g>
   <g id="line2d_58">
    <path d="M 315.756532 245.766316 
L 341.144044 180.922615 
L 366.531557 151.671988 
L 417.306581 128.141765 
L 468.081606 113.344815 
L 518.856631 107.714285 
L 569.631656 108.373984 
" clip-path="url(#pe45f737201)" style="fill: none; stroke: #d62728; stroke-width: 1.7; stroke-linecap: round"/>
    <g clip-path="url(#pe45f737201)">
     <use xlink:href="#mfbf615ae89" x="315.756532" y="245.766316" style="fill: #d62728; stroke: #d62728"/>
     <use xlink:href="#mfbf615ae89" x="341.144044" y="180.922615" style="fill: #d62728; stroke: #d62728"/>
     <use xlink:href="#mfbf615ae89" x="366.531557" y="151.671988" style="fill: #d62728; stroke: #d62728"/>
     <use xlink:href="#mfbf615ae89" x="417.306581" y="128.141765" style="fill: #d62728; stroke: #d62728"/>
     <use xlink:href="#mfbf615ae89" x="468.081606" y="113.344815" style="fill: #d62728; stroke: #d62728"/>
     <use xlink:href="#mfbf615ae89" x="518.856631" y="107.714285" style="fill: #d62728; stroke: #d62728"/>
     <use xlink:href="#mfbf615ae89" x="569.631656" y="108.373984" style="fill: #d62728; stroke: #d62728"/>
    </g>
   </g>
   <g id="line2d_59">
    <path d="M 315.756532 246.299072 
L 341.144044 183.858088 
L 366.531557 154.955774 
L 417.306581 131.821476 
L 468.081606 117.449957 
L 518.856631 111.992383 
L 569.631656 112.749528 
" clip-path="url(#pe45f737201)" style="fill: none; stroke: #9467bd; stroke-width: 1.7; stroke-linecap: round"/>
    <g clip-path="url(#pe45f737201)">
     <use xlink:href="#m0da20d8c35" x="315.756532" y="246.299072" style="fill: #9467bd; stroke: #9467bd"/>
     <use xlink:href="#m0da20d8c35" x="341.144044" y="183.858088" style="fill: #9467bd; stroke: #9467bd"/>
     <use xlink:href="#m0da20d8c35" x="366.531557" y="154.955774" style="fill: #9467bd; stroke: #9467bd"/>
     <use xlink:href="#m0da20d8c35" x="417.306581" y="131.821476" style="fill: #9467bd; stroke: #9467bd"/>
     <use xlink:href="#m0da20d8c35" x="468.081606" y="117.449957" style="fill: #9467bd; stroke: #9467bd"/>
     <use xlink:href="#m0da20d8c35" x="518.856631" y="111.992383" style="fill: #9467bd; stroke: #9467bd"/>
     <use xlink:href="#m0da20d8c35" x="569.631656" y="112.749528" style="fill: #9467bd; stroke: #9467bd"/>
    </g>
   </g>
   <g id="line2d_60">
    <path d="M 315.756532 246.299072 
L 569.631656 246.299072 
" clip-path="url(#pe45f737201)" style="fill: none; stroke-dasharray: 0.9,1.485; stroke-dashoffset: 0; stroke: #555555; stroke-width: 0.9"/>
   </g>
   <g id="patch_8">
    <path d="M 315.756532 246.299072 
L 315.756532 34.296158 
" style="fill: none; stroke: #cccccc; stroke-width: 0.8; stroke-linejoin: miter; stroke-linecap: square"/>
   </g>
   <g id="patch_9">
    <path d="M 569.631656 246.299072 
L 569.631656 34.296158 
" style="fill: none; stroke: #cccccc; stroke-width: 0.8; stroke-linejoin: miter; stroke-linecap: square"/>
   </g>
   <g id="patch_10">
    <path d="M 315.756532 246.299072 
L 569.631656 246.299072 
" style="fill: none; stroke: #cccccc; stroke-width: 0.8; stroke-linejoin: miter; stroke-linecap: square"/>
   </g>
   <g id="patch_11">
    <path d="M 315.756532 34.296158 
L 569.631656 34.296158 
" style="fill: none; stroke: #cccccc; stroke-width: 0.8; stroke-linejoin: miter; stroke-linecap: square"/>
   </g>
   <g id="text_29">
    <text style="font-size: 9.6px; font-family: 'DejaVu Sans'; text-anchor: middle; fill: #262626" x="442.694094" y="28.296158" transform="rotate(-0 442.694094 28.296158)">60 deg/s</text>
   </g>
  </g>
  <g id="axes_3">
   <g id="patch_12">
    <path d="M 599.489636 246.299072 
L 853.36476 246.299072 
L 853.36476 34.296158 
L 599.489636 34.296158 
z
" style="fill: #ffffff"/>
   </g>
   <g id="matplotlib.axis_5">
    <g id="xtick_15">
     <g id="line2d_61">
      <path d="M 599.489636 246.299072 
L 599.489636 34.296158 
" clip-path="url(#pe7fbdcb0fd)" style="fill: none; stroke: #cccccc; stroke-width: 0.55; stroke-linecap: round"/>
     </g>
     <g id="line2d_62"/>
     <g id="text_30">
      <text style="font-size: 8px; font-family: 'DejaVu Sans'; text-anchor: middle; fill: #262626" x="599.489636" y="255.877197" transform="rotate(-0 599.489636 255.877197)">0</text>
     </g>
    </g>
    <g id="xtick_16">
     <g id="line2d_63">
      <path d="M 624.877148 246.299072 
L 624.877148 34.296158 
" clip-path="url(#pe7fbdcb0fd)" style="fill: none; stroke: #cccccc; stroke-width: 0.55; stroke-linecap: round"/>
     </g>
     <g id="line2d_64"/>
     <g id="text_31">
      <text style="font-size: 8px; font-family: 'DejaVu Sans'; text-anchor: middle; fill: #262626" x="624.877148" y="255.877197" transform="rotate(-0 624.877148 255.877197)">20</text>
     </g>
    </g>
    <g id="xtick_17">
     <g id="line2d_65">
      <path d="M 650.264661 246.299072 
L 650.264661 34.296158 
" clip-path="url(#pe7fbdcb0fd)" style="fill: none; stroke: #cccccc; stroke-width: 0.55; stroke-linecap: round"/>
     </g>
     <g id="line2d_66"/>
     <g id="text_32">
      <text style="font-size: 8px; font-family: 'DejaVu Sans'; text-anchor: middle; fill: #262626" x="650.264661" y="255.877197" transform="rotate(-0 650.264661 255.877197)">40</text>
     </g>
    </g>
    <g id="xtick_18">
     <g id="line2d_67">
      <path d="M 701.039686 246.299072 
L 701.039686 34.296158 
" clip-path="url(#pe7fbdcb0fd)" style="fill: none; stroke: #cccccc; stroke-width: 0.55; stroke-linecap: round"/>
     </g>
     <g id="line2d_68"/>
     <g id="text_33">
      <text style="font-size: 8px; font-family: 'DejaVu Sans'; text-anchor: middle; fill: #262626" x="701.039686" y="255.877197" transform="rotate(-0 701.039686 255.877197)">80</text>
     </g>
    </g>
    <g id="xtick_19">
     <g id="line2d_69">
      <path d="M 751.81471 246.299072 
L 751.81471 34.296158 
" clip-path="url(#pe7fbdcb0fd)" style="fill: none; stroke: #cccccc; stroke-width: 0.55; stroke-linecap: round"/>
     </g>
     <g id="line2d_70"/>
     <g id="text_34">
      <text style="font-size: 8px; font-family: 'DejaVu Sans'; text-anchor: middle; fill: #262626" x="751.81471" y="255.877197" transform="rotate(-0 751.81471 255.877197)">120</text>
     </g>
    </g>
    <g id="xtick_20">
     <g id="line2d_71">
      <path d="M 802.589735 246.299072 
L 802.589735 34.296158 
" clip-path="url(#pe7fbdcb0fd)" style="fill: none; stroke: #cccccc; stroke-width: 0.55; stroke-linecap: round"/>
     </g>
     <g id="line2d_72"/>
     <g id="text_35">
      <text style="font-size: 8px; font-family: 'DejaVu Sans'; text-anchor: middle; fill: #262626" x="802.589735" y="255.877197" transform="rotate(-0 802.589735 255.877197)">160</text>
     </g>
    </g>
    <g id="xtick_21">
     <g id="line2d_73">
      <path d="M 853.36476 246.299072 
L 853.36476 34.296158 
" clip-path="url(#pe7fbdcb0fd)" style="fill: none; stroke: #cccccc; stroke-width: 0.55; stroke-linecap: round"/>
     </g>
     <g id="line2d_74"/>
     <g id="text_36">
      <text style="font-size: 8px; font-family: 'DejaVu Sans'; text-anchor: middle; fill: #262626" x="853.36476" y="255.877197" transform="rotate(-0 853.36476 255.877197)">200</text>
     </g>
    </g>
    <g id="text_37">
     <text style="font-size: 8.8px; font-family: 'DejaVu Sans'; text-anchor: middle; fill: #262626" x="726.427198" y="268.485697" transform="rotate(-0 726.427198 268.485697)">source-estimate delay (ms)</text>
    </g>
   </g>
   <g id="matplotlib.axis_6">
    <g id="ytick_11">
     <g id="line2d_75">
      <path d="M 599.489636 246.299072 
L 853.36476 246.299072 
" clip-path="url(#pe7fbdcb0fd)" style="fill: none; stroke: #cccccc; stroke-width: 0.55; stroke-linecap: round"/>
     </g>
     <g id="line2d_76"/>
     <g id="text_38">
      <text style="font-size: 8px; font-family: 'DejaVu Sans'; text-anchor: end; fill: #262626" x="595.989636" y="249.338135" transform="rotate(-0 595.989636 249.338135)">0.0</text>
     </g>
    </g>
    <g id="ytick_12">
     <g id="line2d_77">
      <path d="M 599.489636 199.379336 
L 853.36476 199.379336 
" clip-path="url(#pe7fbdcb0fd)" style="fill: none; stroke: #cccccc; stroke-width: 0.55; stroke-linecap: round"/>
     </g>
     <g id="line2d_78"/>
     <g id="text_39">
      <text style="font-size: 8px; font-family: 'DejaVu Sans'; text-anchor: end; fill: #262626" x="595.989636" y="202.418399" transform="rotate(-0 595.989636 202.418399)">0.2</text>
     </g>
    </g>
    <g id="ytick_13">
     <g id="line2d_79">
      <path d="M 599.489636 152.4596 
L 853.36476 152.4596 
" clip-path="url(#pe7fbdcb0fd)" style="fill: none; stroke: #cccccc; stroke-width: 0.55; stroke-linecap: round"/>
     </g>
     <g id="line2d_80"/>
     <g id="text_40">
      <text style="font-size: 8px; font-family: 'DejaVu Sans'; text-anchor: end; fill: #262626" x="595.989636" y="155.498662" transform="rotate(-0 595.989636 155.498662)">0.4</text>
     </g>
    </g>
    <g id="ytick_14">
     <g id="line2d_81">
      <path d="M 599.489636 105.539863 
L 853.36476 105.539863 
" clip-path="url(#pe7fbdcb0fd)" style="fill: none; stroke: #cccccc; stroke-width: 0.55; stroke-linecap: round"/>
     </g>
     <g id="line2d_82"/>
     <g id="text_41">
      <text style="font-size: 8px; font-family: 'DejaVu Sans'; text-anchor: end; fill: #262626" x="595.989636" y="108.578926" transform="rotate(-0 595.989636 108.578926)">0.6</text>
     </g>
    </g>
    <g id="ytick_15">
     <g id="line2d_83">
      <path d="M 599.489636 58.620127 
L 853.36476 58.620127 
" clip-path="url(#pe7fbdcb0fd)" style="fill: none; stroke: #cccccc; stroke-width: 0.55; stroke-linecap: round"/>
     </g>
     <g id="line2d_84"/>
     <g id="text_42">
      <text style="font-size: 8px; font-family: 'DejaVu Sans'; text-anchor: end; fill: #262626" x="595.989636" y="61.659189" transform="rotate(-0 595.989636 61.659189)">0.8</text>
     </g>
    </g>
   </g>
   <g id="line2d_85">
    <path d="M 599.489636 224.350436 
L 624.877148 145.040747 
L 650.264661 108.727944 
L 701.039686 77.561362 
L 751.81471 60.848472 
L 802.589735 57.010756 
L 853.36476 58.68023 
" clip-path="url(#pe7fbdcb0fd)" style="fill: none; stroke: #1f77b4; stroke-width: 1.7; stroke-linecap: round"/>
    <g clip-path="url(#pe7fbdcb0fd)">
     <use xlink:href="#m5f55cd2f1d" x="599.489636" y="224.350436" style="fill: #1f77b4; stroke: #1f77b4"/>
     <use xlink:href="#m5f55cd2f1d" x="624.877148" y="145.040747" style="fill: #1f77b4; stroke: #1f77b4"/>
     <use xlink:href="#m5f55cd2f1d" x="650.264661" y="108.727944" style="fill: #1f77b4; stroke: #1f77b4"/>
     <use xlink:href="#m5f55cd2f1d" x="701.039686" y="77.561362" style="fill: #1f77b4; stroke: #1f77b4"/>
     <use xlink:href="#m5f55cd2f1d" x="751.81471" y="60.848472" style="fill: #1f77b4; stroke: #1f77b4"/>
     <use xlink:href="#m5f55cd2f1d" x="802.589735" y="57.010756" style="fill: #1f77b4; stroke: #1f77b4"/>
     <use xlink:href="#m5f55cd2f1d" x="853.36476" y="58.68023" style="fill: #1f77b4; stroke: #1f77b4"/>
    </g>
   </g>
   <g id="line2d_86">
    <path d="M 599.489636 235.860139 
L 624.877148 159.121185 
L 650.264661 125.220218 
L 701.039686 96.188281 
L 751.81471 79.642051 
L 802.589735 75.450246 
L 853.36476 77.459153 
" clip-path="url(#pe7fbdcb0fd)" style="fill: none; stroke: #ff7f0e; stroke-width: 1.7; stroke-linecap: round"/>
    <g clip-path="url(#pe7fbdcb0fd)">
     <use xlink:href="#m77978d0ff8" x="599.489636" y="235.860139" style="fill: #ff7f0e; stroke: #ff7f0e"/>
     <use xlink:href="#m77978d0ff8" x="624.877148" y="159.121185" style="fill: #ff7f0e; stroke: #ff7f0e"/>
     <use xlink:href="#m77978d0ff8" x="650.264661" y="125.220218" style="fill: #ff7f0e; stroke: #ff7f0e"/>
     <use xlink:href="#m77978d0ff8" x="701.039686" y="96.188281" style="fill: #ff7f0e; stroke: #ff7f0e"/>
     <use xlink:href="#m77978d0ff8" x="751.81471" y="79.642051" style="fill: #ff7f0e; stroke: #ff7f0e"/>
     <use xlink:href="#m77978d0ff8" x="802.589735" y="75.450246" style="fill: #ff7f0e; stroke: #ff7f0e"/>
     <use xlink:href="#m77978d0ff8" x="853.36476" y="77.459153" style="fill: #ff7f0e; stroke: #ff7f0e"/>
    </g>
   </g>
   <g id="line2d_87">
    <path d="M 599.489636 241.954605 
L 624.877148 169.536549 
L 650.264661 138.083942 
L 701.039686 111.260921 
L 751.81471 95.304628 
L 802.589735 90.883812 
L 853.36476 92.824149 
" clip-path="url(#pe7fbdcb0fd)" style="fill: none; stroke: #2ca02c; stroke-width: 1.7; stroke-linecap: round"/>
    <g clip-path="url(#pe7fbdcb0fd)">
     <use xlink:href="#m0069b41267" x="599.489636" y="241.954605" style="fill: #2ca02c; stroke: #2ca02c"/>
     <use xlink:href="#m0069b41267" x="624.877148" y="169.536549" style="fill: #2ca02c; stroke: #2ca02c"/>
     <use xlink:href="#m0069b41267" x="650.264661" y="138.083942" style="fill: #2ca02c; stroke: #2ca02c"/>
     <use xlink:href="#m0069b41267" x="701.039686" y="111.260921" style="fill: #2ca02c; stroke: #2ca02c"/>
     <use xlink:href="#m0069b41267" x="751.81471" y="95.304628" style="fill: #2ca02c; stroke: #2ca02c"/>
     <use xlink:href="#m0069b41267" x="802.589735" y="90.883812" style="fill: #2ca02c; stroke: #2ca02c"/>
     <use xlink:href="#m0069b41267" x="853.36476" y="92.824149" style="fill: #2ca02c; stroke: #2ca02c"/>
    </g>
   </g>
   <g id="line2d_88">
    <path d="M 599.489636 245.725517 
L 624.877148 178.801111 
L 650.264661 148.753108 
L 701.039686 123.423942 
L 751.81471 108.131203 
L 802.589735 103.912806 
L 853.36476 105.879173 
" clip-path="url(#pe7fbdcb0fd)" style="fill: none; stroke: #d62728; stroke-width: 1.7; stroke-linecap: round"/>
    <g clip-path="url(#pe7fbdcb0fd)">
     <use xlink:href="#mfbf615ae89" x="599.489636" y="245.725517" style="fill: #d62728; stroke: #d62728"/>
     <use xlink:href="#mfbf615ae89" x="624.877148" y="178.801111" style="fill: #d62728; stroke: #d62728"/>
     <use xlink:href="#mfbf615ae89" x="650.264661" y="148.753108" style="fill: #d62728; stroke: #d62728"/>
     <use xlink:href="#mfbf615ae89" x="701.039686" y="123.423942" style="fill: #d62728; stroke: #d62728"/>
     <use xlink:href="#mfbf615ae89" x="751.81471" y="108.131203" style="fill: #d62728; stroke: #d62728"/>
     <use xlink:href="#mfbf615ae89" x="802.589735" y="103.912806" style="fill: #d62728; stroke: #d62728"/>
     <use xlink:href="#mfbf615ae89" x="853.36476" y="105.879173" style="fill: #d62728; stroke: #d62728"/>
    </g>
   </g>
   <g id="line2d_89">
    <path d="M 599.489636 246.299072 
L 624.877148 181.45691 
L 650.264661 151.714436 
L 701.039686 126.693692 
L 751.81471 111.608618 
L 802.589735 107.609696 
L 853.36476 109.654643 
" clip-path="url(#pe7fbdcb0fd)" style="fill: none; stroke: #9467bd; stroke-width: 1.7; stroke-linecap: round"/>
    <g clip-path="url(#pe7fbdcb0fd)">
     <use xlink:href="#m0da20d8c35" x="599.489636" y="246.299072" style="fill: #9467bd; stroke: #9467bd"/>
     <use xlink:href="#m0da20d8c35" x="624.877148" y="181.45691" style="fill: #9467bd; stroke: #9467bd"/>
     <use xlink:href="#m0da20d8c35" x="650.264661" y="151.714436" style="fill: #9467bd; stroke: #9467bd"/>
     <use xlink:href="#m0da20d8c35" x="701.039686" y="126.693692" style="fill: #9467bd; stroke: #9467bd"/>
     <use xlink:href="#m0da20d8c35" x="751.81471" y="111.608618" style="fill: #9467bd; stroke: #9467bd"/>
     <use xlink:href="#m0da20d8c35" x="802.589735" y="107.609696" style="fill: #9467bd; stroke: #9467bd"/>
     <use xlink:href="#m0da20d8c35" x="853.36476" y="109.654643" style="fill: #9467bd; stroke: #9467bd"/>
    </g>
   </g>
   <g id="line2d_90">
    <path d="M 599.489636 246.299072 
L 853.36476 246.299072 
" clip-path="url(#pe7fbdcb0fd)" style="fill: none; stroke-dasharray: 0.9,1.485; stroke-dashoffset: 0; stroke: #555555; stroke-width: 0.9"/>
   </g>
   <g id="patch_13">
    <path d="M 599.489636 246.299072 
L 599.489636 34.296158 
" style="fill: none; stroke: #cccccc; stroke-width: 0.8; stroke-linejoin: miter; stroke-linecap: square"/>
   </g>
   <g id="patch_14">
    <path d="M 853.36476 246.299072 
L 853.36476 34.296158 
" style="fill: none; stroke: #cccccc; stroke-width: 0.8; stroke-linejoin: miter; stroke-linecap: square"/>
   </g>
   <g id="patch_15">
    <path d="M 599.489636 246.299072 
L 853.36476 246.299072 
" style="fill: none; stroke: #cccccc; stroke-width: 0.8; stroke-linejoin: miter; stroke-linecap: square"/>
   </g>
   <g id="patch_16">
    <path d="M 599.489636 34.296158 
L 853.36476 34.296158 
" style="fill: none; stroke: #cccccc; stroke-width: 0.8; stroke-linejoin: miter; stroke-linecap: square"/>
   </g>
   <g id="text_43">
    <text style="font-size: 9.6px; font-family: 'DejaVu Sans'; text-anchor: middle; fill: #262626" x="726.427198" y="28.296158" transform="rotate(-0 726.427198 28.296158)">120 deg/s</text>
   </g>
   <g id="legend_1">
    <g id="text_44">
     <text style="font-size: 7.8px; font-family: 'DejaVu Sans'; text-anchor: start; fill: #262626" x="770.821635" y="177.222119" transform="rotate(-0 770.821635 177.222119)">separator SDR (dB)</text>
    </g>
    <g id="line2d_91">
     <path d="M 792.203197 186.374697 
L 800.203197 186.374697 
L 808.203197 186.374697 
" style="fill: none; stroke: #1f77b4; stroke-width: 1.7; stroke-linecap: round"/>
     <g>
      <use xlink:href="#m5f55cd2f1d" x="800.203197" y="186.374697" style="fill: #1f77b4; stroke: #1f77b4"/>
     </g>
    </g>
    <g id="text_45">
     <text style="font-size: 8px; font-family: 'DejaVu Sans'; text-anchor: start; fill: #262626" x="814.603197" y="189.174697" transform="rotate(-0 814.603197 189.174697)">0</text>
    </g>
    <g id="line2d_92">
     <path d="M 792.203197 198.375322 
L 800.203197 198.375322 
L 808.203197 198.375322 
" style="fill: none; stroke: #ff7f0e; stroke-width: 1.7; stroke-linecap: round"/>
     <g>
      <use xlink:href="#m77978d0ff8" x="800.203197" y="198.375322" style="fill: #ff7f0e; stroke: #ff7f0e"/>
     </g>
    </g>
    <g id="text_46">
     <text style="font-size: 8px; font-family: 'DejaVu Sans'; text-anchor: start; fill: #262626" x="814.603197" y="201.175322" transform="rotate(-0 814.603197 201.175322)">5</text>
    </g>
    <g id="line2d_93">
     <path d="M 792.203197 210.375947 
L 800.203197 210.375947 
L 808.203197 210.375947 
" style="fill: none; stroke: #2ca02c; stroke-width: 1.7; stroke-linecap: round"/>
     <g>
      <use xlink:href="#m0069b41267" x="800.203197" y="210.375947" style="fill: #2ca02c; stroke: #2ca02c"/>
     </g>
    </g>
    <g id="text_47">
     <text style="font-size: 8px; font-family: 'DejaVu Sans'; text-anchor: start; fill: #262626" x="814.603197" y="213.175947" transform="rotate(-0 814.603197 213.175947)">10</text>
    </g>
    <g id="line2d_94">
     <path d="M 792.203197 222.376572 
L 800.203197 222.376572 
L 808.203197 222.376572 
" style="fill: none; stroke: #d62728; stroke-width: 1.7; stroke-linecap: round"/>
     <g>
      <use xlink:href="#mfbf615ae89" x="800.203197" y="222.376572" style="fill: #d62728; stroke: #d62728"/>
     </g>
    </g>
    <g id="text_48">
     <text style="font-size: 8px; font-family: 'DejaVu Sans'; text-anchor: start; fill: #262626" x="814.603197" y="225.176572" transform="rotate(-0 814.603197 225.176572)">20</text>
    </g>
    <g id="line2d_95">
     <path d="M 792.203197 234.377197 
L 800.203197 234.377197 
L 808.203197 234.377197 
" style="fill: none; stroke: #9467bd; stroke-width: 1.7; stroke-linecap: round"/>
     <g>
      <use xlink:href="#m0da20d8c35" x="800.203197" y="234.377197" style="fill: #9467bd; stroke: #9467bd"/>
     </g>
    </g>
    <g id="text_49">
     <text style="font-size: 8px; font-family: 'DejaVu Sans'; text-anchor: start; fill: #262626" x="814.603197" y="237.177197" transform="rotate(-0 814.603197 237.177197)">inf</text>
    </g>
   </g>
  </g>
  <g id="text_50">
   <text style="font-size: 12px; font-family: 'DejaVu Sans'; text-anchor: middle; fill: #262626" x="432" y="12.118365" transform="rotate(-0 432 12.118365)">STOI degradation vs ideal source-overlay output, sigma=30 deg</text>
  </g>
 </g>
 <defs>
  <clipPath id="p1b31c57513">
   <rect x="32.023428" y="34.296158" width="253.875124" height="212.002915"/>
  </clipPath>
  <clipPath id="pe45f737201">
   <rect x="315.756532" y="34.296158" width="253.875124" height="212.002915"/>
  </clipPath>
  <clipPath id="pe7fbdcb0fd">
   <rect x="599.489636" y="34.296158" width="253.875124" height="212.002915"/>
  </clipPath>
 </defs>
</svg>
