<?xml version="1.0" encoding="utf-8" standalone="no"?>
<!DOCTYPE svg PUBLIC "-//W3C//DTD SVG 1.1//EN"
  "http://www.w3.org/Graphics/SVG/1.1/DTD/svg11.dtd">
<svg xmlns:xlink="http://www.w3.org/1999/xlink" width="864pt" height="288pt" viewBox="0 0 864 288" xmlns="http://www.w3.org/2000/svg" version="1.1">
 <metadata>
  <rdf:RDF xmlns:dc="http://purl.org/dc/elements/1.1/" xmlns:cc="http://creativecommons.org/ns#" xmlns:rdf="http://www.w3.org/1999/02/22-rdf-syntax-ns#">
   <cc:Work>
    <dc:type rdf:resource="http://purl.org/dc/dcmitype/StillImage"/>
    <dc:date>2026-07-21T17:38:06.469530</dc:date>
    <dc:format>image/svg+xml</dc:format>
    <dc:creator>
     <cc:Agent>
      <dc:title>Matplotlib v3.11.0, https://matplotlib.org/</dc:title>
     </cc:Agent>
    </dc:creator>
   </cc:Work>
  </rdf:RDF>
 </metadata>
 <defs>
  <style type="text/css">*{stroke-linejoin: round; stroke-linecap: butt}</style>
 </defs>
 <g id="figure_1">
  <g id="patch_1">
   <path d="M 0 288 
L 864 288 
L 864 0 
L 0 0 
z
" style="fill: #ffffff"/>
  </g>
  <g id="axes_1">
   <g id="patch_2">
    <path d="M 32.023428 260.698447 
L 293.533552 260.698447 
L 293.533552 34.296157 
L 32.023428 34.296157 
z
" style="fill: #ffffff"/>
   </g>
   <g id="matplotlib.axis_1">
    <g id="xtick_1">
     <g id="line2d_1">
      <path d="M 43.910251 260.698447 
L 43.910251 34.296157 
" clip-path="url(#pcb28af7d4a)" style="fill: none; stroke: #cccccc; stroke-width: 0.55; stroke-linecap: round"/>
     </g>
     <g id="line2d_2"/>
     <g id="text_1">
      <text style="font-size: 8px; font-family: 'DejaVu Sans'; text-anchor: middle; fill: #262626" x="43.910251" y="270.276572" transform="rotate(-0 43.910251 270.276572)">0</text>
     </g>
    </g>
    <g id="xtick_2">
     <g id="line2d_3">
      <path d="M 103.34437 260.698447 
L 103.34437 34.296157 
" clip-path="url(#pcb28af7d4a)" style="fill: none; stroke: #cccccc; stroke-width: 0.55; stroke-linecap: round"/>
     </g>
     <g id="line2d_4"/>
     <g id="text_2">
      <text style="font-size: 8px; font-family: 'DejaVu Sans'; text-anchor: middle; fill: #262626" x="103.34437" y="270.276572" transform="rotate(-0 103.34437 270.276572)">5</text>
     </g>
    </g>
    <g id="xtick_3">
     <g id="line2d_5">
      <path d="M 162.77849 260.698447 
L 162.77849 34.296157 
" clip-path="url(#pcb28af7d4a)" style="fill: none; stroke: #cccccc; stroke-width: 0.55; stroke-linecap: round"/>
     </g>
     <g id="line2d_6"/>
     <g id="text_3">
      <text style="font-size: 8px; font-family: 'DejaVu Sans'; text-anchor: middle; fill: #262626" x="162.77849" y="270.276572" transform="rotate(-0 162.77849 270.276572)">10</text>
     </g>
    </g>
    <g id="xtick_4">
     <g id="line2d_7">
      <path d="M 222.212609 260.698447 
L 222.212609 34.296157 
" clip-path="url(#pcb28af7d4a)" style="fill: none; stroke: #cccccc; stroke-width: 0.55; stroke-linecap: round"/>
     </g>
     <g id="line2d_8"/>
     <g id="text_4">
      <text style="font-size: 8px; font-family: 'DejaVu Sans'; text-anchor: middle; fill: #262626" x="222.212609" y="270.276572" transform="rotate(-0 222.212609 270.276572)">20</text>
     </g>
    </g>
    <g id="xtick_5">
     <g id="line2d_9">
      <path d="M 281.646728 260.698447 
L 281.646728 34.296157 
" clip-path="url(#pcb28af7d4a)" style="fill: none; stroke: #cccccc; stroke-width: 0.55; stroke-linecap: round"/>
     </g>
     <g id="line2d_10"/>
     <g id="text_5">
      <text style="font-size: 8px; font-family: 'DejaVu Sans'; text-anchor: middle; fill: #262626" x="281.646728" y="270.277197" transform="rotate(-0 281.646728 270.277197)">inf</text>
     </g>
    </g>
    <g id="text_6">
     <text style="font-size: 8.8px; font-family: 'DejaVu Sans'; text-anchor: middle; fill: #262626" x="162.77849" y="282.885697" transform="rotate(-0 162.77849 282.885697)">separator SDR (dB)</text>
    </g>
   </g>
   <g id="matplotlib.axis_2">
    <g id="ytick_1">
     <g id="line2d_11">
      <path d="M 32.023428 260.698447 
L 293.533552 260.698447 
" clip-path="url(#pcb28af7d4a)" style="fill: none; stroke: #cccccc; stroke-width: 0.55; stroke-linecap: round"/>
     </g>
     <g id="line2d_12"/>
     <g id="text_7">
      <text style="font-size: 8px; font-family: 'DejaVu Sans'; text-anchor: end; fill: #262626" x="28.523428" y="263.73751" transform="rotate(-0 28.523428 263.73751)">0.0</text>
     </g>
    </g>
    <g id="ytick_2">
     <g id="line2d_13">
      <path d="M 32.023428 217.574202 
L 293.533552 217.574202 
" clip-path="url(#pcb28af7d4a)" style="fill: none; stroke: #cccccc; stroke-width: 0.55; stroke-linecap: round"/>
     </g>
     <g id="line2d_14"/>
     <g id="text_8">
      <text style="font-size: 8px; font-family: 'DejaVu Sans'; text-anchor: end; fill: #262626" x="28.523428" y="220.613264" transform="rotate(-0 28.523428 220.613264)">0.2</text>
     </g>
    </g>
    <g id="ytick_3">
     <g id="line2d_15">
      <path d="M 32.023428 174.449956 
L 293.533552 174.449956 
" clip-path="url(#pcb28af7d4a)" style="fill: none; stroke: #cccccc; stroke-width: 0.55; stroke-linecap: round"/>
     </g>
     <g id="line2d_16"/>
     <g id="text_9">
      <text style="font-size: 8px; font-family: 'DejaVu Sans'; text-anchor: end; fill: #262626" x="28.523428" y="177.489019" transform="rotate(-0 28.523428 177.489019)">0.4</text>
     </g>
    </g>
    <g id="ytick_4">
     <g id="line2d_17">
      <path d="M 32.023428 131.32571 
L 293.533552 131.32571 
" clip-path="url(#pcb28af7d4a)" style="fill: none; stroke: #cccccc; stroke-width: 0.55; stroke-linecap: round"/>
     </g>
     <g id="line2d_18"/>
     <g id="text_10">
      <text style="font-size: 8px; font-family: 'DejaVu Sans'; text-anchor: end; fill: #262626" x="28.523428" y="134.364773" transform="rotate(-0 28.523428 134.364773)">0.6</text>
     </g>
    </g>
    <g id="ytick_5">
     <g id="line2d_19">
      <path d="M 32.023428 88.201465 
L 293.533552 88.201465 
" clip-path="url(#pcb28af7d4a)" style="fill: none; stroke: #cccccc; stroke-width: 0.55; stroke-linecap: round"/>
     </g>
     <g id="line2d_20"/>
     <g id="text_11">
      <text style="font-size: 8px; font-family: 'DejaVu Sans'; text-anchor: end; fill: #262626" x="28.523428" y="91.240527" transform="rotate(-0 28.523428 91.240527)">0.8</text>
     </g>
    </g>
    <g id="ytick_6">
     <g id="line2d_21">
      <path d="M 32.023428 45.077219 
L 293.533552 45.077219 
" clip-path="url(#pcb28af7d4a)" style="fill: none; stroke: #cccccc; stroke-width: 0.55; stroke-linecap: round"/>
     </g>
     <g id="line2d_22"/>
     <g id="text_12">
      <text style="font-size: 8px; font-family: 'DejaVu Sans'; text-anchor: end; fill: #262626" x="28.523428" y="48.116281" transform="rotate(-0 28.523428 48.116281)">1.0</text>
     </g>
    </g>
    <g id="text_13">
     <text style="font-size: 8.8px; font-family: 'DejaVu Sans'; text-anchor: middle; fill: #262626" x="9.686865" y="147.497303" transform="rotate(-90 9.686865 147.497303)">fraction of ideal Delta TIR retained</text>
    </g>
   </g>
   <g id="line2d_23">
    <path d="M 43.910251 260.698447 
L 103.34437 260.698447 
L 162.77849 234.467679 
L 222.212609 120.146505 
L 281.646728 45.077219 
" clip-path="url(#pcb28af7d4a)" style="fill: none; stroke: #1f77b4; stroke-width: 1.7; stroke-linecap: round"/>
    <defs>
     <path id="m74fe51cde3" d="M 0 1.7 
C 0.450845 1.7 0.883286 1.520877 1.202082 1.202082 
C 1.520877 0.883286 1.7 0.450845 1.7 0 
C 1.7 -0.450845 1.520877 -0.883286 1.202082 -1.202082 
C 0.883286 -1.520877 0.450845 -1.7 0 -1.7 
C -0.450845 -1.7 -0.883286 -1.520877 -1.202082 -1.202082 
C -1.520877 -0.883286 -1.7 -0.450845 -1.7 0 
C -1.7 0.450845 -1.520877 0.883286 -1.202082 1.202082 
C -0.883286 1.520877 -0.450845 1.7 0 1.7 
z
" style="stroke: #1f77b4"/>
    </defs>
    <g clip-path="url(#pcb28af7d4a)">
     <use xlink:href="#m74fe51cde3" x="43.910251" y="260.698447" style="fill: #1f77b4; stroke: #1f77b4"/>
     <use xlink:href="#m74fe51cde3" x="103.34437" y="260.698447" style="fill: #1f77b4; stroke: #1f77b4"/>
     <use xlink:href="#m74fe51cde3" x="162.77849" y="234.467679" style="fill: #1f77b4; stroke: #1f77b4"/>
     <use xlink:href="#m74fe51cde3" x="222.212609" y="120.146505" style="fill: #1f77b4; stroke: #1f77b4"/>
     <use xlink:href="#m74fe51cde3" x="281.646728" y="45.077219" style="fill: #1f77b4; stroke: #1f77b4"/>
    </g>
   </g>
   <g id="line2d_24">
    <path d="M 43.910251 260.698447 
L 103.34437 207.167482 
L 162.77849 155.652831 
L 222.212609 88.401802 
L 281.646728 45.077219 
" clip-path="url(#pcb28af7d4a)" style="fill: none; stroke: #ff7f0e; stroke-width: 1.7; stroke-linecap: round"/>
    <defs>
     <path id="md5b84ce62e" d="M 0 1.7 
C 0.450845 1.7 0.883286 1.520877 1.202082 1.202082 
C 1.520877 0.883286 1.7 0.450845 1.7 0 
C 1.7 -0.450845 1.520877 -0.883286 1.202082 -1.202082 
C 0.883286 -1.520877 0.450845 -1.7 0 -1.7 
C -0.450845 -1.7 -0.883286 -1.520877 -1.202082 -1.202082 
C -1.520877 -0.883286 -1.7 -0.450845 -1.7 0 
C -1.7 0.450845 -1.520877 0.883286 -1.202082 1.202082 
C -0.883286 1.520877 -0.450845 1.7 0 1.7 
z
" style="stroke: #ff7f0e"/>
    </defs>
    <g clip-path="url(#pcb28af7d4a)">
     <use xlink:href="#md5b84ce62e" x="43.910251" y="260.698447" style="fill: #ff7f0e; stroke: #ff7f0e"/>
     <use xlink:href="#md5b84ce62e" x="103.34437" y="207.167482" style="fill: #ff7f0e; stroke: #ff7f0e"/>
     <use xlink:href="#md5b84ce62e" x="162.77849" y="155.652831" style="fill: #ff7f0e; stroke: #ff7f0e"/>
     <use xlink:href="#md5b84ce62e" x="222.212609" y="88.401802" style="fill: #ff7f0e; stroke: #ff7f0e"/>
     <use xlink:href="#md5b84ce62e" x="281.646728" y="45.077219" style="fill: #ff7f0e; stroke: #ff7f0e"/>
    </g>
   </g>
   <g id="line2d_25">
    <path d="M 43.910251 260.688074 
L 103.34437 201.770938 
L 162.77849 150.866298 
L 222.212609 85.849396 
L 281.646728 45.077219 
" clip-path="url(#pcb28af7d4a)" style="fill: none; stroke: #2ca02c; stroke-width: 1.7; stroke-linecap: round"/>
    <defs>
     <path id="mb01c2ae583" d="M 0 1.7 
C 0.450845 1.7 0.883286 1.520877 1.202082 1.202082 
C 1.520877 0.883286 1.7 0.450845 1.7 0 
C 1.7 -0.450845 1.520877 -0.883286 1.202082 -1.202082 
C 0.883286 -1.520877 0.450845 -1.7 0 -1.7 
C -0.450845 -1.7 -0.883286 -1.520877 -1.202082 -1.202082 
C -1.520877 -0.883286 -1.7 -0.450845 -1.7 0 
C -1.7 0.450845 -1.520877 0.883286 -1.202082 1.202082 
C -0.883286 1.520877 -0.450845 1.7 0 1.7 
z
" style="stroke: #2ca02c"/>
    </defs>
    <g clip-path="url(#pcb28af7d4a)">
     <use xlink:href="#mb01c2ae583" x="43.910251" y="260.688074" style="fill: #2ca02c; stroke: #2ca02c"/>
     <use xlink:href="#mb01c2ae583" x="103.34437" y="201.770938" style="fill: #2ca02c; stroke: #2ca02c"/>
     <use xlink:href="#mb01c2ae583" x="162.77849" y="150.866298" style="fill: #2ca02c; stroke: #2ca02c"/>
     <use xlink:href="#mb01c2ae583" x="222.212609" y="85.849396" style="fill: #2ca02c; stroke: #2ca02c"/>
     <use xlink:href="#mb01c2ae583" x="281.646728" y="45.077219" style="fill: #2ca02c; stroke: #2ca02c"/>
    </g>
   </g>
   <g id="line2d_26">
    <path d="M 43.910251 260.698447 
L 103.34437 201.398747 
L 162.77849 149.777467 
L 222.212609 84.925033 
L 281.646728 45.077219 
" clip-path="url(#pcb28af7d4a)" style="fill: none; stroke: #d62728; stroke-width: 1.7; stroke-linecap: round"/>
    <defs>
     <path id="m95a7dbf3c3" d="M 0 1.7 
C 0.450845 1.7 0.883286 1.520877 1.202082 1.202082 
C 1.520877 0.883286 1.7 0.450845 1.7 0 
C 1.7 -0.450845 1.520877 -0.883286 1.202082 -1.202082 
C 0.883286 -1.520877 0.450845 -1.7 0 -1.7 
C -0.450845 -1.7 -0.883286 -1.520877 -1.202082 -1.202082 
C -1.520877 -0.883286 -1.7 -0.450845 -1.7 0 
C -1.7 0.450845 -1.520877 0.883286 -1.202082 1.202082 
C -0.883286 1.520877 -0.450845 1.7 0 1.7 
z
" style="stroke: #d62728"/>
    </defs>
    <g clip-path="url(#pcb28af7d4a)">
     <use xlink:href="#m95a7dbf3c3" x="43.910251" y="260.698447" style="fill: #d62728; stroke: #d62728"/>
     <use xlink:href="#m95a7dbf3c3" x="103.34437" y="201.398747" style="fill: #d62728; stroke: #d62728"/>
     <use xlink:href="#m95a7dbf3c3" x="162.77849" y="149.777467" style="fill: #d62728; stroke: #d62728"/>
     <use xlink:href="#m95a7dbf3c3" x="222.212609" y="84.925033" style="fill: #d62728; stroke: #d62728"/>
     <use xlink:href="#m95a7dbf3c3" x="281.646728" y="45.077219" style="fill: #d62728; stroke: #d62728"/>
    </g>
   </g>
   <g id="line2d_27">
    <path d="M 43.910251 260.698447 
L 103.34437 202.115225 
L 162.77849 150.001838 
L 222.212609 84.854285 
L 281.646728 45.077219 
" clip-path="url(#pcb28af7d4a)" style="fill: none; stroke: #9467bd; stroke-width: 1.7; stroke-linecap: round"/>
    <defs>
     <path id="mdd0b4d2387" d="M 0 1.7 
C 0.450845 1.7 0.883286 1.520877 1.202082 1.202082 
C 1.520877 0.883286 1.7 0.450845 1.7 0 
C 1.7 -0.450845 1.520877 -0.883286 1.202082 -1.202082 
C 0.883286 -1.520877 0.450845 -1.7 0 -1.7 
C -0.450845 -1.7 -0.883286 -1.520877 -1.202082 -1.202082 
C -1.520877 -0.883286 -1.7 -0.450845 -1.7 0 
C -1.7 0.450845 -1.520877 0.883286 -1.202082 1.202082 
C -0.883286 1.520877 -0.450845 1.7 0 1.7 
z
" style="stroke: #9467bd"/>
    </defs>
    <g clip-path="url(#pcb28af7d4a)">
     <use xlink:href="#mdd0b4d2387" x="43.910251" y="260.698447" style="fill: #9467bd; stroke: #9467bd"/>
     <use xlink:href="#mdd0b4d2387" x="103.34437" y="202.115225" style="fill: #9467bd; stroke: #9467bd"/>
     <use xlink:href="#mdd0b4d2387" x="162.77849" y="150.001838" style="fill: #9467bd; stroke: #9467bd"/>
     <use xlink:href="#mdd0b4d2387" x="222.212609" y="84.854285" style="fill: #9467bd; stroke: #9467bd"/>
     <use xlink:href="#mdd0b4d2387" x="281.646728" y="45.077219" style="fill: #9467bd; stroke: #9467bd"/>
    </g>
   </g>
   <g id="line2d_28">
    <path d="M 32.023428 66.639342 
L 293.533552 66.639342 
" clip-path="url(#pcb28af7d4a)" style="fill: none; stroke-dasharray: 3.7,1.6; stroke-dashoffset: 0; stroke: #333333"/>
   </g>
   <g id="patch_3">
    <path d="M 32.023428 260.698447 
L 32.023428 34.296157 
" style="fill: none; stroke: #cccccc; stroke-width: 0.8; stroke-linejoin: miter; stroke-linecap: square"/>
   </g>
   <g id="patch_4">
    <path d="M 293.533552 260.698447 
L 293.533552 34.296157 
" style="fill: none; stroke: #cccccc; stroke-width: 0.8; stroke-linejoin: miter; stroke-linecap: square"/>
   </g>
   <g id="patch_5">
    <path d="M 32.023427 260.698447 
L 293.533552 260.698447 
" style="fill: none; stroke: #cccccc; stroke-width: 0.8; stroke-linejoin: miter; stroke-linecap: square"/>
   </g>
   <g id="patch_6">
    <path d="M 32.023427 34.296157 
L 293.533552 34.296157 
" style="fill: none; stroke: #cccccc; stroke-width: 0.8; stroke-linejoin: miter; stroke-linecap: square"/>
   </g>
   <g id="text_14">
    <text style="font-size: 9.6px; font-family: 'DejaVu Sans'; text-anchor: middle; fill: #262626" x="162.77849" y="28.296157" transform="rotate(-0 162.77849 28.296157)">30 deg/s</text>
   </g>
  </g>
  <g id="axes_2">
   <g id="patch_7">
    <path d="M 315.756532 260.698447 
L 577.266656 260.698447 
L 577.266656 34.296157 
L 315.756532 34.296157 
z
" style="fill: #ffffff"/>
   </g>
   <g id="matplotlib.axis_3">
    <g id="xtick_6">
     <g id="line2d_29">
      <path d="M 327.643355 260.698447 
L 327.643355 34.296157 
" clip-path="url(#p156452851d)" style="fill: none; stroke: #cccccc; stroke-width: 0.55; stroke-linecap: round"/>
     </g>
     <g id="line2d_30"/>
     <g id="text_15">
      <text style="font-size: 8px; font-family: 'DejaVu Sans'; text-anchor: middle; fill: #262626" x="327.643355" y="270.276572" transform="rotate(-0 327.643355 270.276572)">0</text>
     </g>
    </g>
    <g id="xtick_7">
     <g id="line2d_31">
      <path d="M 387.077475 260.698447 
L 387.077475 34.296157 
" clip-path="url(#p156452851d)" style="fill: none; stroke: #cccccc; stroke-width: 0.55; stroke-linecap: round"/>
     </g>
     <g id="line2d_32"/>
     <g id="text_16">
      <text style="font-size: 8px; font-family: 'DejaVu Sans'; text-anchor: middle; fill: #262626" x="387.077475" y="270.276572" transform="rotate(-0 387.077475 270.276572)">5</text>
     </g>
    </g>
    <g id="xtick_8">
     <g id="line2d_33">
      <path d="M 446.511594 260.698447 
L 446.511594 34.296157 
" clip-path="url(#p156452851d)" style="fill: none; stroke: #cccccc; stroke-width: 0.55; stroke-linecap: round"/>
     </g>
     <g id="line2d_34"/>
     <g id="text_17">
      <text style="font-size: 8px; font-family: 'DejaVu Sans'; text-anchor: middle; fill: #262626" x="446.511594" y="270.276572" transform="rotate(-0 446.511594 270.276572)">10</text>
     </g>
    </g>
    <g id="xtick_9">
     <g id="line2d_35">
      <path d="M 505.945713 260.698447 
L 505.945713 34.296157 
" clip-path="url(#p156452851d)" style="fill: none; stroke: #cccccc; stroke-width: 0.55; stroke-linecap: round"/>
     </g>
     <g id="line2d_36"/>
     <g id="text_18">
      <text style="font-size: 8px; font-family: 'DejaVu Sans'; text-anchor: middle; fill: #262626" x="505.945713" y="270.276572" transform="rotate(-0 505.945713 270.276572)">20</text>
     </g>
    </g>
    <g id="xtick_10">
     <g id="line2d_37">
      <path d="M 565.379832 260.698447 
L 565.379832 34.296157 
" clip-path="url(#p156452851d)" style="fill: none; stroke: #cccccc; stroke-width: 0.55; stroke-linecap: round"/>
     </g>
     <g id="line2d_38"/>
     <g id="text_19">
      <text style="font-size: 8px; font-family: 'DejaVu Sans'; text-anchor: middle; fill: #262626" x="565.379832" y="270.277197" transform="rotate(-0 565.379832 270.277197)">inf</text>
     </g>
    </g>
    <g id="text_20">
     <text style="font-size: 8.8px; font-family: 'DejaVu Sans'; text-anchor: middle; fill: #262626" x="446.511594" y="282.885697" transform="rotate(-0 446.511594 282.885697)">separator SDR (dB)</text>
    </g>
   </g>
   <g id="matplotlib.axis_4">
    <g id="ytick_7">
     <g id="line2d_39">
      <path d="M 315.756532 260.698447 
L 577.266656 260.698447 
" clip-path="url(#p156452851d)" style="fill: none; stroke: #cccccc; stroke-width: 0.55; stroke-linecap: round"/>
     </g>
     <g id="line2d_40"/>
     <g id="text_21">
      <text style="font-size: 8px; font-family: 'DejaVu Sans'; text-anchor: end; fill: #262626" x="312.256532" y="263.73751" transform="rotate(-0 312.256532 263.73751)">0.0</text>
     </g>
    </g>
    <g id="ytick_8">
     <g id="line2d_41">
      <path d="M 315.756532 217.574202 
L 577.266656 217.574202 
" clip-path="url(#p156452851d)" style="fill: none; stroke: #cccccc; stroke-width: 0.55; stroke-linecap: round"/>
     </g>
     <g id="line2d_42"/>
     <g id="text_22">
      <text style="font-size: 8px; font-family: 'DejaVu Sans'; text-anchor: end; fill: #262626" x="312.256532" y="220.613264" transform="rotate(-0 312.256532 220.613264)">0.2</text>
     </g>
    </g>
    <g id="ytick_9">
     <g id="line2d_43">
      <path d="M 315.756532 174.449956 
L 577.266656 174.449956 
" clip-path="url(#p156452851d)" style="fill: none; stroke: #cccccc; stroke-width: 0.55; stroke-linecap: round"/>
     </g>
     <g id="line2d_44"/>
     <g id="text_23">
      <text style="font-size: 8px; font-family: 'DejaVu Sans'; text-anchor: end; fill: #262626" x="312.256532" y="177.489019" transform="rotate(-0 312.256532 177.489019)">0.4</text>
     </g>
    </g>
    <g id="ytick_10">
     <g id="line2d_45">
      <path d="M 315.756532 131.32571 
L 577.266656 131.32571 
" clip-path="url(#p156452851d)" style="fill: none; stroke: #cccccc; stroke-width: 0.55; stroke-linecap: round"/>
     </g>
     <g id="line2d_46"/>
     <g id="text_24">
      <text style="font-size: 8px; font-family: 'DejaVu Sans'; text-anchor: end; fill: #262626" x="312.256532" y="134.364773" transform="rotate(-0 312.256532 134.364773)">0.6</text>
     </g>
    </g>
    <g id="ytick_11">
     <g id="line2d_47">
      <path d="M 315.756532 88.201465 
L 577.266656 88.201465 
" clip-path="url(#p156452851d)" style="fill: none; stroke: #cccccc; stroke-width: 0.55; stroke-linecap: round"/>
     </g>
     <g id="line2d_48"/>
     <g id="text_25">
      <text style="font-size: 8px; font-family: 'DejaVu Sans'; text-anchor: end; fill: #262626" x="312.256532" y="91.240527" transform="rotate(-0 312.256532 91.240527)">0.8</text>
     </g>
    </g>
    <g id="ytick_12">
     <g id="line2d_49">
      <path d="M 315.756532 45.077219 
L 577.266656 45.077219 
" clip-path="url(#p156452851d)" style="fill: none; stroke: #cccccc; stroke-width: 0.55; stroke-linecap: round"/>
     </g>
     <g id="line2d_50"/>
     <g id="text_26">
      <text style="font-size: 8px; font-family: 'DejaVu Sans'; text-anchor: end; fill: #262626" x="312.256532" y="48.116281" transform="rotate(-0 312.256532 48.116281)">1.0</text>
     </g>
    </g>
   </g>
   <g id="line2d_51">
    <path d="M 327.643355 260.698447 
L 387.077475 213.177575 
L 446.511594 160.843695 
L 505.945713 91.1764 
L 565.379832 45.077219 
" clip-path="url(#p156452851d)" style="fill: none; stroke: #1f77b4; stroke-width: 1.7; stroke-linecap: round"/>
    <g clip-path="url(#p156452851d)">
     <use xlink:href="#m74fe51cde3" x="327.643355" y="260.698447" style="fill: #1f77b4; stroke: #1f77b4"/>
     <use xlink:href="#m74fe51cde3" x="387.077475" y="213.177575" style="fill: #1f77b4; stroke: #1f77b4"/>
     <use xlink:href="#m74fe51cde3" x="446.511594" y="160.843695" style="fill: #1f77b4; stroke: #1f77b4"/>
     <use xlink:href="#m74fe51cde3" x="505.945713" y="91.1764" style="fill: #1f77b4; stroke: #1f77b4"/>
     <use xlink:href="#m74fe51cde3" x="565.379832" y="45.077219" style="fill: #1f77b4; stroke: #1f77b4"/>
    </g>
   </g>
   <g id="line2d_52">
    <path d="M 327.643355 260.698447 
L 387.077475 206.114759 
L 446.511594 155.996607 
L 505.945713 89.305202 
L 565.379832 45.077219 
" clip-path="url(#p156452851d)" style="fill: none; stroke: #ff7f0e; stroke-width: 1.7; stroke-linecap: round"/>
    <g clip-path="url(#p156452851d)">
     <use xlink:href="#md5b84ce62e" x="327.643355" y="260.698447" style="fill: #ff7f0e; stroke: #ff7f0e"/>
     <use xlink:href="#md5b84ce62e" x="387.077475" y="206.114759" style="fill: #ff7f0e; stroke: #ff7f0e"/>
     <use xlink:href="#md5b84ce62e" x="446.511594" y="155.996607" style="fill: #ff7f0e; stroke: #ff7f0e"/>
     <use xlink:href="#md5b84ce62e" x="505.945713" y="89.305202" style="fill: #ff7f0e; stroke: #ff7f0e"/>
     <use xlink:href="#md5b84ce62e" x="565.379832" y="45.077219" style="fill: #ff7f0e; stroke: #ff7f0e"/>
    </g>
   </g>
   <g id="line2d_53">
    <path d="M 327.643355 260.698447 
L 387.077475 203.335285 
L 446.511594 152.952753 
L 505.945713 87.327879 
L 565.379832 45.077219 
" clip-path="url(#p156452851d)" style="fill: none; stroke: #2ca02c; stroke-width: 1.7; stroke-linecap: round"/>
    <g clip-path="url(#p156452851d)">
     <use xlink:href="#mb01c2ae583" x="327.643355" y="260.698447" style="fill: #2ca02c; stroke: #2ca02c"/>
     <use xlink:href="#mb01c2ae583" x="387.077475" y="203.335285" style="fill: #2ca02c; stroke: #2ca02c"/>
     <use xlink:href="#mb01c2ae583" x="446.511594" y="152.952753" style="fill: #2ca02c; stroke: #2ca02c"/>
     <use xlink:href="#mb01c2ae583" x="505.945713" y="87.327879" style="fill: #2ca02c; stroke: #2ca02c"/>
     <use xlink:href="#mb01c2ae583" x="565.379832" y="45.077219" style="fill: #2ca02c; stroke: #2ca02c"/>
    </g>
   </g>
   <g id="line2d_54">
    <path d="M 327.643355 260.698447 
L 387.077475 201.531771 
L 446.511594 150.435718 
L 505.945713 85.520475 
L 565.379832 45.077219 
" clip-path="url(#p156452851d)" style="fill: none; stroke: #d62728; stroke-width: 1.7; stroke-linecap: round"/>
    <g clip-path="url(#p156452851d)">
     <use xlink:href="#m95a7dbf3c3" x="327.643355" y="260.698447" style="fill: #d62728; stroke: #d62728"/>
     <use xlink:href="#m95a7dbf3c3" x="387.077475" y="201.531771" style="fill: #d62728; stroke: #d62728"/>
     <use xlink:href="#m95a7dbf3c3" x="446.511594" y="150.435718" style="fill: #d62728; stroke: #d62728"/>
     <use xlink:href="#m95a7dbf3c3" x="505.945713" y="85.520475" style="fill: #d62728; stroke: #d62728"/>
     <use xlink:href="#m95a7dbf3c3" x="565.379832" y="45.077219" style="fill: #d62728; stroke: #d62728"/>
    </g>
   </g>
   <g id="line2d_55">
    <path d="M 327.643355 260.698447 
L 387.077475 200.967527 
L 446.511594 149.531325 
L 505.945713 84.848224 
L 565.379832 45.077219 
" clip-path="url(#p156452851d)" style="fill: none; stroke: #9467bd; stroke-width: 1.7; stroke-linecap: round"/>
    <g clip-path="url(#p156452851d)">
     <use xlink:href="#mdd0b4d2387" x="327.643355" y="260.698447" style="fill: #9467bd; stroke: #9467bd"/>
     <use xlink:href="#mdd0b4d2387" x="387.077475" y="200.967527" style="fill: #9467bd; stroke: #9467bd"/>
     <use xlink:href="#mdd0b4d2387" x="446.511594" y="149.531325" style="fill: #9467bd; stroke: #9467bd"/>
     <use xlink:href="#mdd0b4d2387" x="505.945713" y="84.848224" style="fill: #9467bd; stroke: #9467bd"/>
     <use xlink:href="#mdd0b4d2387" x="565.379832" y="45.077219" style="fill: #9467bd; stroke: #9467bd"/>
    </g>
   </g>
   <g id="line2d_56">
    <path d="M 315.756532 66.639342 
L 577.266656 66.639342 
" clip-path="url(#p156452851d)" style="fill: none; stroke-dasharray: 3.7,1.6; stroke-dashoffset: 0; stroke: #333333"/>
   </g>
   <g id="patch_8">
    <path d="M 315.756532 260.698447 
L 315.756532 34.296157 
" style="fill: none; stroke: #cccccc; stroke-width: 0.8; stroke-linejoin: miter; stroke-linecap: square"/>
   </g>
   <g id="patch_9">
    <path d="M 577.266656 260.698447 
L 577.266656 34.296157 
" style="fill: none; stroke: #cccccc; stroke-width: 0.8; stroke-linejoin: miter; stroke-linecap: square"/>
   </g>
   <g id="patch_10">
    <path d="M 315.756532 260.698447 
L 577.266656 260.698447 
" style="fill: none; stroke: #cccccc; stroke-width: 0.8; stroke-linejoin: miter; stroke-linecap: square"/>
   </g>
   <g id="patch_11">
    <path d="M 315.756532 34.296157 
L 577.266656 34.296157 
" style="fill: none; stroke: #cccccc; stroke-width: 0.8; stroke-linejoin: miter; stroke-linecap: square"/>
   </g>
   <g id="text_27">
    <text style="font-size: 9.6px; font-family: 'DejaVu Sans'; text-anchor: middle; fill: #262626" x="446.511594" y="28.296157" transform="rotate(-0 446.511594 28.296157)">60 deg/s</text>
   </g>
  </g>
  <g id="axes_3">
   <g id="patch_12">
    <path d="M 599.489636 260.698447 
L 860.99976 260.698447 
L 860.99976 34.296157 
L 599.489636 34.296157 
z
" style="fill: #ffffff"/>
   </g>
   <g id="matplotlib.axis_5">
    <g id="xtick_11">
     <g id="line2d_57">
      <path d="M 611.37646 260.698447 
L 611.37646 34.296157 
" clip-path="url(#pf02d97d56f)" style="fill: none; stroke: #cccccc; stroke-width: 0.55; stroke-linecap: round"/>
     </g>
     <g id="line2d_58"/>
     <g id="text_28">
      <text style="font-size: 8px; font-family: 'DejaVu Sans'; text-anchor: middle; fill: #262626" x="611.37646" y="270.276572" transform="rotate(-0 611.37646 270.276572)">0</text>
     </g>
    </g>
    <g id="xtick_12">
     <g id="line2d_59">
      <path d="M 670.810579 260.698447 
L 670.810579 34.296157 
" clip-path="url(#pf02d97d56f)" style="fill: none; stroke: #cccccc; stroke-width: 0.55; stroke-linecap: round"/>
     </g>
     <g id="line2d_60"/>
     <g id="text_29">
      <text style="font-size: 8px; font-family: 'DejaVu Sans'; text-anchor: middle; fill: #262626" x="670.810579" y="270.276572" transform="rotate(-0 670.810579 270.276572)">5</text>
     </g>
    </g>
    <g id="xtick_13">
     <g id="line2d_61">
      <path d="M 730.244698 260.698447 
L 730.244698 34.296157 
" clip-path="url(#pf02d97d56f)" style="fill: none; stroke: #cccccc; stroke-width: 0.55; stroke-linecap: round"/>
     </g>
     <g id="line2d_62"/>
     <g id="text_30">
      <text style="font-size: 8px; font-family: 'DejaVu Sans'; text-anchor: middle; fill: #262626" x="730.244698" y="270.276572" transform="rotate(-0 730.244698 270.276572)">10</text>
     </g>
    </g>
    <g id="xtick_14">
     <g id="line2d_63">
      <path d="M 789.678817 260.698447 
L 789.678817 34.296157 
" clip-path="url(#pf02d97d56f)" style="fill: none; stroke: #cccccc; stroke-width: 0.55; stroke-linecap: round"/>
     </g>
     <g id="line2d_64"/>
     <g id="text_31">
      <text style="font-size: 8px; font-family: 'DejaVu Sans'; text-anchor: middle; fill: #262626" x="789.678817" y="270.276572" transform="rotate(-0 789.678817 270.276572)">20</text>
     </g>
    </g>
    <g id="xtick_15">
     <g id="line2d_65">
      <path d="M 849.112936 260.698447 
L 849.112936 34.296157 
" clip-path="url(#pf02d97d56f)" style="fill: none; stroke: #cccccc; stroke-width: 0.55; stroke-linecap: round"/>
     </g>
     <g id="line2d_66"/>
     <g id="text_32">
      <text style="font-size: 8px; font-family: 'DejaVu Sans'; text-anchor: middle; fill: #262626" x="849.112936" y="270.277197" transform="rotate(-0 849.112936 270.277197)">inf</text>
     </g>
    </g>
    <g id="text_33">
     <text style="font-size: 8.8px; font-family: 'DejaVu Sans'; text-anchor: middle; fill: #262626" x="730.244698" y="282.885697" transform="rotate(-0 730.244698 282.885697)">separator SDR (dB)</text>
    </g>
   </g>
   <g id="matplotlib.axis_6">
    <g id="ytick_13">
     <g id="line2d_67">
      <path d="M 599.489636 260.698447 
L 860.99976 260.698447 
" clip-path="url(#pf02d97d56f)" style="fill: none; stroke: #cccccc; stroke-width: 0.55; stroke-linecap: round"/>
     </g>
     <g id="line2d_68"/>
     <g id="text_34">
      <text style="font-size: 8px; font-family: 'DejaVu Sans'; text-anchor: end; fill: #262626" x="595.989636" y="263.73751" transform="rotate(-0 595.989636 263.73751)">0.0</text>
     </g>
    </g>
    <g id="ytick_14">
     <g id="line2d_69">
      <path d="M 599.489636 217.574202 
L 860.99976 217.574202 
" clip-path="url(#pf02d97d56f)" style="fill: none; stroke: #cccccc; stroke-width: 0.55; stroke-linecap: round"/>
     </g>
     <g id="line2d_70"/>
     <g id="text_35">
      <text style="font-size: 8px; font-family: 'DejaVu Sans'; text-anchor: end; fill: #262626" x="595.989636" y="220.613264" transform="rotate(-0 595.989636 220.613264)">0.2</text>
     </g>
    </g>
    <g id="ytick_15">
     <g id="line2d_71">
      <path d="M 599.489636 174.449956 
L 860.99976 174.449956 
" clip-path="url(#pf02d97d56f)" style="fill: none; stroke: #cccccc; stroke-width: 0.55; stroke-linecap: round"/>
     </g>
     <g id="line2d_72"/>
     <g id="text_36">
      <text style="font-size: 8px; font-family: 'DejaVu Sans'; text-anchor: end; fill: #262626" x="595.989636" y="177.489019" transform="rotate(-0 595.989636 177.489019)">0.4</text>
     </g>
    </g>
    <g id="ytick_16">
     <g id="line2d_73">
      <path d="M 599.489636 131.32571 
L 860.99976 131.32571 
" clip-path="url(#pf02d97d56f)" style="fill: none; stroke: #cccccc; stroke-width: 0.55; stroke-linecap: round"/>
     </g>
     <g id="line2d_74"/>
     <g id="text_37">
      <text style="font-size: 8px; font-family: 'DejaVu Sans'; text-anchor: end; fill: #262626" x="595.989636" y="134.364773" transform="rotate(-0 595.989636 134.364773)">0.6</text>
     </g>
    </g>
    <g id="ytick_17">
     <g id="line2d_75">
      <path d="M 599.489636 88.201465 
L 860.99976 88.201465 
" clip-path="url(#pf02d97d56f)" style="fill: none; stroke: #cccccc; stroke-width: 0.55; stroke-linecap: round"/>
     </g>
     <g id="line2d_76"/>
     <g id="text_38">
      <text style="font-size: 8px; font-family: 'DejaVu Sans'; text-anchor: end; fill: #262626" x="595.989636" y="91.240527" transform="rotate(-0 595.989636 91.240527)">0.8</text>
     </g>
    </g>
    <g id="ytick_18">
     <g id="line2d_77">
      <path d="M 599.489636 45.077219 
L 860.99976 45.077219 
" clip-path="url(#pf02d97d56f)" style="fill: none; stroke: #cccccc; stroke-width: 0.55; stroke-linecap: round"/>
     </g>
     <g id="line2d_78"/>
     <g id="text_39">
      <text style="font-size: 8px; font-family: 'DejaVu Sans'; text-anchor: end; fill: #262626" x="595.989636" y="48.116281" transform="rotate(-0 595.989636 48.116281)">1.0</text>
     </g>
    </g>
   </g>
   <g id="line2d_79">
    <path d="M 611.37646 260.698447 
L 670.810579 206.35573 
L 730.244698 156.625563 
L 789.678817 89.900676 
L 849.112936 45.077219 
" clip-path="url(#pf02d97d56f)" style="fill: none; stroke: #1f77b4; stroke-width: 1.7; stroke-linecap: round"/>
    <g clip-path="url(#pf02d97d56f)">
     <use xlink:href="#m74fe51cde3" x="611.37646" y="260.698447" style="fill: #1f77b4; stroke: #1f77b4"/>
     <use xlink:href="#m74fe51cde3" x="670.810579" y="206.35573" style="fill: #1f77b4; stroke: #1f77b4"/>
     <use xlink:href="#m74fe51cde3" x="730.244698" y="156.625563" style="fill: #1f77b4; stroke: #1f77b4"/>
     <use xlink:href="#m74fe51cde3" x="789.678817" y="89.900676" style="fill: #1f77b4; stroke: #1f77b4"/>
     <use xlink:href="#m74fe51cde3" x="849.112936" y="45.077219" style="fill: #1f77b4; stroke: #1f77b4"/>
    </g>
   </g>
   <g id="line2d_80">
    <path d="M 611.37646 260.698447 
L 670.810579 205.405951 
L 730.244698 155.953862 
L 789.678817 89.628898 
L 849.112936 45.077219 
" clip-path="url(#pf02d97d56f)" style="fill: none; stroke: #ff7f0e; stroke-width: 1.7; stroke-linecap: round"/>
    <g clip-path="url(#pf02d97d56f)">
     <use xlink:href="#md5b84ce62e" x="611.37646" y="260.698447" style="fill: #ff7f0e; stroke: #ff7f0e"/>
     <use xlink:href="#md5b84ce62e" x="670.810579" y="205.405951" style="fill: #ff7f0e; stroke: #ff7f0e"/>
     <use xlink:href="#md5b84ce62e" x="730.244698" y="155.953862" style="fill: #ff7f0e; stroke: #ff7f0e"/>
     <use xlink:href="#md5b84ce62e" x="789.678817" y="89.628898" style="fill: #ff7f0e; stroke: #ff7f0e"/>
     <use xlink:href="#md5b84ce62e" x="849.112936" y="45.077219" style="fill: #ff7f0e; stroke: #ff7f0e"/>
    </g>
   </g>
   <g id="line2d_81">
    <path d="M 611.37646 260.698447 
L 670.810579 203.661049 
L 730.244698 153.63201 
L 789.678817 87.91521 
L 849.112936 45.077219 
" clip-path="url(#pf02d97d56f)" style="fill: none; stroke: #2ca02c; stroke-width: 1.7; stroke-linecap: round"/>
    <g clip-path="url(#pf02d97d56f)">
     <use xlink:href="#mb01c2ae583" x="611.37646" y="260.698447" style="fill: #2ca02c; stroke: #2ca02c"/>
     <use xlink:href="#mb01c2ae583" x="670.810579" y="203.661049" style="fill: #2ca02c; stroke: #2ca02c"/>
     <use xlink:href="#mb01c2ae583" x="730.244698" y="153.63201" style="fill: #2ca02c; stroke: #2ca02c"/>
     <use xlink:href="#mb01c2ae583" x="789.678817" y="87.91521" style="fill: #2ca02c; stroke: #2ca02c"/>
     <use xlink:href="#mb01c2ae583" x="849.112936" y="45.077219" style="fill: #2ca02c; stroke: #2ca02c"/>
    </g>
   </g>
   <g id="line2d_82">
    <path d="M 611.37646 260.646576 
L 670.810579 201.730518 
L 730.244698 150.833015 
L 789.678817 85.842975 
L 849.112936 45.077219 
" clip-path="url(#pf02d97d56f)" style="fill: none; stroke: #d62728; stroke-width: 1.7; stroke-linecap: round"/>
    <g clip-path="url(#pf02d97d56f)">
     <use xlink:href="#m95a7dbf3c3" x="611.37646" y="260.646576" style="fill: #d62728; stroke: #d62728"/>
     <use xlink:href="#m95a7dbf3c3" x="670.810579" y="201.730518" style="fill: #d62728; stroke: #d62728"/>
     <use xlink:href="#m95a7dbf3c3" x="730.244698" y="150.833015" style="fill: #d62728; stroke: #d62728"/>
     <use xlink:href="#m95a7dbf3c3" x="789.678817" y="85.842975" style="fill: #d62728; stroke: #d62728"/>
     <use xlink:href="#m95a7dbf3c3" x="849.112936" y="45.077219" style="fill: #d62728; stroke: #d62728"/>
    </g>
   </g>
   <g id="line2d_83">
    <path d="M 611.37646 260.620414 
L 670.810579 200.901262 
L 730.244698 149.618792 
L 789.678817 84.96298 
L 849.112936 45.077219 
" clip-path="url(#pf02d97d56f)" style="fill: none; stroke: #9467bd; stroke-width: 1.7; stroke-linecap: round"/>
    <g clip-path="url(#pf02d97d56f)">
     <use xlink:href="#mdd0b4d2387" x="611.37646" y="260.620414" style="fill: #9467bd; stroke: #9467bd"/>
     <use xlink:href="#mdd0b4d2387" x="670.810579" y="200.901262" style="fill: #9467bd; stroke: #9467bd"/>
     <use xlink:href="#mdd0b4d2387" x="730.244698" y="149.618792" style="fill: #9467bd; stroke: #9467bd"/>
     <use xlink:href="#mdd0b4d2387" x="789.678817" y="84.96298" style="fill: #9467bd; stroke: #9467bd"/>
     <use xlink:href="#mdd0b4d2387" x="849.112936" y="45.077219" style="fill: #9467bd; stroke: #9467bd"/>
    </g>
   </g>
   <g id="line2d_84">
    <path d="M 599.489636 66.639342 
L 860.99976 66.639342 
" clip-path="url(#pf02d97d56f)" style="fill: none; stroke-dasharray: 3.7,1.6; stroke-dashoffset: 0; stroke: #333333"/>
   </g>
   <g id="patch_13">
    <path d="M 599.489636 260.698447 
L 599.489636 34.296157 
" style="fill: none; stroke: #cccccc; stroke-width: 0.8; stroke-linejoin: miter; stroke-linecap: square"/>
   </g>
   <g id="patch_14">
    <path d="M 860.99976 260.698447 
L 860.99976 34.296157 
" style="fill: none; stroke: #cccccc; stroke-width: 0.8; stroke-linejoin: miter; stroke-linecap: square"/>
   </g>
   <g id="patch_15">
    <path d="M 599.489636 260.698447 
L 860.99976 260.698447 
" style="fill: none; stroke: #cccccc; stroke-width: 0.8; stroke-linejoin: miter; stroke-linecap: square"/>
   </g>
   <g id="patch_16">
    <path d="M 599.489636 34.296157 
L 860.99976 34.296157 
" style="fill: none; stroke: #cccccc; stroke-width: 0.8; stroke-linejoin: miter; stroke-linecap: square"/>
   </g>
   <g id="text_40">
    <text style="font-size: 9.6px; font-family: 'DejaVu Sans'; text-anchor: middle; fill: #262626" x="730.244698" y="28.296157" transform="rotate(-0 730.244698 28.296157)">120 deg/s</text>
   </g>
   <g id="legend_1">
    <g id="text_41">
     <text style="font-size: 7.8px; font-family: 'DejaVu Sans'; text-anchor: start; fill: #262626" x="816.918682" y="191.621494" transform="rotate(-0 816.918682 191.621494)">sigma</text>
    </g>
    <g id="line2d_85">
     <path d="M 803.59726 200.774072 
L 811.59726 200.774072 
L 819.59726 200.774072 
" style="fill: none; stroke: #1f77b4; stroke-width: 1.7; stroke-linecap: round"/>
     <g>
      <use xlink:href="#m74fe51cde3" x="811.59726" y="200.774072" style="fill: #1f77b4; stroke: #1f77b4"/>
     </g>
    </g>
    <g id="text_42">
     <text style="font-size: 8px; font-family: 'DejaVu Sans'; text-anchor: start; fill: #262626" x="825.99726" y="203.574072" transform="rotate(-0 825.99726 203.574072)">10 deg</text>
    </g>
    <g id="line2d_86">
     <path d="M 803.59726 212.774698 
L 811.59726 212.774698 
L 819.59726 212.774698 
" style="fill: none; stroke: #ff7f0e; stroke-width: 1.7; stroke-linecap: round"/>
     <g>
      <use xlink:href="#md5b84ce62e" x="811.59726" y="212.774698" style="fill: #ff7f0e; stroke: #ff7f0e"/>
     </g>
    </g>
    <g id="text_43">
     <text style="font-size: 8px; font-family: 'DejaVu Sans'; text-anchor: start; fill: #262626" x="825.99726" y="215.574698" transform="rotate(-0 825.99726 215.574698)">20 deg</text>
    </g>
    <g id="line2d_87">
     <path d="M 803.59726 224.775322 
L 811.59726 224.775322 
L 819.59726 224.775322 
" style="fill: none; stroke: #2ca02c; stroke-width: 1.7; stroke-linecap: round"/>
     <g>
      <use xlink:href="#mb01c2ae583" x="811.59726" y="224.775322" style="fill: #2ca02c; stroke: #2ca02c"/>
     </g>
    </g>
    <g id="text_44">
     <text style="font-size: 8px; font-family: 'DejaVu Sans'; text-anchor: start; fill: #262626" x="825.99726" y="227.575322" transform="rotate(-0 825.99726 227.575322)">30 deg</text>
    </g>
    <g id="line2d_88">
     <path d="M 803.59726 236.775947 
L 811.59726 236.775947 
L 819.59726 236.775947 
" style="fill: none; stroke: #d62728; stroke-width: 1.7; stroke-linecap: round"/>
     <g>
      <use xlink:href="#m95a7dbf3c3" x="811.59726" y="236.775947" style="fill: #d62728; stroke: #d62728"/>
     </g>
    </g>
    <g id="text_45">
     <text style="font-size: 8px; font-family: 'DejaVu Sans'; text-anchor: start; fill: #262626" x="825.99726" y="239.575947" transform="rotate(-0 825.99726 239.575947)">45 deg</text>
    </g>
    <g id="line2d_89">
     <path d="M 803.59726 248.776572 
L 811.59726 248.776572 
L 819.59726 248.776572 
" style="fill: none; stroke: #9467bd; stroke-width: 1.7; stroke-linecap: round"/>
     <g>
      <use xlink:href="#mdd0b4d2387" x="811.59726" y="248.776572" style="fill: #9467bd; stroke: #9467bd"/>
     </g>
    </g>
    <g id="text_46">
     <text style="font-size: 8px; font-family: 'DejaVu Sans'; text-anchor: start; fill: #262626" x="825.99726" y="251.576572" transform="rotate(-0 825.99726 251.576572)">60 deg</text>
    </g>
   </g>
  </g>
  <g id="text_47">
   <text style="font-size: 12px; font-family: 'DejaVu Sans'; text-anchor: middle; fill: #262626" x="432" y="12.118365" transform="rotate(-0 432 12.118365)">Fraction of ideal Delta TIR retained as separation improves</text>
  </g>
 </g>
 <defs>
  <clipPath id="pcb28af7d4a">
   <rect x="32.023428" y="34.296158" width="261.510124" height="226.40229"/>
  </clipPath>
  <clipPath id="p156452851d">
   <rect x="315.756532" y="34.296158" width="261.510124" height="226.40229"/>
  </clipPath>
  <clipPath id="pf02d97d56f">
   <rect x="599.489636" y="34.296158" width="261.510124" height="226.40229"/>
  </clipPath>
 </defs>
</svg>
