<?xml version="1.0" encoding="utf-8" standalone="no"?>
<!DOCTYPE svg PUBLIC "-//W3C//DTD SVG 1.1//EN"
  "http://www.w3.org/Graphics/SVG/1.1/DTD/svg11.dtd">
<svg xmlns:xlink="http://www.w3.org/1999/xlink" width="504pt" height="288pt" viewBox="0 0 504 288" xmlns="http://www.w3.org/2000/svg" version="1.1">
 <metadata>
  <rdf:RDF xmlns:dc="http://purl.org/dc/elements/1.1/" xmlns:cc="http://creativecommons.org/ns#" xmlns:rdf="http://www.w3.org/1999/02/22-rdf-syntax-ns#">
   <cc:Work>
    <dc:type rdf:resource="http://purl.org/dc/dcmitype/StillImage"/>
    <dc:date>2026-07-21T15:39:48.373966</dc:date>
    <dc:format>image/svg+xml</dc:format>
    <dc:creator>
     <cc:Agent>
      <dc:title>Matplotlib v3.11.0, https://matplotlib.org/</dc:title>
     </cc:Agent>
    </dc:creator>
   </cc:Work>
  </rdf:RDF>
 </metadata>
 <defs>
  <style type="text/css">*{stroke-linejoin: round; stroke-linecap: butt}</style>
 </defs>
 <g id="figure_1">
  <g id="patch_1">
   <path d="M 0 288 
L 504 288 
L 504 0 
L 0 0 
z
" style="fill: #ffffff"/>
  </g>
  <g id="axes_1">
   <g id="patch_2">
    <path d="M 42.391349 261.299088 
L 500.99976 261.299088 
L 500.99976 18.118365 
L 42.391349 18.118365 
z
" style="fill: #ffffff"/>
   </g>
   <g id="matplotlib.axis_1">
    <g id="xtick_1">
     <g id="line2d_1">
      <path d="M 65.32177 261.299088 
L 65.32177 18.118365 
" clip-path="url(#pafc504fac0)" style="fill: none; stroke: #dddddd; stroke-width: 0.7; stroke-linecap: round"/>
     </g>
     <g id="line2d_2"/>
     <g id="text_1">
      <text style="font-size: 7.6px; font-family: 'DejaVu Sans'; text-anchor: middle; fill: #262626" x="65.32177" y="270.573307" transform="rotate(-0 65.32177 270.573307)">−0.50</text>
     </g>
    </g>
    <g id="xtick_2">
     <g id="line2d_3">
      <path d="M 122.647821 261.299088 
L 122.647821 18.118365 
" clip-path="url(#pafc504fac0)" style="fill: none; stroke: #dddddd; stroke-width: 0.7; stroke-linecap: round"/>
     </g>
     <g id="line2d_4"/>
     <g id="text_2">
      <text style="font-size: 7.6px; font-family: 'DejaVu Sans'; text-anchor: middle; fill: #262626" x="122.647821" y="270.573307" transform="rotate(-0 122.647821 270.573307)">−0.25</text>
     </g>
    </g>
    <g id="xtick_3">
     <g id="line2d_5">
      <path d="M 179.973873 261.299088 
L 179.973873 18.118365 
" clip-path="url(#pafc504fac0)" style="fill: none; stroke: #dddddd; stroke-width: 0.7; stroke-linecap: round"/>
     </g>
     <g id="line2d_6"/>
     <g id="text_3">
      <text style="font-size: 7.6px; font-family: 'DejaVu Sans'; text-anchor: middle; fill: #262626" x="179.973873" y="270.573307" transform="rotate(-0 179.973873 270.573307)">0.00</text>
     </g>
    </g>
    <g id="xtick_4">
     <g id="line2d_7">
      <path d="M 237.299924 261.299088 
L 237.299924 18.118365 
" clip-path="url(#pafc504fac0)" style="fill: none; stroke: #dddddd; stroke-width: 0.7; stroke-linecap: round"/>
     </g>
     <g id="line2d_8"/>
     <g id="text_4">
      <text style="font-size: 7.6px; font-family: 'DejaVu Sans'; text-anchor: middle; fill: #262626" x="237.299924" y="270.573307" transform="rotate(-0 237.299924 270.573307)">0.25</text>
     </g>
    </g>
    <g id="xtick_5">
     <g id="line2d_9">
      <path d="M 294.625975 261.299088 
L 294.625975 18.118365 
" clip-path="url(#pafc504fac0)" style="fill: none; stroke: #dddddd; stroke-width: 0.7; stroke-linecap: round"/>
     </g>
     <g id="line2d_10"/>
     <g id="text_5">
      <text style="font-size: 7.6px; font-family: 'DejaVu Sans'; text-anchor: middle; fill: #262626" x="294.625975" y="270.573307" transform="rotate(-0 294.625975 270.573307)">0.50</text>
     </g>
    </g>
    <g id="xtick_6">
     <g id="line2d_11">
      <path d="M 351.952027 261.299088 
L 351.952027 18.118365 
" clip-path="url(#pafc504fac0)" style="fill: none; stroke: #dddddd; stroke-width: 0.7; stroke-linecap: round"/>
     </g>
     <g id="line2d_12"/>
     <g id="text_6">
      <text style="font-size: 7.6px; font-family: 'DejaVu Sans'; text-anchor: middle; fill: #262626" x="351.952027" y="270.573307" transform="rotate(-0 351.952027 270.573307)">0.75</text>
     </g>
    </g>
    <g id="xtick_7">
     <g id="line2d_13">
      <path d="M 409.278078 261.299088 
L 409.278078 18.118365 
" clip-path="url(#pafc504fac0)" style="fill: none; stroke: #dddddd; stroke-width: 0.7; stroke-linecap: round"/>
     </g>
     <g id="line2d_14"/>
     <g id="text_7">
      <text style="font-size: 7.6px; font-family: 'DejaVu Sans'; text-anchor: middle; fill: #262626" x="409.278078" y="270.573307" transform="rotate(-0 409.278078 270.573307)">1.00</text>
     </g>
    </g>
    <g id="xtick_8">
     <g id="line2d_15">
      <path d="M 466.604129 261.299088 
L 466.604129 18.118365 
" clip-path="url(#pafc504fac0)" style="fill: none; stroke: #dddddd; stroke-width: 0.7; stroke-linecap: round"/>
     </g>
     <g id="line2d_16"/>
     <g id="text_8">
      <text style="font-size: 7.6px; font-family: 'DejaVu Sans'; text-anchor: middle; fill: #262626" x="466.604129" y="270.573307" transform="rotate(-0 466.604129 270.573307)">1.25</text>
     </g>
    </g>
    <g id="text_9">
     <text style="font-size: 8.6px; font-family: 'DejaVu Sans'; text-anchor: middle; fill: #262626" x="271.695555" y="282.933744" transform="rotate(-0 271.695555 282.933744)">time from target switch (s)</text>
    </g>
   </g>
   <g id="matplotlib.axis_2">
    <g id="ytick_1">
     <g id="line2d_17">
      <path d="M 42.391349 251.487165 
L 500.99976 251.487165 
" clip-path="url(#pafc504fac0)" style="fill: none; stroke: #dddddd; stroke-width: 0.7; stroke-linecap: round"/>
     </g>
     <g id="line2d_18"/>
     <g id="text_10">
      <text style="font-size: 7.6px; font-family: 'DejaVu Sans'; text-anchor: end; fill: #262626" x="38.891349" y="254.374275" transform="rotate(-0 38.891349 254.374275)">−10.0</text>
     </g>
    </g>
    <g id="ytick_2">
     <g id="line2d_19">
      <path d="M 42.391349 223.542556 
L 500.99976 223.542556 
" clip-path="url(#pafc504fac0)" style="fill: none; stroke: #dddddd; stroke-width: 0.7; stroke-linecap: round"/>
     </g>
     <g id="line2d_20"/>
     <g id="text_11">
      <text style="font-size: 7.6px; font-family: 'DejaVu Sans'; text-anchor: end; fill: #262626" x="38.891349" y="226.429665" transform="rotate(-0 38.891349 226.429665)">−7.5</text>
     </g>
    </g>
    <g id="ytick_3">
     <g id="line2d_21">
      <path d="M 42.391349 195.597946 
L 500.99976 195.597946 
" clip-path="url(#pafc504fac0)" style="fill: none; stroke: #dddddd; stroke-width: 0.7; stroke-linecap: round"/>
     </g>
     <g id="line2d_22"/>
     <g id="text_12">
      <text style="font-size: 7.6px; font-family: 'DejaVu Sans'; text-anchor: end; fill: #262626" x="38.891349" y="198.485055" transform="rotate(-0 38.891349 198.485055)">−5.0</text>
     </g>
    </g>
    <g id="ytick_4">
     <g id="line2d_23">
      <path d="M 42.391349 167.653336 
L 500.99976 167.653336 
" clip-path="url(#pafc504fac0)" style="fill: none; stroke: #dddddd; stroke-width: 0.7; stroke-linecap: round"/>
     </g>
     <g id="line2d_24"/>
     <g id="text_13">
      <text style="font-size: 7.6px; font-family: 'DejaVu Sans'; text-anchor: end; fill: #262626" x="38.891349" y="170.540446" transform="rotate(-0 38.891349 170.540446)">−2.5</text>
     </g>
    </g>
    <g id="ytick_5">
     <g id="line2d_25">
      <path d="M 42.391349 139.708727 
L 500.99976 139.708727 
" clip-path="url(#pafc504fac0)" style="fill: none; stroke: #dddddd; stroke-width: 0.7; stroke-linecap: round"/>
     </g>
     <g id="line2d_26"/>
     <g id="text_14">
      <text style="font-size: 7.6px; font-family: 'DejaVu Sans'; text-anchor: end; fill: #262626" x="38.891349" y="142.595836" transform="rotate(-0 38.891349 142.595836)">0.0</text>
     </g>
    </g>
    <g id="ytick_6">
     <g id="line2d_27">
      <path d="M 42.391349 111.764117 
L 500.99976 111.764117 
" clip-path="url(#pafc504fac0)" style="fill: none; stroke: #dddddd; stroke-width: 0.7; stroke-linecap: round"/>
     </g>
     <g id="line2d_28"/>
     <g id="text_15">
      <text style="font-size: 7.6px; font-family: 'DejaVu Sans'; text-anchor: end; fill: #262626" x="38.891349" y="114.651226" transform="rotate(-0 38.891349 114.651226)">2.5</text>
     </g>
    </g>
    <g id="ytick_7">
     <g id="line2d_29">
      <path d="M 42.391349 83.819507 
L 500.99976 83.819507 
" clip-path="url(#pafc504fac0)" style="fill: none; stroke: #dddddd; stroke-width: 0.7; stroke-linecap: round"/>
     </g>
     <g id="line2d_30"/>
     <g id="text_16">
      <text style="font-size: 7.6px; font-family: 'DejaVu Sans'; text-anchor: end; fill: #262626" x="38.891349" y="86.706617" transform="rotate(-0 38.891349 86.706617)">5.0</text>
     </g>
    </g>
    <g id="ytick_8">
     <g id="line2d_31">
      <path d="M 42.391349 55.874898 
L 500.99976 55.874898 
" clip-path="url(#pafc504fac0)" style="fill: none; stroke: #dddddd; stroke-width: 0.7; stroke-linecap: round"/>
     </g>
     <g id="line2d_32"/>
     <g id="text_17">
      <text style="font-size: 7.6px; font-family: 'DejaVu Sans'; text-anchor: end; fill: #262626" x="38.891349" y="58.762007" transform="rotate(-0 38.891349 58.762007)">7.5</text>
     </g>
    </g>
    <g id="ytick_9">
     <g id="line2d_33">
      <path d="M 42.391349 27.930288 
L 500.99976 27.930288 
" clip-path="url(#pafc504fac0)" style="fill: none; stroke: #dddddd; stroke-width: 0.7; stroke-linecap: round"/>
     </g>
     <g id="line2d_34"/>
     <g id="text_18">
      <text style="font-size: 7.6px; font-family: 'DejaVu Sans'; text-anchor: end; fill: #262626" x="38.891349" y="30.817397" transform="rotate(-0 38.891349 30.817397)">10.0</text>
     </g>
    </g>
    <g id="text_19">
     <text style="font-size: 8.6px; font-family: 'DejaVu Sans'; text-anchor: middle; fill: #262626" x="9.534896" y="139.708727" transform="rotate(-90 9.534896 139.708727)">gain ratio B/A (dB)</text>
    </g>
   </g>
   <g id="line2d_35">
    <path d="M -1 250.245419 
L 131.819989 250.183621 
L 136.406074 249.972845 
L 138.699116 249.733617 
L 140.992158 249.335865 
L 143.2852 248.705913 
L 145.578242 247.752408 
L 147.871284 246.3681 
L 150.164326 244.43372 
L 152.457368 241.824056 
L 154.75041 238.41609 
L 157.043452 234.098672 
L 159.336494 228.782801 
L 161.629536 222.411237 
L 163.922578 214.966006 
L 166.21562 206.472559 
L 168.508662 196.999836 
L 170.801704 186.656335 
L 173.094746 175.583116 
L 177.680831 151.923902 
L 184.559957 115.472128 
L 189.146041 92.761119 
L 191.439083 82.417617 
L 193.732125 72.944894 
L 196.025167 64.451447 
L 198.318209 57.006216 
L 200.611251 50.634652 
L 202.904293 45.318781 
L 205.197335 41.001363 
L 207.490377 37.593397 
L 209.783419 34.983733 
L 212.076461 33.049353 
L 214.369503 31.665045 
L 216.662545 30.71154 
L 218.955587 30.081588 
L 221.24863 29.683836 
L 225.834714 29.307888 
L 232.71384 29.178963 
L 276.281639 29.172034 
L 505 29.172034 
L 505 29.172034 
" clip-path="url(#pafc504fac0)" style="fill: none; stroke: #1f77b4; stroke-width: 1.8; stroke-linecap: round"/>
   </g>
   <g id="line2d_36">
    <path d="M -1 250.245419 
L 140.992158 250.183621 
L 145.578242 249.972845 
L 147.871284 249.733617 
L 150.164326 249.335865 
L 152.457368 248.705913 
L 154.75041 247.752408 
L 157.043452 246.3681 
L 159.336494 244.43372 
L 161.629536 241.824056 
L 163.922578 238.41609 
L 166.21562 234.098672 
L 168.508662 228.782801 
L 170.801704 222.411237 
L 173.094746 214.966006 
L 175.387788 206.472559 
L 177.680831 196.999836 
L 179.973873 186.656335 
L 182.266915 175.583116 
L 186.852999 151.923902 
L 193.732125 115.472128 
L 198.318209 92.761119 
L 200.611251 82.417617 
L 202.904293 72.944894 
L 205.197335 64.451447 
L 207.490377 57.006216 
L 209.783419 50.634652 
L 212.076461 45.318781 
L 214.369503 41.001363 
L 216.662545 37.593397 
L 218.955587 34.983733 
L 221.24863 33.049353 
L 223.541672 31.665045 
L 225.834714 30.71154 
L 228.127756 30.081588 
L 230.420798 29.683836 
L 235.006882 29.307888 
L 241.886008 29.178963 
L 285.453807 29.172034 
L 505 29.172034 
L 505 29.172034 
" clip-path="url(#pafc504fac0)" style="fill: none; stroke: #ff7f0e; stroke-width: 1.8; stroke-linecap: round"/>
   </g>
   <g id="line2d_37">
    <path d="M -1 250.245419 
L 150.164326 250.183621 
L 154.75041 249.972845 
L 157.043452 249.733617 
L 159.336494 249.335865 
L 161.629536 248.705913 
L 163.922578 247.752408 
L 166.21562 246.3681 
L 168.508662 244.43372 
L 170.801704 241.824056 
L 173.094746 238.41609 
L 175.387788 234.098672 
L 177.680831 228.782801 
L 179.973873 222.411237 
L 182.266915 214.966006 
L 184.559957 206.472559 
L 186.852999 196.999836 
L 189.146041 186.656335 
L 191.439083 175.583116 
L 196.025167 151.923902 
L 202.904293 115.472128 
L 207.490377 92.761119 
L 209.783419 82.417617 
L 212.076461 72.944894 
L 214.369503 64.451447 
L 216.662545 57.006216 
L 218.955587 50.634652 
L 221.24863 45.318781 
L 223.541672 41.001363 
L 225.834714 37.593397 
L 228.127756 34.983733 
L 230.420798 33.049353 
L 232.71384 31.665045 
L 235.006882 30.71154 
L 237.299924 30.081588 
L 239.592966 29.683836 
L 244.17905 29.307888 
L 251.058176 29.178963 
L 294.625975 29.172034 
L 505 29.172034 
L 505 29.172034 
" clip-path="url(#pafc504fac0)" style="fill: none; stroke: #2ca02c; stroke-width: 1.8; stroke-linecap: round"/>
   </g>
   <g id="line2d_38">
    <path d="M -1 250.245419 
L 168.508662 250.183621 
L 173.094746 249.972845 
L 175.387788 249.733617 
L 177.680831 249.335865 
L 179.973873 248.705913 
L 182.266915 247.752408 
L 184.559957 246.3681 
L 186.852999 244.43372 
L 189.146041 241.824056 
L 191.439083 238.41609 
L 193.732125 234.098672 
L 196.025167 228.782801 
L 198.318209 222.411237 
L 200.611251 214.966006 
L 202.904293 206.472559 
L 205.197335 196.999836 
L 207.490377 186.656335 
L 209.783419 175.583116 
L 214.369503 151.923902 
L 221.24863 115.472128 
L 225.834714 92.761119 
L 228.127756 82.417617 
L 230.420798 72.944894 
L 232.71384 64.451447 
L 235.006882 57.006216 
L 237.299924 50.634652 
L 239.592966 45.318781 
L 241.886008 41.001363 
L 244.17905 37.593397 
L 246.472092 34.983733 
L 248.765134 33.049353 
L 251.058176 31.665045 
L 253.351218 30.71154 
L 255.64426 30.081588 
L 257.937302 29.683836 
L 262.523386 29.307888 
L 269.402513 29.178963 
L 312.970312 29.172034 
L 505 29.172034 
L 505 29.172034 
" clip-path="url(#pafc504fac0)" style="fill: none; stroke: #d62728; stroke-width: 1.8; stroke-linecap: round"/>
   </g>
   <g id="line2d_39">
    <path d="M -1 250.245419 
L 177.680831 250.183621 
L 182.266915 249.972845 
L 184.559957 249.733617 
L 186.852999 249.335865 
L 189.146041 248.705913 
L 191.439083 247.752408 
L 193.732125 246.3681 
L 196.025167 244.43372 
L 198.318209 241.824056 
L 200.611251 238.41609 
L 202.904293 234.098672 
L 205.197335 228.782801 
L 207.490377 222.411237 
L 209.783419 214.966006 
L 212.076461 206.472559 
L 214.369503 196.999836 
L 216.662545 186.656335 
L 218.955587 175.583116 
L 223.541672 151.923902 
L 230.420798 115.472128 
L 235.006882 92.761119 
L 237.299924 82.417617 
L 239.592966 72.944894 
L 241.886008 64.451447 
L 244.17905 57.006216 
L 246.472092 50.634652 
L 248.765134 45.318781 
L 251.058176 41.001363 
L 253.351218 37.593397 
L 255.64426 34.983733 
L 257.937302 33.049353 
L 260.230344 31.665045 
L 262.523386 30.71154 
L 264.816429 30.081588 
L 267.109471 29.683836 
L 271.695555 29.307888 
L 278.574681 29.178963 
L 322.14248 29.172034 
L 505 29.172034 
L 505 29.172034 
" clip-path="url(#pafc504fac0)" style="fill: none; stroke: #9467bd; stroke-width: 1.8; stroke-linecap: round"/>
   </g>
   <g id="line2d_40">
    <path d="M 179.973873 261.299088 
L 179.973873 18.118365 
" clip-path="url(#pafc504fac0)" style="fill: none; stroke-dasharray: 3.7,1.6; stroke-dashoffset: 0; stroke: #333333"/>
   </g>
   <g id="line2d_41">
    <path d="M 42.391349 139.708727 
L 500.99976 139.708727 
" clip-path="url(#pafc504fac0)" style="fill: none; stroke: #999999; stroke-width: 0.8; stroke-linecap: round"/>
   </g>
   <g id="patch_3">
    <path d="M 42.391349 261.299088 
L 42.391349 18.118365 
" style="fill: none; stroke: #cccccc; stroke-linejoin: miter; stroke-linecap: square"/>
   </g>
   <g id="patch_4">
    <path d="M 500.99976 261.299088 
L 500.99976 18.118365 
" style="fill: none; stroke: #cccccc; stroke-linejoin: miter; stroke-linecap: square"/>
   </g>
   <g id="patch_5">
    <path d="M 42.391349 261.299088 
L 500.99976 261.299088 
" style="fill: none; stroke: #cccccc; stroke-linejoin: miter; stroke-linecap: square"/>
   </g>
   <g id="patch_6">
    <path d="M 42.391349 18.118365 
L 500.99976 18.118365 
" style="fill: none; stroke: #cccccc; stroke-linejoin: miter; stroke-linecap: square"/>
   </g>
   <g id="text_20">
    <text style="font-weight: 700; font-size: 12px; font-family: 'DejaVu Sans'; text-anchor: middle; fill: #262626" x="271.695555" y="12.118365" transform="rotate(-0 271.695555 12.118365)">Representative gain transition, sigma=20 deg, 120 deg/s</text>
   </g>
   <g id="legend_1">
    <g id="text_21">
     <text style="font-size: 7.8px; font-family: 'DejaVu Sans'; text-anchor: start; fill: #262626" x="93.320115" y="30.885146" transform="rotate(-0 93.320115 30.885146)">delay</text>
    </g>
    <g id="line2d_42">
     <path d="M 49.231349 39.673787 
L 56.831349 39.673787 
L 64.431349 39.673787 
" style="fill: none; stroke: #1f77b4; stroke-width: 1.8; stroke-linecap: round"/>
    </g>
    <g id="text_22">
     <text style="font-size: 7.6px; font-family: 'DejaVu Sans'; text-anchor: start; fill: #262626" x="70.511349" y="42.333787" transform="rotate(-0 70.511349 42.333787)">0 ms</text>
    </g>
    <g id="line2d_43">
     <path d="M 49.231349 51.074381 
L 56.831349 51.074381 
L 64.431349 51.074381 
" style="fill: none; stroke: #ff7f0e; stroke-width: 1.8; stroke-linecap: round"/>
    </g>
    <g id="text_23">
     <text style="font-size: 7.6px; font-family: 'DejaVu Sans'; text-anchor: start; fill: #262626" x="70.511349" y="53.734381" transform="rotate(-0 70.511349 53.734381)">40 ms</text>
    </g>
    <g id="line2d_44">
     <path d="M 49.231349 62.474974 
L 56.831349 62.474974 
L 64.431349 62.474974 
" style="fill: none; stroke: #2ca02c; stroke-width: 1.8; stroke-linecap: round"/>
    </g>
    <g id="text_24">
     <text style="font-size: 7.6px; font-family: 'DejaVu Sans'; text-anchor: start; fill: #262626" x="70.511349" y="65.134974" transform="rotate(-0 70.511349 65.134974)">80 ms</text>
    </g>
    <g id="line2d_45">
     <path d="M 109.159724 39.673787 
L 116.759724 39.673787 
L 124.359724 39.673787 
" style="fill: none; stroke: #d62728; stroke-width: 1.8; stroke-linecap: round"/>
    </g>
    <g id="text_25">
     <text style="font-size: 7.6px; font-family: 'DejaVu Sans'; text-anchor: start; fill: #262626" x="130.439724" y="42.333787" transform="rotate(-0 130.439724 42.333787)">160 ms</text>
    </g>
    <g id="line2d_46">
     <path d="M 109.159724 51.074381 
L 116.759724 51.074381 
L 124.359724 51.074381 
" style="fill: none; stroke: #9467bd; stroke-width: 1.8; stroke-linecap: round"/>
    </g>
    <g id="text_26">
     <text style="font-size: 7.6px; font-family: 'DejaVu Sans'; text-anchor: start; fill: #262626" x="130.439724" y="53.734381" transform="rotate(-0 130.439724 53.734381)">200 ms</text>
    </g>
   </g>
  </g>
 </g>
 <defs>
  <clipPath id="pafc504fac0">
   <rect x="42.391349" y="18.118365" width="458.608411" height="243.180723"/>
  </clipPath>
 </defs>
</svg>
